<?xml version="1.0" standalone="no"?>
<!DOCTYPE svg PUBLIC "-//W3C//DTD SVG 1.1//EN" "http://www.w3.org/Graphics/SVG/1.1/DTD/svg11.dtd" >
<svg xmlns="http://www.w3.org/2000/svg">
<metadata></metadata>
<defs>
<font id="gill_facia_mtregular" horiz-adv-x="980" >
<font-face units-per-em="2048" ascent="1638" descent="-410" />
<missing-glyph horiz-adv-x="450" />
<glyph horiz-adv-x="0" />
<glyph unicode="&#xd;" horiz-adv-x="450" />
<glyph horiz-adv-x="0" />
<glyph horiz-adv-x="0" />
<glyph unicode=" "  horiz-adv-x="450" />
<glyph unicode="&#x09;" horiz-adv-x="450" />
<glyph unicode="&#xa0;" horiz-adv-x="450" />
<glyph unicode="!" horiz-adv-x="405" d="M90 965q0 4 22.5 18t57.5 37q25 14 40 24.5t28.5 18.5t27 17.5t31.5 21.5q-4 -27 -6 -55.5t-2 -85.5v-480q-8 -41 -23.5 -76.5t-34.5 -91.5q-18 -55 -29.5 -87.5t-21.5 -32.5q-6 0 -6 6q0 16 4 60t4 81v569q0 29 -5 45.5t-27 16.5q-6 0 -16.5 -2t-18.5 -6q-14 -8 -19 -9 q-6 0 -6 11zM143 70q10 10 38 37.5t52 56.5q12 -10 29 -25.5t68 -62.5q-29 -27 -50.5 -46.5t-46.5 -45.5z" />
<glyph unicode="&#x22;" horiz-adv-x="661" d="M106 1266q0 43 18.5 64.5t47.5 21.5q41 0 52.5 -26t11.5 -60q0 -14 -2.5 -47t-8.5 -68l-47 -299h-22l-37 303q-4 25 -6 39t-3 25.5t-2.5 20.5t-1.5 26zM426 1266q0 43 18.5 64.5t47.5 21.5q41 0 52 -26t11 -60q0 -14 -2 -47t-8 -68l-47 -299h-23l-37 303q-4 25 -6 39 t-3 25.5t-2 20.5t-1 26z" />
<glyph unicode="#" horiz-adv-x="1099" d="M94 301v72h187l65 323h-252v72h271l69 336h74l-70 -336h326l67 336h74l-69 -336h170v-72h-187l-65 -323h252v-72h-269l-69 -340h-74l68 340h-326l-68 -340h-73l67 340h-168zM354 375h326l65 321h-325z" />
<glyph unicode="$" horiz-adv-x="661" d="M25 86q4 49 3 95t-1 77v25q2 2 1 9t3 7q6 0 9 -3t3 -17q0 -31 5 -64t29.5 -63.5t75 -54t140.5 -31.5v165.5t-2 276.5q-90 53 -141.5 98t-76 84t-30.5 72t-6 63q0 66 21.5 118t58.5 89t84 59.5t96 28.5q0 41 -1 70t-5 63l20 -10t19 -4q14 0 21 4t20 12q-4 -29 -6.5 -44 t-2.5 -26t-1 -23.5t-1 -37.5q57 0 108.5 -11t106.5 -46q0 -31 1.5 -63.5t1.5 -62.5t1 -52.5t1 -32.5t-11 -10q-6 0 -6 14v27q0 37 -20.5 67.5t-51 54t-65.5 38t-66 16.5q0 -59 -1 -125t-1 -119v-209q57 -37 105.5 -69.5t81.5 -67.5t51 -79t18 -101q0 -94 -60 -166t-192 -115 v-25.5t1.5 -23.5t2.5 -29.5t3 -42.5q-14 6 -22.5 10.5t-16.5 4.5q-14 0 -21.5 -6t-17.5 -27q2 55 2 81v54q-102 0 -162.5 25.5t-105.5 52.5zM125 879q0 -41 15.5 -74t39 -60.5t53 -51t60.5 -44.5l4 416q-53 -8 -87 -29.5t-52.5 -49.5t-25.5 -56.5t-7 -50.5zM354 72 q23 6 51.5 17t53 31.5t42 51.5t17.5 76q0 43 -15.5 74.5t-38 57.5t-51 46.5t-55.5 36.5q0 -121 -1 -210t-3 -181z" />
<glyph unicode="%" horiz-adv-x="1515" d="M51 958q0 72 32 131.5t81 102.5t110.5 67.5t120.5 24.5q57 0 107.5 -22.5t87.5 -60.5t57.5 -89t20.5 -108q0 -70 -30 -128.5t-78 -99.5t-109.5 -64.5t-122.5 -23.5q-66 0 -118 22.5t-87 60.5t-53.5 86t-18.5 101zM121 1024q0 -37 16.5 -85t50 -91t85 -73t122.5 -30 q27 0 62 8.5t66.5 29t53 56t21.5 91.5q0 59 -22.5 112.5t-61.5 94.5t-90 65.5t-109 24.5q-47 0 -83.5 -17.5t-61.5 -47t-37 -65.5t-12 -73zM326 4q0 4 2 6t12 2t23.5 -1t27.5 -1q20 0 47 35t54.5 87t53 112.5t48.5 111.5q37 86 69.5 160t63.5 142.5t61.5 133t61.5 130.5 q43 90 70.5 146t45 95t29 66.5t19.5 62.5q29 -4 39 -6t20 -2q16 0 58.5 5t76.5 5q10 0 21.5 -3t11.5 -9q0 -8 -10 -8t-21.5 2t-15.5 2q-63 0 -97 -34t-53 -70q-55 -111 -122.5 -255.5t-139 -304t-141.5 -322.5t-127 -308q-18 8 -37 12q-10 4 -17 4h-16q-6 0 -20 -1t-31 -1 q-16 -2 -30.5 -3t-20.5 -1q-16 0 -16 10zM848 264q0 70 29.5 129.5t79 103.5t110.5 68.5t125 24.5q57 0 107.5 -22.5t87 -61.5t57 -90t20.5 -109q0 -66 -26.5 -123t-72.5 -99t-108.5 -66.5t-132.5 -24.5q-66 0 -118 22.5t-86.5 60.5t-53 86t-18.5 101zM918 332q0 -37 16 -85 t50 -92t85 -75t123 -31q31 0 66.5 9.5t66.5 31t50.5 58t19.5 90.5q0 49 -19.5 101t-56.5 95t-89 70.5t-118 27.5q-55 0 -92 -21.5t-60.5 -52t-32.5 -65t-9 -61.5z" />
<glyph unicode="&#x26;" horiz-adv-x="1665" d="M72 324q0 76 29.5 136t75.5 103t103.5 71t112.5 40q-41 33 -77.5 66.5t-65.5 72.5t-45.5 85t-16.5 106q0 82 34 149.5t90.5 115.5t130 73.5t151.5 25.5q74 0 136.5 -24.5t107.5 -66.5t69.5 -99.5t24.5 -122.5q0 -45 -15.5 -88t-56.5 -85t-113.5 -84t-189.5 -83l440 -344 q14 41 33 104.5t19 122.5q0 41 -18.5 62.5t-45.5 21.5q-10 0 -17 -1t-14 -1q-12 0 -12 4q0 6 4 10t23 4q12 0 51 -1t84 -1q25 0 53.5 2t55 4.5t47 4.5t28.5 2q20 0 21 -11q0 -12 -17 -12q-8 0 -20 1t-25 1q-57 0 -96 -35t-55 -82q-6 -23 -16.5 -55.5t-21.5 -65t-19.5 -61.5 t-12.5 -41q20 -16 73.5 -55t113 -82t111.5 -82t73 -53q25 -16 60.5 -38t66.5 -26q20 -4 52 -2t54 2q20 0 26.5 -2t6.5 -6q0 -8 -6 -8q-8 -4 -19.5 -4h-27.5q-10 0 -40 1t-63 3q-31 2 -55.5 3t-28.5 1q-14 0 -38.5 -1t-96.5 -5q-41 35 -57.5 49t-38.5 31q-43 35 -104.5 81 t-104.5 81q-16 -25 -48 -71t-86 -90t-134 -78t-193 -34q-104 0 -188 28.5t-142.5 78t-89 115t-30.5 139.5zM227 377q0 -86 31 -148.5t81 -102.5t112.5 -59.5t126.5 -19.5q70 0 127 18.5t103 49t80.5 68.5t59.5 77q-10 8 -47 36t-89 66.5t-113.5 84t-117 87t-99.5 74.5 t-64 47q-35 -16 -69 -39.5t-61.5 -57.5t-44 -79t-16.5 -102zM295 1057q0 -55 19.5 -101.5t53 -84t77 -71.5t92.5 -67q29 16 69.5 43t78.5 66t64.5 89t26.5 116q0 59 -23.5 106t-60.5 79t-83 49t-91 17q-49 0 -90 -20.5t-70.5 -54t-46 -77.5t-16.5 -89z" />
<glyph unicode="'" horiz-adv-x="319" d="M96 1266q0 43 18.5 64.5t47.5 21.5q41 0 52 -26t11 -60q0 -14 -2 -47t-8 -68l-47 -299h-23l-36 303q-4 25 -6.5 39t-3.5 25.5t-2 20.5t-1 26z" />
<glyph unicode="(" horiz-adv-x="491" d="M66 676q0 66 11 142.5t32.5 154.5t52.5 148.5t70.5 126t87 88t102.5 32.5q12 0 15 -1t3 -7q0 -8 -18 -8q-29 0 -38 -1t-28 -14q-33 -23 -63.5 -86t-55 -154t-39 -201t-14.5 -222q0 -111 13.5 -213.5t35 -186.5t48 -145t53.5 -90q39 -41 69 -41q8 0 13.5 1t13.5 1 q10 0 10 -6q0 -10 -18 -10q-72 0 -136.5 63.5t-113.5 163.5t-77.5 223t-28.5 242z" />
<glyph unicode=")" horiz-adv-x="491" d="M49 -6q0 6 10 6q8 0 13.5 -1t13.5 -1q31 0 70 41q27 29 53.5 90t48 145t34.5 186.5t13 213.5q0 113 -14.5 222.5t-39 200.5t-55 154.5t-63.5 85.5q-18 12 -27.5 13.5t-37.5 1.5q-18 0 -19 8q0 6 3 7t16 1q53 0 101 -32.5t88 -88t70.5 -126t52 -148.5t33 -155t11.5 -142 q0 -119 -28.5 -242t-78 -223t-114 -163.5t-135.5 -63.5q-18 0 -19 10z" />
<glyph unicode="*" horiz-adv-x="788" d="M88 883l258 116v25l-258 115l45 78l223 -166l23 8l-33 293h94l-30 -293l18 -8l229 166l43 -78l-260 -115v-25l260 -116l-43 -72l-229 164l-18 -10l30 -285h-84l23 285l-23 10l-223 -168z" />
<glyph unicode="+" horiz-adv-x="1003" d="M129 530v74h336v336h74v-336h335v-74h-335v-335h-74v335h-336z" />
<glyph unicode="," horiz-adv-x="362" d="M82 -121q0 12 18 23q25 14 42.5 38.5t17.5 36.5q0 10 -6.5 16.5t-28.5 29.5l-37 36q6 6 18.5 19.5t26.5 28t27.5 27.5t17.5 20l19.5 -19.5l29 -29t29.5 -27.5t18 -19l-14 -14l-21.5 -21.5l-21.5 -21.5t-12 -14q-55 -70 -74.5 -93.5t-34.5 -23.5q-14 0 -14 8z" />
<glyph unicode="-" horiz-adv-x="724" d="M45 313q0 2 9 15.5t20.5 30t21.5 30.5t15 19q23 35 36.5 50t42.5 15q23 0 76 -2t112.5 -3t112 -3t72.5 -2q41 0 70 13t31 42q2 16 3 19.5t7 3.5t6 -6v-5q0 -12 -8 -43.5t-15 -48.5q-12 -31 -31.5 -50t-60.5 -19q-23 0 -77 1t-113.5 2t-112.5 2t-74 1q-41 0 -60 -6.5 t-32 -16.5q-6 -4 -21.5 -24.5t-23.5 -20.5q-6 0 -6 6z" />
<glyph unicode="." horiz-adv-x="362" d="M88 70q10 10 38 37.5t52 56.5q12 -10 28.5 -25.5t67.5 -62.5q-29 -27 -50 -46.5t-46 -45.5z" />
<glyph unicode="/" horiz-adv-x="1067" d="M51 -2q0 10 3 11t9 1q4 0 18.5 -2t18.5 -2q31 0 49.5 9.5t29.5 23.5t18.5 33.5t15.5 38.5q49 113 114.5 259t138.5 310t150.5 337t155.5 343q37 -6 60.5 -7t33.5 -1q6 0 31 4t41 4q16 2 30.5 3t20.5 1q27 0 27 -8t-37 -8q-41 0 -77 -16.5t-68 -86.5q-10 -20 -31 -65 t-47.5 -102.5t-56 -121t-56.5 -122t-48.5 -105.5t-31.5 -70q-84 -184 -137 -302.5t-85 -192.5t-46 -114t-23 -64q-12 4 -34.5 9t-51.5 5q-10 0 -23 -1t-28 -3q-25 -6 -45 -6h-24.5t-14.5 8z" />
<glyph unicode="0" horiz-adv-x="854" d="M53 559q0 166 39 278.5t97.5 181t126 98.5t124.5 30q104 0 174 -61.5t111 -150.5t58.5 -189.5t17.5 -178.5q0 -106 -26.5 -210.5t-76 -186.5t-120 -132t-160.5 -50t-159 47t-115 125t-68.5 181t-22.5 218zM174 588q0 -27 4 -78t14.5 -112.5t29 -125t49 -116t73.5 -85 t102 -32.5q74 0 119 54t69.5 131t33 159t8.5 139q0 78 -13.5 177.5t-45 187.5t-84 148.5t-132.5 60.5q-123 0 -175 -132t-52 -376z" />
<glyph unicode="1" horiz-adv-x="854" d="M236 954q0 4 26.5 20.5t56.5 37.5q43 27 73 47t53.5 35.5t46 30t51.5 32.5v-979q0 -43 4 -74.5t16 -51t37 -30t66 -10.5q8 0 32.5 2t30.5 2q8 0 8 -10q0 -8 -11 -10t-40 -2q-14 0 -34.5 1t-45.5 3q-27 0 -53.5 1t-52.5 1q-80 0 -142.5 -4t-85.5 -4q-27 0 -26 10 q0 12 6 12q12 0 22.5 -2t32.5 -2q25 0 48.5 4t41 16.5t28.5 37t11 67.5v739q0 55 -18.5 85t-65.5 30q-16 0 -34.5 -3t-38.5 -19q-10 -8 -19.5 -14.5t-13.5 -6.5q-10 0 -10 8z" />
<glyph unicode="2" horiz-adv-x="854" d="M14 0q27 16 47.5 28.5t44 31t55.5 46t83 76.5q35 33 65.5 63.5t58 62.5t54.5 69t55 84q35 59 65.5 143t30.5 182q0 37 -12 83t-40.5 86t-76 68t-116.5 28q-55 0 -97.5 -20.5t-69 -50.5t-39.5 -63.5t-13 -62.5q0 -23 3 -45.5t3 -30.5q0 -14 -9 -14q-2 0 -5 1t-7 10 t-7 27.5t-3 53.5q0 70 24.5 126t67.5 95t99.5 59.5t119.5 20.5q59 0 116.5 -22.5t101.5 -63.5t72 -98.5t28 -126.5q0 -20 -5.5 -61.5t-24.5 -97.5t-59 -128t-108 -153q-41 -49 -82 -91.5t-72 -70.5l-151 -138h455q45 0 71.5 13.5t42.5 50.5q8 18 12.5 35.5t12.5 17.5 q10 0 11 -15t-15 -42l-92 -166h-695z" />
<glyph unicode="3" horiz-adv-x="854" d="M61 209q0 8 9 8q6 0 10 -4t10 -20t29.5 -45t60.5 -55.5t86 -46t105 -19.5q55 0 107 19.5t92 54t63.5 86t23.5 114.5q0 41 -13 85t-44 80t-78 58.5t-114 22.5q-23 0 -47.5 -2t-61.5 -10l240 481h-279q-35 0 -56.5 -1t-34.5 -6t-21.5 -17.5t-18.5 -35.5q-8 -16 -10 -29.5 t-4 -23.5l-3 -9t-12 -3q-6 0 -6 14q0 10 12.5 41t30.5 84q10 29 16.5 48.5t10.5 47.5h504l-236 -471q80 0 142.5 -28.5t105.5 -74.5t65.5 -104.5t22.5 -119.5q0 -72 -26.5 -133.5t-72.5 -107.5t-109.5 -72.5t-137.5 -26.5q-86 0 -153.5 31.5t-113.5 71.5t-70 75t-24 43z" />
<glyph unicode="4" horiz-adv-x="854" d="M33 334q20 31 33.5 49t20.5 29.5t11 17.5l8 12q80 127 137.5 218.5t100.5 159t76 116.5t60.5 90t54 79t59.5 85v-760h82q47 0 85 15.5t50 46.5q6 16 9 27t9 11q4 0 5 -6q0 -4 -9.5 -27.5t-23 -53t-26.5 -60.5t-21 -49h-158v-219q0 -59 19.5 -81t72.5 -22q8 0 26.5 2 t26.5 2q10 0 11 -14q0 -6 -7.5 -6h-29.5q-6 0 -29.5 1t-51.5 1t-51.5 1t-29.5 1q-10 0 -30.5 -1t-44 -1t-43 -1t-27.5 -1q-27 0 -34 2t-7 8q0 10 8 10t19.5 -2t21.5 -2q27 0 42 10.5t22 24.5t8 30.5t1 31.5v225h-456zM178 430h311v496z" />
<glyph unicode="5" horiz-adv-x="854" d="M41 193q0 8 1 10t11 2t17.5 -15.5t23.5 -37.5q55 -78 122 -100.5t122 -22.5q74 0 127 28.5t89 73.5t53.5 99.5t17.5 105.5q0 39 -12.5 84t-43 84t-81 65.5t-126.5 26.5q-43 0 -76.5 -8t-78.5 -25l123 582h291q43 0 66.5 10t23.5 45q0 20 2 26.5t4 6.5q12 0 12 -16 t-12 -67.5t-27 -111.5h-323l-80 -360q27 4 48 7t50 3q63 0 125.5 -20.5t112 -62.5t79 -105.5t29.5 -147.5q0 -86 -30.5 -153.5t-81 -114.5t-115 -71.5t-133.5 -24.5q-88 0 -150.5 29.5t-102.5 66.5t-58.5 69.5t-18.5 39.5z" />
<glyph unicode="6" horiz-adv-x="854" d="M53 379q0 111 43 217t108.5 199.5t142.5 172.5t146.5 135t120 88t62.5 32q14 0 14 -13q0 -4 -7 -9t-36 -19q-47 -23 -120.5 -81.5t-146.5 -147.5t-132.5 -203.5t-77.5 -249.5q20 29 50 66.5t70 70.5t91 55.5t117 22.5q68 0 124 -26.5t96 -73t61.5 -106.5t21.5 -128 q0 -80 -32 -151.5t-86 -125t-128 -85t-158 -31.5q-66 0 -128 24.5t-110 72.5t-77 122t-29 172zM160 397q0 -82 29.5 -144.5t74.5 -104.5t100.5 -63.5t106.5 -21.5q45 0 88 16.5t77 47.5t54.5 76t20.5 104q0 76 -27 135.5t-68 99.5t-91 61.5t-99 21.5q-74 0 -123 -28t-70 -48 q-74 -74 -73 -152z" />
<glyph unicode="7" horiz-adv-x="854" d="M115 934q0 4 27.5 64.5t68.5 146.5h385h38t31.5 1t38 2t56.5 3q-43 -84 -85 -174t-81 -180t-76 -177.5t-69 -164.5q-8 -18 -30 -69.5t-49.5 -117t-56 -137.5t-49.5 -131h-108q43 82 74.5 145.5t58 123t52.5 121t58 134.5q35 82 57.5 135.5t44 103.5t48 112.5t67.5 162.5 h-329q-43 0 -74 -9t-55 -46q-10 -12 -14.5 -25.5t-8.5 -23.5t-12 -10t-8 10z" />
<glyph unicode="8" horiz-adv-x="854" d="M121 250q0 57 21.5 104t54 86t72.5 72t77 61q-27 18 -59.5 44t-62 61t-49 80t-19.5 102q0 45 20.5 97.5t58 96.5t94 73.5t128.5 29.5q61 0 107 -21.5t77 -53t46 -70.5t15 -76q0 -61 -26.5 -111.5t-63.5 -89.5t-78.5 -69t-72.5 -48q92 -68 145 -117.5t81 -87.5t36 -67 t8 -53q0 -59 -25.5 -114.5t-68.5 -97.5t-100.5 -67.5t-118.5 -25.5q-63 0 -117.5 20.5t-94.5 56t-62.5 84t-22.5 101.5zM219 319q0 -49 22.5 -97t59.5 -85t83 -60.5t95 -23.5q35 0 67 12.5t56.5 33t38.5 49t14 61.5t-13 66.5t-46 74.5t-88 91.5t-137 113.5 q-66 -55 -109 -106.5t-43 -129.5zM231 918q0 -39 11.5 -70t36 -61.5t63.5 -66.5t94 -83q16 10 44 29.5t55.5 48t48 66.5t20.5 87q0 41 -16.5 80t-44 69t-67.5 47t-85 17q-39 0 -68.5 -15t-50 -38.5t-31 -52.5t-10.5 -57z" />
<glyph unicode="9" horiz-adv-x="854" d="M53 764q0 80 32 151.5t86 125t128 85t158 31.5q66 0 128 -24.5t110 -72.5t77 -122t29 -172q0 -111 -43 -217.5t-108.5 -199.5t-142.5 -172t-146.5 -135t-120 -88t-62.5 -32q-14 0 -14 12q0 4 7 9.5t36 19.5q47 23 120.5 81t146.5 147.5t132.5 204t77.5 249.5 q-20 -29 -50 -66.5t-70 -70.5t-91 -55.5t-117 -22.5q-68 0 -124 26.5t-96 72.5t-61.5 106.5t-21.5 128.5zM143 838q0 -76 27 -135.5t68 -99.5t91 -61.5t99 -21.5q74 0 123 27.5t70 48.5q74 74 73 152q0 82 -29.5 144t-74.5 104t-100.5 63.5t-106.5 21.5q-45 0 -88 -16 t-77 -47t-54.5 -77t-20.5 -103z" />
<glyph unicode=":" horiz-adv-x="362" d="M88 59l38 38t52 57q12 -10 28.5 -25.5t67.5 -62.5q-29 -27 -50 -46.5t-46 -46.5zM88 518l38 38t52 56q12 -10 28.5 -25.5t67.5 -62.5q-29 -27 -50 -46t-46 -46z" />
<glyph unicode=";" horiz-adv-x="362" d="M82 -121q0 12 18 23q25 14 42.5 38.5t17.5 36.5q0 10 -6.5 16.5t-28.5 29.5l-37 36q6 6 18.5 19.5t26.5 28t27.5 27.5t17.5 20l19.5 -19.5l29 -29t29.5 -27.5t18 -19l-14 -14l-21.5 -21.5l-21.5 -21.5t-12 -14q-55 -70 -74.5 -93.5t-34.5 -23.5q-14 0 -14 8zM88 518 l38 38t52 56q12 -10 28.5 -25.5t67.5 -62.5q-29 -27 -50 -46t-46 -46z" />
<glyph unicode="&#x3c;" horiz-adv-x="1003" d="M127 535v65l747 315v-79l-647 -269l647 -268v-80z" />
<glyph unicode="=" horiz-adv-x="1003" d="M127 369v73h747v-73h-747zM127 692v74h747v-74h-747z" />
<glyph unicode="&#x3e;" horiz-adv-x="1003" d="M127 219v80l649 268l-649 269v79l747 -315v-65z" />
<glyph unicode="?" horiz-adv-x="598" d="M29 842q10 23 25.5 48t41 48t66.5 37t102 14q39 0 89 -10t95.5 -38t76 -76t30.5 -124q0 -45 -12.5 -79.5t-40 -70.5t-71.5 -77t-107 -96q-70 -59 -110 -116.5t-40 -117.5q0 -41 28.5 -64.5t110.5 -39.5q-12 -12 -19 -21.5t-14.5 -18.5t-17.5 -22.5t-24 -33.5 q-23 16 -43.5 23t-49.5 18q18 14 33 29.5t37 39.5q-51 25 -77.5 68t-26.5 96q0 74 46 133.5t144 145.5q39 33 68.5 60.5t49 53t30 54t10.5 63.5q0 31 -10.5 64.5t-32 61.5t-55 46t-78.5 18q-66 0 -108 -39.5t-42 -78.5q0 -8 6 -15.5t29 -11.5q14 -4 17 -6t3 -6q0 -8 -12 -8 q-8 0 -17 4t-32 12q-27 8 -41 13t-23.5 8.5t-15.5 5.5z" />
<glyph unicode="@" horiz-adv-x="1462" d="M66 551q0 156 55 292t152.5 236.5t230.5 157.5t289 57q143 0 254.5 -47t188.5 -125t118 -178t41 -205q0 -133 -57.5 -225t-134.5 -150.5t-151.5 -84t-111.5 -25.5q-51 0 -67.5 22.5t-20.5 51.5q-51 -29 -102.5 -49.5t-98.5 -20.5q-37 0 -88 14.5t-98 48t-80 90t-33 142.5 q0 57 19.5 108.5t51.5 95.5t70.5 80.5t77.5 63.5q51 35 110.5 58.5t137.5 23.5q16 0 76.5 -5t128.5 -38l-57 -489q-8 -72 -6 -95.5t18 -23.5q31 0 89 22.5t116.5 70.5t101.5 122t43 178q0 80 -30.5 169t-96 166t-167 127t-242.5 50q-129 0 -249 -50t-211 -141.5t-145.5 -216 t-54.5 -272.5q0 -121 42 -238.5t124 -210t204 -148.5t283 -56q119 0 212.5 27.5t163 68.5t116.5 88t74 84h86q-31 -49 -87.5 -106.5t-138.5 -108.5t-189.5 -85t-238.5 -34q-172 0 -306 59.5t-225 158t-139 227.5t-48 268zM444 610q0 -57 25 -107t67 -88t95 -59.5t112 -21.5 q47 0 67.5 10t35.5 23l55 518q-25 8 -60.5 15t-90.5 7q-74 0 -131.5 -25.5t-95.5 -67.5t-58.5 -95t-20.5 -109z" />
<glyph unicode="A" horiz-adv-x="1492" d="M-2 4v6t12 2q6 0 26.5 -1t31.5 -1q76 0 110.5 33t63.5 90q14 29 45.5 101.5t72.5 170t87.5 211t90.5 221t81.5 199.5t60.5 150q-41 88 -82 127t-115 39h-53q-14 0 -14 8q0 6 10 7t23 1q10 0 33.5 -1t54.5 -1q31 -2 63.5 -3t56.5 -1h103q10 -27 17 -44.5t16.5 -37.5 t22.5 -48t34 -73l469 -1040q27 -59 51.5 -84t50.5 -25q20 0 33.5 1t20.5 1h14t4 -6q0 -4 -1 -8t-17 -4q-14 0 -39 1t-53.5 2t-59.5 2t-55 1q-27 0 -57.5 -1t-60.5 -2t-54.5 -2t-36.5 -1q-35 0 -42 2t-7 10q0 6 14 6q10 0 21.5 -2t33.5 -2q74 0 74 60q0 16 -13.5 61 t-45.5 123l-105 256h-491q-20 -47 -49 -112.5t-54.5 -130t-44 -117t-18.5 -72.5q0 -45 34.5 -54.5t77.5 -9.5q25 0 34 -2t9 -6q0 -6 -7 -7t-29 -1q-10 0 -29 1t-39.5 1t-39.5 1t-32 1h-118q-23 0 -78.5 -2t-102.5 -2q-10 0 -12 2t-2 6zM528 582h428l-223 495z" />
<glyph unicode="B" horiz-adv-x="1087" d="M39 12q0 6 10 6l21 -2q10 -2 14 -2h18q29 0 49.5 5.5t34 28t19.5 67.5t6 125v899q0 94 -19.5 147t-93.5 53q-18 0 -22 3.5t-4 7.5t5 5t21 1q8 0 26.5 -1t42 -1t46.5 -1t39 -1q41 0 99.5 1t105.5 1q109 0 190.5 -30t137 -78t83 -110.5t27.5 -125.5q0 -109 -59.5 -179.5 t-219.5 -105.5q106 -12 183.5 -50t127.5 -91.5t73.5 -119t23.5 -132.5q0 -68 -25.5 -127.5t-81 -105.5t-143.5 -72.5t-213 -26.5h-487q-23 0 -29 3t-6 9zM362 213q0 -39 4.5 -67.5t23 -48t57 -30t110.5 -10.5q139 0 220 69t81 212q0 94 -36 165.5t-91 120t-121.5 73 t-128.5 24.5q-12 0 -34.5 -2t-36.5 -2t-15 10q0 6 3 8t16 2h57q39 0 86 6.5t87 31t66.5 74.5t26.5 138q0 78 -23.5 136.5t-63.5 96t-92 57t-107 19.5h-42t-47 -4v-1079z" />
<glyph unicode="C" horiz-adv-x="1386" d="M70 653q0 137 50 265.5t145 228.5t231.5 160.5t310.5 60.5q150 0 270.5 -27.5t216.5 -54.5q-2 -39 -3 -70.5t-1 -54.5q0 -12 1 -44t1 -67.5t1 -66.5t1 -43q0 -4 -2 -9t-6 -5q-8 0 -8 10q0 43 -4 86t-47 96q-61 78 -177 122t-251 44q-102 0 -202.5 -39t-180.5 -115.5 t-130 -190.5t-50 -263q0 -166 56 -283t138 -191.5t175 -109.5t167 -35q86 0 162 17.5t137.5 44t106.5 55.5t69 53q14 14 25.5 45t11.5 50l-2 20q0 8 8 8t8 -18q0 -6 -1 -19.5t-2 -29t-3 -29.5t-2 -23q-4 -33 -4 -58.5v-78.5q-72 -23 -136.5 -43t-128 -35.5t-129 -23.5 t-134.5 -8q-141 0 -266 49t-218.5 138t-148.5 212t-55 270z" />
<glyph unicode="D" horiz-adv-x="1409" d="M12 1354q0 2 9.5 4t21.5 3t24.5 1h16.5q10 0 36.5 -1t55.5 -3q29 -4 54.5 -5t35.5 -1q14 0 53 1t84 3t84 2h50q211 0 363.5 -57.5t251.5 -153.5t146.5 -222t47.5 -263q0 -164 -56.5 -289t-147.5 -208t-206 -125t-231 -42h-88.5t-125 1t-124 1h-82.5h-35t-66 -1t-73.5 -1 h-57.5q-23 0 -31 5t-8 9t5.5 6t9.5 2q8 0 31.5 -3t39.5 -3q66 0 86.5 36t20.5 126v1008q0 39 -3 68.5t-16.5 50t-39 32t-68.5 11.5q-10 0 -30.5 -2.5t-29.5 -2.5q-4 0 -6 4.5t-2 8.5zM358 303q0 -53 1 -87t4.5 -56.5t8.5 -35.5t13 -24q20 -29 83.5 -33t188.5 -4 q143 0 243.5 45.5t162 123t89.5 181t28 220.5q0 168 -52.5 294t-141.5 209t-210 123.5t-258 40.5q-35 0 -71.5 -2t-88.5 -6v-989z" />
<glyph unicode="E" d="M31 20q8 0 30.5 -2t30.5 -2q45 0 70.5 11.5t36 33t12.5 51t2 66.5v983q0 55 -3 91t-17.5 56.5t-43 27.5t-77.5 7q-6 0 -6 9q0 8 32 8q14 0 57.5 -1t94.5 -3q49 -2 95 -3t63 -1h475v-209q0 -29 -2 -38t-9 -9q-6 0 -6 14v55q0 18 -6 37t-21.5 34t-43 24.5t-72.5 9.5h-358 v-527h337q37 0 58.5 12.5t33 30t15.5 33t4 21.5v43q0 16 8 16q4 0 6 -3t2 -22q0 -41 -3 -71.5t-3 -71.5q0 -12 1 -38.5t3 -55.5t3 -54.5t1 -35.5q0 -6 -1 -17.5t-9 -11.5t-8 8q0 6 1 22.5t-3 41.5q-8 45 -38 62.5t-116 17.5h-292v-387q0 -55 2 -92t12 -59.5t34.5 -32 t67.5 -9.5h297q106 0 127 57q8 23 12.5 38.5t12.5 15.5t8 -8q0 -4 -8 -26t-17 -42q-10 -29 -18 -55.5t-18 -69.5h-818q-36 0 -36 9q0 11 8 11z" />
<glyph unicode="F" d="M20 4q0 8 11 8q4 0 28.5 -3t32.5 -3q45 0 69.5 11.5t36 35t13.5 56t2 75.5v981q0 35 -1 67t-9 56.5t-25.5 38.5t-48.5 14q-14 0 -28.5 -1t-22.5 -1q-10 0 -11 4.5t-1 8.5q0 6 15 6h46q18 0 49 -1t66 -1q33 -2 62.5 -3t45.5 -1h533v-222q0 -23 -1 -27.5t-8 -4.5q-4 0 -7 1 t-3 11q0 18 1 25.5t1 23.5q0 63 -36.5 87t-124.5 24h-340v-527h315q53 0 95 29t42 68q0 12 -1 23t-1 18q0 16 8 16q6 0 6 -6v-19q0 -6 -1 -23.5t-2 -36.5t-2 -36.5t-1 -25.5q0 -16 1 -44t2 -59t2 -57.5t1 -38.5q0 -20 -1 -26.5t-5 -6.5q-8 0 -8 10t1 24.5t1 27.5 q0 39 -30.5 64.5t-102.5 25.5h-319v-441q0 -70 2 -113.5t15 -68t41 -33t79 -8.5q4 0 18.5 2t18.5 2q8 0 8 -10q0 -6 -20.5 -7t-32.5 -1q-10 0 -39 1t-60 3t-58.5 3t-37.5 1q-12 0 -42 -1t-62 -3q-35 -2 -64 -3t-39 -1q-16 0 -44 2t-28 10z" />
<glyph unicode="G" horiz-adv-x="1429" d="M63 662q0 147 53.5 276t152 224t237.5 150.5t311 55.5q72 0 140.5 -9t128 -23.5t108.5 -29t84 -26.5q-4 -49 -6 -99.5t-2 -90t1 -65.5t1 -28v-11t-6 -7q-10 0 -11 10v51.5t-1 29.5t-5 21.5t-10 28.5q-4 8 -26.5 36t-74 57.5t-131 53t-196.5 23.5q-164 0 -273.5 -56 t-177 -142t-96 -187.5t-28.5 -191.5q0 -115 33.5 -231.5t102 -211t173 -154t248.5 -59.5q57 0 109 6.5t92 17.5t65.5 24.5t32.5 27.5q8 16 13 34.5t5 59.5v314q0 66 -20.5 96.5t-77.5 30.5q-4 0 -21.5 -1t-23.5 -1q-12 0 -13 8q0 8 10.5 9t12.5 1q12 0 38.5 -1t53.5 -2 t50.5 -2t29.5 -1q29 0 60.5 2t61 4t55.5 4t40 2q4 0 14.5 -1t10.5 -7q0 -10 -5.5 -12t-13.5 -2q-6 0 -19.5 1t-23.5 1q-20 0 -43.5 -18.5t-23.5 -71.5v-512q-129 -33 -252 -58.5t-240 -25.5q-154 0 -283 52t-223 143t-147.5 215t-53.5 268z" />
<glyph unicode="H" horiz-adv-x="1515" d="M16 0q0 6 3.5 9t23.5 3q12 0 27.5 -2t38.5 -2q37 0 57 11.5t30.5 33t12.5 51t2 66.5v1012q0 39 -2 68.5t-14.5 50t-38 31.5t-74.5 11q-8 0 -28.5 -2t-26.5 -2t-8.5 4.5t-2.5 6.5q0 4 10.5 6t22.5 3t23.5 1h15.5q10 0 37 -1t55 -3q29 -2 53.5 -3t32.5 -1q14 0 47 1t70 3 t69.5 3t43.5 1q63 0 63 -10q0 -12 -8 -13q-6 0 -26.5 3t-35.5 3q-43 0 -68.5 -9t-38.5 -25.5t-16.5 -42t-3.5 -56.5v-452h789v422q0 39 -1 68.5t-12.5 51t-37 32.5t-74.5 11q-10 0 -27.5 -2t-31.5 -2q-10 0 -11 7q0 6 9.5 10t52.5 4q12 0 42 -1t64 -3q35 -2 64 -3t39 -1 q4 0 30.5 1t61.5 3q33 2 63.5 3t42.5 1h49.5t14.5 -2t5 -2t1 -8t-8 -9q-10 0 -27.5 2t-27.5 2q-49 0 -76 -11t-38 -30.5t-13 -45t-2 -56.5v-1030q0 -41 2 -71.5t14 -51t36.5 -30t69.5 -9.5q6 0 32 2t32 2q4 0 6 -4t2 -6q0 -8 -16.5 -9t-34.5 -1q-16 0 -45 1t-60 3 q-33 2 -62.5 3t-49.5 1t-50 -1t-61 -3q-29 -2 -53.5 -3t-34.5 -1q-41 0 -57.5 1t-16.5 7q0 8 1 10t12 2q8 0 25.5 -2t33.5 -2q76 0 99.5 33t23.5 129v506h-789v-537q0 -47 10.5 -72.5t27 -39t37 -16.5t40.5 -3q18 0 38 2t38 2q6 0 6 -10t-29 -10q-31 0 -65.5 1t-67.5 3 t-61.5 3t-48.5 1q-10 0 -41 -1t-70 -3q-37 -2 -76 -3t-67 -1q-16 0 -17 8z" />
<glyph unicode="I" horiz-adv-x="575" d="M18 2q0 10 9 10q6 0 37.5 -2t48.5 -2q51 0 74.5 39t23.5 127v1000q0 92 -17.5 130.5t-78.5 38.5q-10 0 -39 -2t-43 -2q-10 0 -12.5 2t-2.5 13q0 2 7.5 4t17.5 2h20.5h16.5q16 0 47 -1t66 -3q33 -2 60.5 -3t33.5 -1q16 0 42.5 1t55.5 3t57.5 3t51.5 1q35 0 49 -1t14 -7 q0 -10 -3 -11.5t-13 -1.5q-20 0 -43 2t-58 2q-31 0 -46 -15t-22 -36.5t-8.5 -46t-1.5 -45.5v-1063q0 -59 26 -94t79 -35q18 0 37.5 2t36.5 2q10 0 13 -4t3 -8q0 -8 -49 -8q-16 0 -44 1t-58 3q-31 2 -62 3t-53 1q-23 0 -52.5 -1t-62.5 -3q-31 -2 -58.5 -3t-49.5 -1 q-14 0 -32 1t-18 9z" />
<glyph unicode="J" horiz-adv-x="661" d="M-266 -367q0 6 1 9.5t11 3.5t40 -13.5t83 -13.5q82 0 158.5 37t136 100.5t96.5 149.5t37 184v1098q0 80 -20.5 117.5t-90.5 37.5q-20 0 -39.5 -2t-33.5 -2q-12 0 -13 9q0 8 13.5 10t76.5 2q27 0 51.5 -1t47.5 -3t44 -3t40 -1q31 0 66.5 1t66.5 3t54.5 3t27.5 1 q35 0 46 -2t11 -8q0 -10 -12 -11q-10 0 -27.5 2t-34.5 2q-41 0 -65.5 -15t-36.5 -41.5t-16 -62.5t-4 -75v-531q0 -68 3 -201.5t3 -336.5q0 -119 -49.5 -208t-131 -149.5t-187 -90t-218.5 -29.5q-10 0 -32.5 2t-45 5t-40 9t-17.5 14z" />
<glyph unicode="K" horiz-adv-x="1343" d="M14 0q0 14 11 14q6 0 17 -1t22.5 -2t21.5 -2t12 -1q59 0 84 39t25 141v992q0 41 -2 72.5t-14.5 52t-38 31t-74.5 10.5q-23 0 -31 -2.5t-24 -2.5q-6 0 -7.5 4.5t-1.5 8.5q0 8 29 8h41t35 -2q10 0 33.5 -1t49 -3t48 -3t31.5 -1q12 0 40.5 1t59.5 5q33 2 59.5 3t36.5 1h12.5 h21.5t21.5 -1t12.5 -1q6 0 6 -10q0 -6 -10 -7q-18 0 -46 1.5t-42 1.5q-55 0 -75 -34t-20 -124v-1000q0 -43 3.5 -76.5t15.5 -57t36.5 -35t67.5 -11.5q16 0 33.5 3t28.5 3q8 0 8 -12q0 -10 -29 -10q-16 0 -44.5 1t-63.5 3t-70 3t-65 1q-35 0 -72 -1t-72 -3t-62.5 -3t-39.5 -1 q-18 0 -19 8zM362 678l539 536q29 29 51.5 53.5t22.5 47.5q0 16 -18.5 22t-41.5 6q-14 0 -29.5 -1t-23.5 -1q-10 0 -10 9q0 4 2 8t16 4q23 0 50.5 -1t56.5 -3q57 -6 102 -6q35 0 78 6q23 2 45.5 3t44.5 1q12 0 13 -6q0 -10 -27 -10q-29 0 -84 -23t-133 -100l-492 -494 l576 -586q74 -74 119 -103.5t61 -29.5h45q18 0 18 -6t-3 -8t-15 -2q-6 0 -24.5 1t-43.5 3q-23 0 -47 1t-43 1h-28.5h-25.5t-32.5 -1t-48.5 -3z" />
<glyph unicode="L" horiz-adv-x="1110" d="M14 10q0 4 3 7t16 3q6 0 23.5 -2t23.5 -2q49 0 75.5 20.5t39 52.5t14.5 72t2 77v936q0 31 -1 60.5t-10.5 54t-32 38.5t-65.5 14q-20 0 -40.5 -2t-36.5 -2q-8 0 -9 15q0 6 23.5 7t34.5 1q12 0 41.5 -1t64.5 -3t64.5 -3t42.5 -1q14 0 41.5 1t58.5 3t58.5 3t37.5 1 q49 0 61.5 -2t12.5 -12q0 -8 -16 -9q-10 0 -24.5 2t-41.5 2q-41 0 -63.5 -11t-33.5 -30.5t-13.5 -45t-2.5 -52.5v-1120h506q27 0 65 16.5t62 53.5q12 18 22.5 42.5t18.5 41.5q8 16 12.5 19t10.5 3q8 0 8 -14q0 -4 -8 -18.5t-19 -37.5l-96 -188h-878h-33t-19 10z" />
<glyph unicode="M" horiz-adv-x="1685" d="M14 1348q0 14 23 14q63 0 135 -5t119 -5h44t68 4q8 -27 13.5 -43.5t11.5 -29.5t13.5 -29.5t19.5 -45.5q4 -8 12 -27.5t17.5 -42t16.5 -42t11 -27.5q43 -106 71.5 -177t52.5 -126t45.5 -106.5t51.5 -118.5q39 -90 62.5 -141.5t44.5 -102.5q20 47 57 134t81 191.5t90 217 t87 212t70 173t39 102.5l8 31q29 -4 48.5 -5t29.5 -1q18 0 58 2t81 4t75 4t38 2q65 0 65 -12q0 -8 -10 -9q-18 0 -38.5 1.5t-41.5 1.5q-41 0 -67.5 -4.5t-47.5 -24.5q-37 -37 -43 -64.5t-6 -56.5q0 -98 5.5 -225t15.5 -307q6 -109 10 -186t8 -133t6 -96t4 -73 q2 -31 5.5 -59.5t12.5 -51t28.5 -37t52.5 -14.5q14 0 29.5 1t25.5 1t10 -14q0 -6 -10 -6h-29q-31 0 -86 2t-106 2q-8 0 -40 -1t-70 -2t-72.5 -2t-49.5 -1q-18 0 -18 14q0 10 10 10q4 0 16.5 -1t26 -1t25.5 -1t18 -1q63 0 76.5 21.5t13.5 68.5q0 8 -2 47t-4 96.5t-5 127 t-6 137.5t-6 127t-5 98q-6 111 -11.5 211.5t-9.5 200.5q-27 -63 -60.5 -143t-68.5 -163t-69.5 -163t-61.5 -143q-61 -143 -98 -230.5t-59.5 -145t-36 -99.5t-27.5 -97q-12 43 -20.5 67.5t-16.5 46t-17.5 44t-23.5 59.5l-42 101.5t-63.5 152.5t-62.5 150.5t-41 97.5 q-47 111 -74.5 177.5t-45 110.5t-29 75.5t-25.5 72.5q-4 -55 -11 -148t-14.5 -203t-14.5 -223.5t-13 -207.5t-9 -155.5t-3 -67.5q0 -100 88 -101q18 0 43.5 1t33.5 1q14 0 15 -12q0 -8 -12.5 -8h-26.5q-8 0 -34 1t-56.5 1t-60 1t-48.5 1q-27 0 -80 -2t-86 -2h-21t-5 10 t14 10q16 0 34.5 -1t29.5 -1q12 0 26.5 6.5t27.5 24.5t22.5 51t13.5 88q2 35 8 123t13 199.5t15.5 233.5t15.5 225.5t11 175t4 82.5q0 20 -15 50t-38 46q-16 12 -41 18t-66 6q-18 0 -38.5 -2t-34.5 -2q-18 0 -19 9z" />
<glyph unicode="N" horiz-adv-x="1556" d="M0 1341q0 6 1 10.5t11 4.5q6 0 22.5 -1t36 -1t38 -1t28.5 -1h75t91 2q18 -25 29.5 -40.5t23 -29.5t25.5 -30.5t39 -43.5q98 -111 215 -240.5t227.5 -251.5t204.5 -224.5t150 -159.5l51 -60v652q0 111 -1 172t-2 95t-3 49t-5 30q-8 51 -32.5 60t-87.5 9q-25 0 -25 5 q0 8 6 10t29 2q12 0 35.5 -1t50.5 -2t50.5 -2t33.5 -1q14 0 55 3t62 3h33t10 -8q0 -10 -39 -11q-39 0 -62 -32q-16 -23 -21 -96.5t-5 -237.5v-1028q-43 57 -71 95t-55.5 70.5t-62.5 70.5t-92 100q-57 59 -121.5 129.5t-124.5 136.5q-61 68 -107 118t-82 90t-67.5 72.5 t-64.5 69.5t-73 80t-91 100v-801v-46.5t1 -59.5t2 -56.5t5 -35.5q14 -49 57 -58.5t82 -9.5q14 0 32 2t32 2q10 0 10 -8q0 -10 -13.5 -11t-45.5 -1q-16 0 -45 1t-64 3q-33 0 -63.5 1t-48.5 1q-16 0 -46 -1t-61 -1q-31 -2 -55.5 -3t-30.5 -1q-4 0 -8 1t-4 5t2 8t6 4t19.5 -1 t21.5 -1q49 0 72.5 18.5t42.5 77.5q10 35 12 89.5t2 97.5v876l-111 121q-18 23 -44.5 36t-47.5 13q-10 0 -20.5 -1t-20.5 -1q-8 0 -8 4z" />
<glyph unicode="O" horiz-adv-x="1515" d="M57 662q0 143 53.5 271t147.5 225t222 153.5t278 56.5q145 0 273 -55.5t223.5 -150.5t149.5 -221t54 -269q0 -141 -53 -267t-148.5 -219.5t-226.5 -147.5t-285 -54q-145 0 -271 53t-218 145t-145.5 215.5t-53.5 264.5zM223 717q0 -174 48 -300t123 -207t169 -120t187 -39 q96 0 193 40t175 116t126 186.5t48 251.5q0 133 -37.5 251t-109.5 205t-173.5 138t-226.5 51q-100 0 -178 -29.5t-136 -78.5t-98 -110.5t-64.5 -125t-35 -124t-10.5 -105.5z" />
<glyph unicode="P" horiz-adv-x="1024" d="M29 6q0 6 8 6q12 0 35.5 -2t38.5 -2q18 0 35.5 2t33 20.5t24.5 58.5t9 118v905q0 74 -6 119t-18.5 70.5t-34 33.5t-52.5 8h-47q-10 0 -10 9q0 6 5 7t24 1q6 0 28.5 -1t49.5 -3t49 -3t32 -1q25 0 84 6q29 2 65 3t79 1q139 0 234.5 -37t153.5 -92t83.5 -117.5t25.5 -114.5 q0 -59 -26.5 -116.5t-77.5 -103.5t-126 -74.5t-171 -28.5q-18 0 -45 3t-50.5 7t-41 8t-17.5 9q0 8 11 8q4 0 31.5 -7.5t56.5 -7.5q47 0 97 17.5t91 52.5t67.5 88t26.5 127q0 88 -35.5 150.5t-89 103.5t-116 60.5t-115.5 19.5q-18 0 -32.5 -1t-28.5 -3v-1145q0 -51 9 -83 t25.5 -48.5t38 -22.5t45.5 -6q14 0 41 2t43 2q12 0 13 -6q0 -6 -4.5 -10t-26.5 -4q-27 0 -61.5 1t-69.5 3t-66.5 3t-54.5 1t-50.5 -1t-55.5 -3q-31 -2 -60 -3t-53 -1q-39 0 -45 2t-6 12z" />
<glyph unicode="Q" horiz-adv-x="1515" d="M57 657q0 139 53.5 267.5t146.5 226.5t221 156.5t280 58.5q143 0 271 -54.5t223.5 -148.5t150.5 -219t55 -266q0 -82 -23.5 -180.5t-82 -191.5t-156 -172t-242.5 -124q100 -90 194.5 -168t192 -136t199.5 -92t219 -34q57 0 96 4t67 12.5t48.5 19.5t38.5 26 q18 14 31.5 27.5t30.5 29.5q18 18 28 18t10 -10t-27.5 -37.5t-58.5 -50.5q-70 -53 -171 -92t-261 -39q-80 0 -143.5 14.5t-110.5 34t-80.5 41t-54.5 35.5q-53 33 -91 59.5t-84 63.5t-109.5 94t-163.5 152q-156 0 -284 55t-220 148.5t-142.5 216t-50.5 255.5zM223 715 q0 -174 48 -300t123 -207t169 -120t187 -39q82 0 177 35t177 107.5t135 185t53 266.5q0 133 -37.5 251t-109.5 205t-173.5 138t-226.5 51q-100 0 -178 -29.5t-136 -79t-98 -110.5t-64.5 -124.5t-35 -124t-10.5 -105.5z" />
<glyph unicode="R" horiz-adv-x="1259" d="M10 1352q0 4 14.5 5t32.5 1h355q154 0 251 -34t152 -85t75.5 -112.5t20.5 -114.5t-16 -110.5t-58 -108t-112 -89t-174 -53.5q20 -25 56 -67.5t79 -95t89 -108.5t89 -107.5t80 -93.5t60 -66q45 -47 87 -75t109 -28q6 0 23.5 2t23.5 2q10 0 10 -10q0 -8 -5 -9t-31 -1 q-10 0 -39 1t-62 3q-31 2 -56.5 2h-29.5h-11t-21.5 -1t-39 -3t-65.5 -4q-129 170 -260 337t-266 335h32q54 0 95 5q53 7 112 36q53 27 96.5 87t43.5 179q0 63 -20.5 122.5t-61.5 105.5t-100.5 73.5t-135.5 27.5q-20 0 -40.5 -1t-31.5 -3v-1075q0 -59 2.5 -99t14.5 -65.5 t38.5 -37t76.5 -11.5l55 4q10 0 10 -8t-13.5 -10t-47.5 -2q-16 0 -37 1t-47 3q-25 2 -52.5 3t-56.5 1q-35 0 -76 -1t-80 -3q-37 -2 -65.5 -3t-38.5 -1q-23 0 -25 4t-2 8q0 8 11 8q6 0 20 -2t29 -2q47 0 73.5 9.5t40 33t16.5 64.5t3 106v940q0 55 -3 91t-15.5 55.5t-36 26.5 t-62.5 7q-18 0 -38.5 -1t-30.5 -1q-12 0 -13 13z" />
<glyph unicode="S" horiz-adv-x="874" d="M84 80q2 23 3 43t1 39q0 14 -1 37.5t-1 47t-1 42t-1 24.5q0 23 10 23q4 0 8 -4t4 -23q0 -115 81 -183.5t229 -68.5q61 0 113.5 18.5t90 49.5t59 71t21.5 80q0 23 -6 50.5t-31.5 62.5t-80 81t-150.5 108q-84 53 -146.5 98t-104.5 93t-63.5 103.5t-21.5 128.5 q0 59 22.5 124t72 119t126 89t185.5 35q86 0 146.5 -18.5t119.5 -51.5q-2 -29 -2 -65.5t2 -71.5t3 -61.5t1 -36.5q0 -23 -1 -28t-5 -5q-8 0 -9 4t-1 31q0 43 -24.5 85t-63.5 73.5t-88.5 51t-96.5 19.5q-68 0 -119 -22.5t-86.5 -57t-53 -75.5t-17.5 -78q0 -43 19.5 -82 t63.5 -82t113.5 -92t169.5 -113q86 -55 134.5 -105t72 -95.5t28.5 -83t5 -68.5q0 -92 -37 -158.5t-96 -110.5t-134 -65.5t-151 -21.5q-57 0 -98 7t-75 20.5t-66.5 30.5t-71.5 38z" />
<glyph unicode="T" horiz-adv-x="1236" d="M72 1137v28v238q0 6 1 13t5 7t6 -5t2 -21q0 -27 16.5 -36t61.5 -9h917q41 0 62.5 6t21.5 33q0 29 6 28q8 0 9 -12v-231v-43q0 -12 -9 -13q-8 0 -8 13q0 10 1 23t1 24q0 12 -7 29.5t-25.5 31.5t-50 24.5t-81.5 10.5h-307v-1110q0 -49 2 -80t12.5 -47t32 -22.5t58.5 -6.5 q10 0 27.5 2t23.5 2q4 0 6 -5t2 -7q0 -10 -41 -10q-23 0 -45 1t-45 3t-45.5 3t-46.5 1q-29 0 -58.5 -1t-58.5 -1q-29 -2 -52.5 -3t-41.5 -1q-31 0 -36 4t-5 8q0 8 10 8q8 0 25.5 -2t21.5 -2q37 0 56.5 11.5t30 34t12.5 53t2 71.5v1096h-326q-63 0 -95 -28.5t-32 -69.5 q0 -10 1 -23.5t1 -24.5q0 -12 -8 -12q-10 0 -10 19z" />
<glyph unicode="U" horiz-adv-x="1556" d="M-6 1350q0 8 9 10t50 2q14 0 46 -2t68 -3t66.5 -3t42.5 -2t41 2t62 3t61.5 3t38.5 2q12 0 34 -1t22 -7q0 -8 -27 -8q-12 0 -29.5 1t-34.5 1q-53 0 -78.5 -48.5t-25.5 -113.5v-422q0 -346 105.5 -517t340.5 -171q86 0 157 23.5t121 59.5t80 75.5t36 70.5q8 41 13 94.5 t5 124.5v633v74t-11 61.5t-36 41t-74 14.5q-12 0 -30.5 -2.5t-34.5 -2.5q-4 0 -7.5 4.5t-3.5 6.5q0 6 7 6q4 2 19 2h24q12 0 44.5 -2t67.5 -3t66 -3t41 -2q14 0 49 2t73 3t70.5 3t44.5 2q6 0 19.5 -1t13.5 -5q0 -8 -4 -10.5t-20 -2.5t-44 1.5t-40 1.5q-37 0 -54.5 -17.5 t-23.5 -46.5t-4 -63.5t2 -69.5v-653q0 -23 -1 -60t-1 -78t-1 -78.5t-1 -60.5q0 -53 3 -93t16 -65.5t40 -38t72 -12.5h24q8 0 8 -10q0 -4 -21.5 -5t-43.5 -1q-18 0 -94 3t-168 3q4 47 6 112.5t4 137.5q-31 -59 -79 -108.5t-108.5 -84t-132 -54t-147.5 -19.5 q-262 0 -400.5 171t-138.5 502v557q0 68 -23.5 102t-109.5 34q-10 0 -25.5 -3.5t-27.5 -3.5q-8 0 -8 7z" />
<glyph unicode="V" horiz-adv-x="1386" d="M2 1348q0 4 7 7t14 3q12 0 32.5 -1t42.5 -1q23 -2 42.5 -3t27.5 -1q49 0 96 1t88 5q41 2 70 3t39 1q23 0 22 -6q0 -10 -10 -10h-47q-59 0 -75.5 -18.5t-16.5 -41.5q0 -10 10 -38.5t24.5 -62.5t29 -66t22.5 -50l260 -588q14 -35 30.5 -74.5t45.5 -115.5q47 117 95 234.5 t93 226t83 204t67 166.5q6 18 16 45t19.5 52.5t15.5 47t6 29.5q0 16 -13.5 31.5t-66.5 15.5h-41q-16 0 -16 9q0 6 4 7t26 1q12 0 36 -1t50 -3q27 -2 48.5 -3t29.5 -1q10 0 28.5 1t41.5 3t44 3t32 1h18t6 -6t-6 -8.5t-12 -2.5q-27 0 -46.5 -6t-39 -28.5t-42 -67.5t-54.5 -123 q-35 -86 -72 -174t-73 -174t-69.5 -167t-62.5 -150q-25 -59 -49.5 -126t-49 -132.5t-48 -129t-43.5 -114.5q-25 88 -55.5 176t-69.5 183.5t-84 201.5t-101 229q-23 51 -52.5 118t-57 129.5t-50 113.5t-34.5 76q-41 82 -67.5 113.5t-53.5 41.5q-10 4 -28.5 5t-32.5 1 q-8 0 -15.5 1t-7.5 8z" />
<glyph unicode="W" horiz-adv-x="1984" d="M37 1352q0 4 10 6t45 2q10 0 40 -1t56 -3q29 -2 50.5 -3t25.5 -1q12 0 37 1t51 3q29 0 53.5 1t34.5 1q23 0 23 -6t-5 -8.5t-22 -2.5q-18 0 -32.5 -11t-14.5 -36q0 -23 25.5 -95.5t65.5 -170.5t87 -210.5t91 -216t78 -185.5t48 -119q33 72 52.5 117t37 85t36 85t46.5 118 l-233 549q-12 29 -34.5 59.5t-57.5 30.5q-4 0 -17.5 -1t-25.5 -1t-13 9q2 10 17 10q16 0 40.5 -1t50.5 -2t46.5 -2t30.5 -1q12 0 38.5 1t56.5 1t56.5 1t36.5 1q25 0 25 -8q0 -10 -12 -11q-6 0 -17.5 1t-19.5 1q-23 0 -31 -14t-8 -37t13 -58.5t28 -70.5l108 -268l129 299 q23 51 28 72.5t5 44.5q0 10 -8 20t-25 10q-6 0 -18 -1t-19 -1q-6 0 -10 2t-4 13q0 4 12.5 5t30.5 1q12 0 30.5 -1t40 -1t42 -1t35.5 -1q35 0 58 2t44 2q25 0 25 -6q0 -10 -27 -11q-57 0 -72 -14q-14 -14 -34.5 -50t-53.5 -108l-164 -372q31 -76 56.5 -138.5t49 -122l47 -119 t52.5 -128.5l23 55l315 770q31 76 47.5 120t16.5 66q0 16 -12.5 30.5t-35.5 14.5q-4 0 -16 -1t-20 -1q-14 0 -15 9q0 6 5 8t26 2q8 0 33.5 -1t53.5 -3t51.5 -3t31.5 -1q59 0 97 4t52 4q35 0 49.5 -7t14.5 -12q0 -8 -6 -8t-17.5 4t-31.5 4q-31 0 -59.5 -7t-55.5 -27.5 t-52.5 -57.5t-49.5 -96l-334 -795q-20 -47 -32.5 -78.5t-27 -70.5t-36 -95.5t-58.5 -152.5q-53 162 -110.5 312.5t-129.5 326.5q-29 -63 -54 -119.5t-54 -126t-64.5 -163t-85.5 -230.5q-14 43 -32.5 99.5t-40 113.5t-42 111.5t-38.5 95.5l-281 661q-12 29 -28.5 68t-35 77 t-35.5 70.5t-32 51.5q-8 10 -23.5 22t-50.5 12q-6 0 -19 -1t-38 -1q-10 0 -10 11z" />
<glyph unicode="X" horiz-adv-x="1622" d="M-2 -4v9t10 5h82q43 0 109.5 39t128.5 119l401 530l-235 324q-2 4 -32 43t-70 88t-82 96t-68 66q-33 23 -57.5 25.5t-49.5 2.5q-10 0 -27.5 -2t-37.5 -2q-10 0 -11 11q0 8 16.5 9t39.5 1q10 0 40.5 -1t67.5 -3q35 -2 71 -3t54 -1q12 0 31.5 1t42.5 3t44 3t36 1 q8 0 22.5 -1t14.5 -7q0 -8 -13 -9q-20 0 -39.5 -2t-19.5 -22q0 -12 6 -24.5t20.5 -33t38 -50t58.5 -76.5l229 -316l293 387q18 25 29.5 40.5t17.5 24.5t7 15t1 12q0 45 -71 45q-6 0 -23.5 -2t-21.5 -2q-6 0 -8.5 4.5t-2.5 6.5q0 6 8.5 8t38.5 2q10 0 33 -1t49 -3 q29 -2 51.5 -3t30.5 -1q10 0 38 1t61 3q31 2 59.5 3t38.5 1q23 0 22 -8q0 -10 -16 -11q-53 0 -80.5 -4t-60.5 -26q-14 -10 -33.5 -30.5t-40 -45.5t-39 -48.5t-31.5 -39.5l-297 -402l375 -509q20 -29 54 -67t76 -73t88 -59.5t94 -24.5h38.5t20.5 -2q8 -8 8 -10q0 -8 -41 -8 q-20 0 -52 1t-67 3t-65.5 3t-46.5 1q-18 0 -48 -2t-64 -3t-66.5 -3t-55.5 -2h-39t-14 12q0 8 18 8q14 0 35 -1t47 -1q36 0 36 23q0 19 -25 55l-394 539l-327 -445q-12 -16 -26.5 -36.5t-28 -41t-22.5 -37t-9 -22.5q0 -35 63 -35q10 0 27.5 1t27.5 1q18 0 19 -6q0 -10 -7 -11 t-18 -1q-16 0 -46.5 1t-59.5 3t-52.5 3t-29.5 1q-16 0 -52 -1t-73 -3t-66.5 -4t-35.5 -2q-16 0 -43 -1h-6q-21 0 -21 7z" />
<glyph unicode="Y" horiz-adv-x="1429" d="M0 1348q0 10 16.5 10h32.5q12 0 45 -1t72 -1q39 -2 72.5 -3t50.5 -1q12 0 37.5 1t53.5 3t50.5 3t30.5 1q14 0 28.5 -1t14.5 -7q0 -10 -5 -11.5t-10 -1.5q-10 0 -22 2t-27 2q-23 0 -28.5 -9t-5.5 -21q0 -27 100 -158q16 -20 55 -69.5t82 -102.5t80 -101t51 -67l322 406 q10 12 24.5 36.5t14.5 42.5q0 16 -8.5 25.5t-18.5 13.5t-20.5 4h-16.5q-10 0 -20.5 -1t-16.5 -1t-6 9q0 6 19.5 8t29.5 2q16 0 32.5 -1t35.5 -3q18 -2 37.5 -3t38.5 -1q12 0 35.5 1t50.5 5q27 2 51 3t37 1q24 0 24 -9q0 -7 -10 -7h-14q-47 0 -78 -9.5t-66 -44.5 q-10 -10 -40.5 -47t-71.5 -89t-88 -111.5t-91.5 -113.5t-79 -99.5t-51.5 -65.5v-600q0 -55 9.5 -86t26 -46.5t36 -19.5t41.5 -4q16 0 35.5 3t32.5 3q10 0 10 -8q0 -14 -31 -14q-18 0 -49 1t-66 3q-35 0 -65.5 1t-52.5 1q-27 0 -60.5 -1t-68.5 -1q-35 -2 -62.5 -3t-44.5 -1 q-27 0 -26 14q0 8 10 8q8 0 23.5 -3t27.5 -3q45 0 70.5 8.5t38 33t15.5 70.5t3 120v473q-20 25 -55 68.5t-76 96t-85 107.5l-82 102.5t-65.5 82t-37.5 47.5q-33 41 -59.5 65.5t-50.5 36.5t-44.5 16t-42.5 4q-16 0 -36.5 -3t-37.5 -3q-8 0 -9 4t-1 9z" />
<glyph unicode="Z" horiz-adv-x="1259" d="M8 0q33 41 57.5 72.5t55.5 71.5t75 99.5t117 157.5l435 574q43 55 70.5 93t48 64.5t36 48t33.5 44.5q-33 -4 -72 -5t-76.5 -2t-70.5 -1h-51h-361q-55 0 -91 -2.5t-58.5 -9.5t-37 -19t-22.5 -33q-10 -18 -10 -40.5t-2 -35.5q-4 -16 -14 -16q-8 0 -9 14l5 17q4 16 9 40.5 t11 51t12 49.5q10 47 15.5 67.5t11.5 55.5q66 -4 104.5 -4h53.5h847q-33 -41 -55 -70t-51 -66.5t-71 -93t-109 -147.5q-25 -33 -74 -98.5t-110.5 -146.5t-129 -170t-128 -169t-107.5 -143t-70 -92h74t97 1t94.5 1h68.5h74.5t118 1t122 1h87.5q57 0 96 3t53 9q39 16 71.5 55 t47.5 103q4 10 5 16t9 6q6 0 6 -6q0 -16 -9 -41.5t-22.5 -52.5t-27.5 -52.5t-23 -41.5q-16 -33 -23 -46.5t-13.5 -24.5t-14.5 -29.5t-26 -57.5h-1082z" />
<glyph unicode="[" horiz-adv-x="425" d="M70 77.5v69.5v1125q0 25 1 39t4 24.5t10 18.5t21 18q29 -14 58 -17t31 -3q4 0 17 1t30 3q16 0 29.5 1t17.5 1q27 0 49 -8.5t22 -16.5q0 -6 -8 -6q-2 0 -17.5 9.5t-53.5 9.5q-35 0 -54.5 -12.5t-28 -33t-9.5 -45t-1 -51.5v-1083q0 -49 19.5 -79t64.5 -30q23 0 33 1t29 1 q18 0 18 -8q0 -6 -3 -8t-17 -2q-25 0 -62 2t-51 2q-16 0 -53 -3t-70 -13q-10 12 -15 23t-8 27.5t-3 43z" />
<glyph unicode="\" horiz-adv-x="1067" d="M49 1356q0 8 27 8q6 0 20.5 -1t30.5 -3q16 0 41 -4t31 -4q10 0 33.5 1t60.5 7q76 -170 154.5 -343t151.5 -337t138.5 -310.5t114.5 -258.5q8 -18 15 -38t18.5 -34t30 -23.5t49.5 -9.5q4 0 18 2t18 2q6 0 9.5 -1t3.5 -11q0 -8 -14.5 -8h-24.5q-18 0 -45 6q-14 2 -27.5 3 t-23.5 1q-29 0 -51.5 -5t-34.5 -9q-8 25 -22.5 64.5t-46.5 113.5t-85 192.5t-137 302.5q-10 23 -31.5 70t-48.5 105.5t-56.5 122t-56 121t-47 102.5t-31.5 65q-33 70 -68.5 86.5t-76.5 16.5q-37 0 -37 8z" />
<glyph unicode="]" horiz-adv-x="425" d="M66 1333q0 8 22.5 16.5t48.5 8.5q6 0 19.5 -1t27.5 -1q16 -2 29.5 -3t17.5 -1q2 0 31 3t57 17q14 -10 21.5 -18t10.5 -18.5t4 -25t1 -38.5v-1125v-69.5t-3 -43t-8 -27.5t-15 -23q-33 10 -70 13t-53 3q-14 0 -51 -2t-62 -2q-14 0 -17 2t-3 8q0 8 18 8t28.5 -1t33.5 -1 q45 0 64.5 30t19.5 79v1083q0 27 -1 51.5t-9.5 45t-28 33t-54.5 12.5q-39 0 -54 -9.5t-17 -9.5q-8 0 -8 6z" />
<glyph unicode="^" horiz-adv-x="724" d="M55 633l297 497h25l293 -497h-56l-249 420l-254 -420h-56z" />
<glyph unicode="_" horiz-adv-x="1024" d="M-12 -154h1048v-102h-1048v102z" />
<glyph unicode="`" horiz-adv-x="747" d="M268 1069l51 57l138 -147z" />
<glyph unicode="a" horiz-adv-x="811" d="M55 219q0 47 29 81t109 62q63 20 107 37t82 33.5t74 34.5t83 45v49q0 29 -7.5 61.5t-27 59.5t-53 44t-89.5 17q-70 0 -117.5 -15t-92.5 -50q-18 -16 -32 -32.5t-20 -27.5q-10 -25 -16 -24q-6 0 -6 6q0 23 26.5 66t70.5 86t102.5 75.5t121.5 32.5q115 0 189 -74.5 t74 -216.5v-444q0 -55 7 -82t62 -27q16 0 27.5 2t21.5 2h7.5t3.5 -10q0 -2 -16.5 -4t-36 -3t-38 -2t-24.5 -1h-137v104q-68 -47 -127.5 -83.5t-120.5 -36.5q-63 0 -107.5 24.5t-73 59t-42 75.5t-13.5 76zM186 248q0 -41 18.5 -77t47.5 -64.5t62.5 -45t64.5 -16.5 q41 0 79 26.5t81 55.5v365q-55 -35 -108.5 -60.5t-104.5 -46.5q-47 -18 -75 -34.5t-42 -32t-18.5 -33t-4.5 -37.5z" />
<glyph unicode="b" horiz-adv-x="966" d="M-2 1245q0 4 26.5 18.5t57.5 30.5q37 18 64.5 32.5t52 27t48 27t52.5 32.5q-4 -53 -6 -94t-3 -81t-2 -84t-3 -103q-2 -72 -4 -133.5t-2 -137.5q45 25 77.5 41.5t59 24.5t50 11t48.5 3q100 0 176 -36t127 -92t76 -125.5t25 -135.5q0 -94 -44.5 -182t-114 -155.5 t-155.5 -108.5t-172 -41q-90 0 -156.5 20.5t-113.5 38.5v1065q0 33 -2 60.5t-9.5 48t-21.5 33t-41 12.5t-39 -4.5t-29 -12.5q-10 -4 -11 -6t-5 -2q-6 0 -6 8zM279 176q0 -49 53 -70.5t170 -21.5q98 0 158.5 29.5t94 73.5t46 94.5t12.5 91.5q0 68 -24.5 137.5t-73.5 124.5 t-123 90t-170 35q-35 0 -64.5 -6t-78.5 -25v-553z" />
<glyph unicode="c" horiz-adv-x="817" d="M49 375q0 86 43 173t112.5 155.5t157 112.5t177.5 44q23 0 70 -6t100 -39q4 -23 1 -60.5t-3 -80.5q0 -12 1 -44t1 -50q0 -47 -13 -48q-8 0 -8 15q0 16 1 28.5t1 28.5q0 27 -14 54.5t-43 50t-76 37t-111 14.5q-84 0 -140 -29t-90 -72t-48 -95t-14 -99q0 -86 31.5 -155.5 t85 -120t121 -78t140.5 -27.5q121 0 181 49q33 27 44 56.5t21 29.5q6 0 6 -10q0 -14 -14 -40t-25 -38q-45 -59 -115.5 -103t-183.5 -44q-88 0 -160.5 33.5t-124.5 89t-82 126t-30 142.5z" />
<glyph unicode="d" d="M49 377q0 88 44 175t115 155.5t157 110.5t172 42q45 0 87 -11t74 -22v318q0 14 -1 34.5t-8 39t-20.5 31t-37.5 12.5q-25 0 -40.5 -4.5t-27.5 -10.5q-10 -4 -15 -7t-11 -3q-2 0 -2 6q0 4 11 11.5t25.5 15.5t28.5 15t21 11q37 18 62.5 30.5t48 25t44 27t49.5 34.5 q-4 -47 -6 -81t-3 -60.5t-1 -50v-50.5v-1044q0 -47 16.5 -79t63.5 -32q6 0 24.5 2t22.5 2q10 0 10 -6q0 -12 -37 -12q-16 0 -40.5 -1t-36.5 -1h-138v70q-39 -27 -98 -56.5t-156 -29.5q-84 0 -156.5 33.5t-125.5 89t-84 126t-31 144.5zM154 467q0 -86 31.5 -156.5t87 -122 t131 -79t163.5 -27.5q47 0 77 6t54 16v558q-66 66 -136 82t-120 16q-84 0 -139 -31t-89 -75t-47 -95t-13 -92z" />
<glyph unicode="e" horiz-adv-x="874" d="M51 424q0 96 38 177t99.5 138.5t136 89t148.5 31.5q10 0 54 -4t100.5 -31.5t113 -86t90.5 -167.5l-694 -127q12 -92 52 -157.5t96.5 -107.5t121 -62.5t125.5 -20.5q76 0 125.5 14.5t75.5 32.5q37 25 57.5 47.5t30.5 39t13.5 25.5t7.5 9t10 -1q4 -1 3 -4q0 -2 -1 -5 q-14 -35 -46 -82t-80 -89t-113.5 -70.5t-145.5 -28.5q-106 0 -184 39.5t-130.5 103t-78 141.5t-25.5 156zM133 481l539 99q-12 35 -35 68.5t-56.5 60t-77.5 43t-100 16.5q-66 0 -119 -23.5t-88.5 -63.5t-51.5 -91q-12 -37 -13 -79q0 -15 2 -30z" />
<glyph unicode="f" horiz-adv-x="575" d="M55 727l111 115v86q0 98 45 180t111.5 139.5t144.5 89t145 31.5q59 0 116.5 -14.5t111.5 -30.5q0 -23 -2 -62.5t-2 -58.5q0 -27 -1 -62.5t-1 -52.5q0 -20 -7 -20q-4 0 -6 5t-6 30q-6 41 -29.5 72.5t-59.5 53t-79 32t-86 10.5q-90 0 -145.5 -28t-85 -72t-39.5 -100 t-10 -114v-112h292l-102 -117h-186v-604q0 -70 17 -89.5t52 -19.5q4 0 24.5 1t27.5 1q14 0 14 -12q0 -6 -51 -6q-18 0 -59.5 1t-84.5 1q-41 0 -83 -1t-58 -1q-20 0 -21 8q0 10 9 10q4 0 19 -1t20 -1q31 0 43 21.5t12 97.5v594h-111z" />
<glyph unicode="g" horiz-adv-x="874" d="M31 -201q0 61 27.5 100.5t66.5 64t77 36.5t60 18q-86 20 -131 53t-45 56q0 14 12.5 25.5t51.5 50.5l59 59q-16 12 -37.5 30.5t-40 44t-31 61.5t-12.5 85q0 45 26.5 110.5t75 124t116 100.5t151.5 42q66 0 102.5 -20.5t52.5 -34.5l287 49q4 2 25.5 9t54.5 36 q-14 -27 -46 -76t-61 -94q-29 4 -46 4h-56h-37.5t-58.5 -2q8 -16 21.5 -47t13.5 -76q0 -78 -35 -147.5t-87 -121.5t-113.5 -83t-117.5 -31q-53 0 -88 9.5t-45 17.5q-16 -18 -22 -28.5t-6 -30.5q0 -6 1 -12.5t9 -11.5t25.5 -12t50.5 -18q20 -6 70 -17t106.5 -23.5 t105.5 -22.5t68 -15q117 -25 157.5 -53t40.5 -82q0 -47 -28.5 -112.5t-83.5 -126t-136 -103.5t-186 -43q-70 0 -135 21.5t-116.5 57.5t-82 83t-30.5 96zM109 -129q0 -35 25.5 -72t73.5 -68.5t118.5 -52t160.5 -20.5q72 0 120 18.5t78 45t42 52.5t12 42q0 45 -21.5 72.5 t-86.5 50.5q-29 10 -67 19t-78 16.5t-78.5 11.5t-69.5 4q-100 0 -164.5 -28t-64.5 -91zM178 561q0 -61 24.5 -107t61.5 -78t78 -48.5t76 -16.5q39 0 75.5 15.5t64.5 43t44 64.5t16 80q0 45 -18 88t-52 77t-80 53.5t-101 19.5q-86 0 -137.5 -58.5t-51.5 -132.5z" />
<glyph unicode="h" horiz-adv-x="960" d="M47 1294q0 4 21 13q14 6 46.5 21t69.5 31.5t70 32t45 21.5q-10 -66 -11 -123t-1 -131v-459q18 18 44.5 45t61.5 52.5t79 44t93 18.5q115 0 180.5 -79t65.5 -208v-469q0 -53 14.5 -72.5t28.5 -19.5q16 0 32.5 2t26.5 2q16 0 17 -8q0 -10 -6 -11t-27 -1q-8 0 -27.5 1t-42 1 t-43 1t-32.5 1q-14 0 -34 -1t-40.5 -1t-37.5 -1t-26 -1q-27 0 -26 10q0 10 12 10q10 0 22.5 -2t22.5 -2t28.5 16.5t18.5 69.5v430q0 100 -48 163t-167 63q-63 0 -106 -20.5t-84 -61.5v-537q0 -47 12 -84t55 -37q6 0 16.5 1t20.5 1t10 -10q0 -6 -8 -7t-31 -1h-27.5t-38 1 t-39.5 1h-34h-33.5t-45 -1t-43 -1h-25.5q-23 0 -23 6q0 12 6 12q10 0 21.5 -1t15.5 -1q41 0 55.5 33t14.5 92v1080q0 31 -9.5 57.5t-37.5 26.5q-23 0 -41 -9q-10 -4 -14.5 -7t-8.5 -3q-8 0 -8 10z" />
<glyph unicode="i" horiz-adv-x="491" d="M39 0q0 14 12 14q10 0 21.5 -1t17.5 -1q39 0 59.5 9.5t28.5 28t8 47v67.5v485q0 33 -5 54.5t-34 21.5q-10 0 -21 -6t-22 -10q-14 -8 -20 -9q-8 0 -4 15q2 4 18.5 12t22.5 12q100 57 192 129q-4 -33 -5 -54t-2 -37.5t-1 -33v-38.5v-553q0 -25 2 -50.5t10.5 -45t24.5 -32 t45 -12.5q16 0 30.5 2t26.5 2q10 0 11 -12q0 -6 -9.5 -8t-39.5 -2q-10 0 -35 1t-49 3q-25 0 -45.5 1t-24.5 1q-10 0 -33.5 -1t-50.5 -1q-27 -2 -49.5 -3t-32.5 -1q-29 0 -38 1t-9 5zM164 1106q4 6 17.5 19.5t26.5 28.5t26.5 27.5t17.5 18.5q16 -14 32.5 -28.5t63.5 -59.5 q-12 -14 -45 -38.5t-49 -53.5q-18 16 -44 41.5t-46 44.5z" />
<glyph unicode="j" horiz-adv-x="491" d="M-150 -651q0 12 21 12q10 0 31.5 -3t36.5 -3q23 0 64.5 21.5t82.5 64.5t70.5 106.5t29.5 147.5v940v33.5t-3 31t-11 21.5t-25 8q-10 0 -21 -6t-22 -10q-14 -8 -20 -8q-8 0 -4 14q2 4 18.5 12t22.5 12q100 57 192 129q-4 -33 -5 -54t-2 -37.5t-1 -33v-38.5v-637v-383 q0 -98 -46 -166t-109.5 -109t-131 -59.5t-110.5 -18.5q-18 0 -38 1t-20 12zM133 1174q4 6 21.5 22t36 33.5t36 33t21.5 21.5q16 -14 39.5 -37.5t70.5 -68.5q-6 -6 -21 -19.5t-32.5 -30t-33 -34t-23.5 -31.5q-10 8 -24.5 23.5t-32 32t-33 30.5t-25.5 25z" />
<glyph unicode="k" horiz-adv-x="960" d="M45 1292q0 8 21 15q14 4 46.5 19t68.5 32.5t69 33t45 21.5q-4 -39 -7 -69.5t-5 -58.5t-2 -54.5v-56.5v-719l346 288q35 29 46 42.5t11 25.5q0 10 -7 14t-18 4q-8 0 -21 -1t-20 -1q-14 0 -14 9q0 10 21 10h61q16 -2 32.5 -2h26.5q35 0 75 3t50 3q23 0 28 -1t5 -5 q0 -6 -5 -8t-28 -2q-35 0 -66.5 -15.5t-80.5 -56.5l-317 -268l423 -424q23 -23 41.5 -35t33 -16.5t22.5 -4.5h12q23 0 23 -8q0 -10 -33 -8t-68 2h-131l-448 453v-326q0 -74 19 -94.5t42 -20.5q4 0 17.5 1t21.5 1q12 0 12 -8q0 -10 -20 -10q-10 0 -28.5 1t-41 1t-45 1 t-39.5 1q-33 0 -78 -2t-65 -2t-21 10q0 8 8 8q6 0 21.5 -1t26.5 -1q23 0 38 18.5t15 65.5v1096q0 57 -6 86t-41 29q-20 0 -39 -9q-2 -2 -13.5 -6t-13.5 -4q-6 0 -6 4z" />
<glyph unicode="l" horiz-adv-x="491" d="M39 2q0 10 6 10t27.5 -2t25.5 -2q31 0 48.5 7.5t26.5 25.5t11 48t2 75v985q0 86 -14 118.5t-37 32.5q-8 0 -18.5 -2t-20.5 -6q-4 -2 -7 -5t-13 -3q-8 0 -8 8q0 6 18 13q14 6 27.5 11t36 16t61.5 29.5t106 51.5q-4 -33 -6 -58.5t-4 -52t-2 -57.5v-74v-999q0 -55 5 -87 t14.5 -48.5t21.5 -21.5t29 -5q16 0 31.5 2t29.5 2q16 0 17 -8q0 -10 -10.5 -11t-28.5 -1q-10 0 -29.5 1t-44.5 3q-25 0 -49.5 1t-40.5 1t-46 -1t-59 -3q-14 -2 -26.5 -2h-22.5t-20 -2q-25 0 -31 2t-6 8z" />
<glyph unicode="m" horiz-adv-x="1409" d="M18 727q0 2 10.5 8t26 12.5t30.5 13.5t28 11q53 23 102 46.5t80 51.5q-2 -27 -3 -43t-2 -28.5t-1 -23.5v-27q37 29 64.5 50t52 34.5t49 20.5t55.5 7q76 0 135.5 -47t97.5 -115q72 72 130.5 117t138.5 45q49 0 94 -17.5t81 -52t56.5 -87t20.5 -123.5v-443q0 -66 10 -94.5 t61 -28.5q8 0 14.5 1t16.5 1t10 -12q0 -6 -35 -6q-16 0 -60 1t-85 1q-35 0 -70.5 -1t-64.5 -1t-29 4v10t6 6q8 0 24.5 -2t22.5 -2q59 0 60 129v387q0 35 -9.5 72t-31 67.5t-60 51t-96.5 20.5q-10 0 -32.5 -2t-51 -8t-59.5 -18.5t-53 -34.5q18 -31 18 -137v-375v-49.5t5 -50 t18.5 -40t42.5 -16.5q4 0 17 2t24 2q6 0 6 -6q0 -14 -23 -14q-10 0 -27.5 1t-37.5 3q-20 0 -43 1t-45 1q-18 0 -40 -1t-44 -1q-20 -2 -37 -3t-27 -1q-20 0 -20 4q0 16 10 16t20.5 -2t14.5 -2q25 0 39 10.5t20 23.5t7 28.5t1 27.5v400q0 145 -59.5 201.5t-159.5 56.5 q-51 0 -83 -11.5t-60 -23.5v-565q0 -68 5 -106t52 -38q8 0 21.5 1t19.5 1q10 0 10 -12q0 -6 -22 -6h-24.5t-41 1t-44 1h-36.5h-28.5t-44 -1t-47 -1h-37.5q-16 0 -17 6q0 12 15 12q10 0 22 -1t21 -1q29 0 41 31t12 84v528q0 90 -45 91q-10 0 -29.5 -6.5t-36.5 -14.5 q-18 -10 -21 -11t-7 -1q-8 0 -9 12z" />
<glyph unicode="n" horiz-adv-x="960" d="M20 723q0 4 18.5 13t35.5 18q31 14 69.5 29.5t55.5 25.5q49 27 64.5 37t29.5 24q-2 -18 -3 -45.5t-2 -52t-2 -43t-1 -20.5q25 25 54.5 52t63 48.5t73.5 36t89 14.5q41 0 85 -14.5t80 -52t59.5 -102t23.5 -165.5v-395q0 -59 15.5 -88t39.5 -29q4 0 20.5 1t31.5 1 q8 0 8 -12q0 -8 -27 -8q-8 0 -27.5 1t-41 1t-40 1t-26.5 1q-10 0 -32.5 -1t-47 -1t-47.5 -1t-31 -1q-10 0 -16 1t-6 11q0 8 12 8q14 0 21.5 -1t11.5 -1q35 0 49 30t14 120v346q0 43 -8 87t-32.5 80t-67.5 57.5t-111 21.5q-70 0 -115 -21.5t-75 -54.5v-537q0 -47 18.5 -89 t58.5 -42l29 4q6 0 6 -6q0 -10 -7 -12t-17 -2q-8 0 -29.5 1t-44.5 1t-43 1t-29 1q-8 0 -29.5 -1t-46 -1t-45 -1t-28.5 -1q-6 0 -14.5 3t-6.5 13q0 4 6 4q2 0 11.5 -2t13.5 -2q47 0 62.5 36t15.5 79v524q0 53 -13.5 75t-35.5 22q-16 0 -26.5 -4.5t-27.5 -12.5q-14 -6 -21 -10 t-17 -4q-4 0 -5 6z" />
<glyph unicode="o" d="M47 377q0 86 43 173t112.5 155.5t156.5 111.5t178 43q80 0 150.5 -30.5t124.5 -83t86 -123t32 -152.5t-40 -169t-107.5 -157.5t-156.5 -115.5t-186 -45q-84 0 -155.5 33.5t-123.5 89t-83 126t-31 144.5zM152 471q0 -88 32.5 -159.5t87 -122t124 -78t145.5 -27.5 q53 0 104 18.5t91 54.5t64.5 90t24.5 126q0 84 -30.5 154.5t-83 122.5t-123 81t-150.5 29q-94 0 -150.5 -34t-87 -80t-39.5 -95t-9 -80z" />
<glyph unicode="p" horiz-adv-x="966" d="M27 750q0 6 24 16l228 102l-3 -77q35 23 88.5 46t143.5 23q96 0 173 -32.5t129 -87t80 -124t28 -145.5q0 -88 -33 -175t-90.5 -156.5t-138.5 -112.5t-175 -43q-4 0 -23.5 1t-49 6t-63.5 16t-66 34v-412q0 -41 16 -55t35 -14q35 0 65 14q10 4 21.5 10t15.5 6q12 0 12 -12 t-43 -30.5t-90 -43.5q-41 -23 -87 -47t-74 -47q2 41 4 73t3 59.5t1 54v59.5v1042q0 68 -37 68q-10 0 -23.5 -2t-23.5 -6q-12 -4 -21.5 -10.5t-15.5 -6.5q-10 0 -10 9zM279 188q66 -47 136 -79.5t152 -32.5q35 0 81 14t88 46t71 83t29 125q0 82 -37 163t-95.5 144.5 t-132 102.5t-149.5 39q-55 0 -90 -13.5t-53 -25.5v-566z" />
<glyph unicode="q" horiz-adv-x="946" d="M49 406q0 27 8.5 69.5t28.5 91.5t56 99.5t91.5 91.5t133 66.5t182.5 25.5q18 0 50 -1t66.5 -3t66.5 -3t48 -1q23 0 39.5 2t48.5 2q23 0 39.5 -1t34.5 -1q23 0 28 -3t5 -14q0 -12 -27 -12q-8 0 -29.5 4t-44.5 4q-51 0 -66 -41t-15 -100v-995q0 -53 6 -87t28 -34 q35 0 68 33q45 45 59 45q10 0 11 -15q0 -6 -16.5 -22.5t-41.5 -36.5q-51 -41 -113.5 -76t-127.5 -84q4 78 5 121t1 82v524q-14 -23 -35 -49.5t-49.5 -49t-69.5 -38.5t-96 -16q-70 0 -136.5 31.5t-118.5 88t-85 134t-33 168.5zM125 500q0 -68 24.5 -140.5t69.5 -133 t110.5 -99.5t145.5 -39q25 0 53.5 5t56 15.5t50 26t37.5 35.5v541q-53 16 -116.5 20t-123.5 4q-90 0 -148.5 -20.5t-94 -54t-50 -75.5t-14.5 -85z" />
<glyph unicode="r" horiz-adv-x="811" d="M10 6q0 6 2 10t17 4q18 0 33.5 -1t29.5 -1q20 0 33.5 5.5t22 20.5t11.5 45t3 79v453q0 53 -6 80.5t-35 27.5q-18 0 -39 -14q-14 -8 -21 -8q-8 0 -8 8q0 6 17.5 14t29.5 16q57 35 104.5 65t88.5 62q-2 -16 -3 -30.5t-2 -37t-2 -58t-3 -97.5q10 12 19 21.5t23.5 23t37 36 l61.5 61.5q10 10 24.5 25t36.5 44l33 -33q18 -18 34.5 -35.5t43.5 -43.5q41 -41 63.5 -48.5t40.5 -7.5q29 0 45.5 13.5t30.5 25.5q12 12 17.5 19.5t9.5 7.5q10 0 10 -10q0 -6 -15.5 -21.5t-31.5 -32.5l-145 -151q-31 31 -52.5 52t-37 36.5t-27.5 28t-27 24.5 q-16 16 -30.5 28.5t-36.5 12.5q-12 0 -39 -18.5t-88 -90.5v-421q0 -57 6 -93t19.5 -55.5t32.5 -26t46 -6.5q18 0 45 4.5t47 1.5q4 0 7 -5t3 -7q0 -10 -13 -11t-36 -1q-12 0 -39.5 1t-59.5 1t-63.5 1t-52.5 1h-37.5t-53.5 -1t-54.5 -1h-40.5q-29 0 -29 8z" />
<glyph unicode="s" horiz-adv-x="747" d="M71 152q1 26 1 56t1 55.5t1 35.5q0 29 8 29q10 0 10 -29q0 -57 10.5 -83t24.5 -40q31 -31 110.5 -56.5t182.5 -25.5q86 0 143.5 34t57.5 81q0 20 -11.5 39.5t-40 40t-76 41t-118.5 43.5q-74 25 -129.5 45t-94 44.5t-58 58.5t-19.5 83q0 45 22.5 91t62.5 83t97 59.5 t129 22.5q53 0 104.5 -13t90 -31.5t62.5 -37t24 -26.5q0 -47 3 -114t3 -122v-8q0 -18 -10 -19q-4 0 -6.5 6.5t-2.5 10.5l2 47q-2 61 -22.5 90t-44.5 45q-43 29 -119 46.5t-154 17.5q-92 0 -142 -34t-50 -81q0 -23 14.5 -40t48 -32.5t90 -34t140.5 -45.5q78 -25 131 -47 t86 -47.5t47 -58.5t14 -76q0 -45 -18.5 -93t-60.5 -88t-108.5 -65.5t-164.5 -25.5q-51 0 -116.5 10t-119.5 47q-36 28 -36 74q0 11 1 37z" />
<glyph unicode="t" horiz-adv-x="681" d="M10 735l269 260v-151h282q41 0 74 8t45 20q25 23 33 23q6 0 6 -8q0 -4 -13.5 -14.5t-25.5 -20.5l-129 -115h-272v-407q0 -55 3 -100.5t19 -78t51 -51t97 -18.5q80 0 120.5 26.5t53.5 47.5q8 14 18 27.5t16 13.5q8 0 9 -13q0 -8 -21.5 -40.5t-60.5 -67.5t-91.5 -63.5 t-113.5 -28.5q-43 0 -83 13t-70.5 45t-49 86t-18.5 138v469h-148z" />
<glyph unicode="u" d="M10 719q0 6 26.5 18.5t55.5 28.5q33 16 71 38.5t109 63.5q-4 -55 -4 -92v-76v-419q0 -96 53.5 -143.5t127.5 -47.5q55 0 95 11.5t68.5 30t48 41t33.5 42.5v432q0 53 -12 77t-43 24q-8 0 -24.5 -4.5t-32.5 -14.5t-25 -10q-8 0 -8 8q0 4 10 8t37 21q45 27 103.5 55.5 t117.5 56.5q-2 -68 -3 -98.5t-1 -49v-38.5v-68v-421q0 -53 4 -88t15.5 -55.5t28 -29t40.5 -8.5q12 0 22.5 1t26.5 1q10 0 11 -8q0 -10 -56 -10q-6 0 -21.5 1t-32.5 1t-32.5 1t-23.5 1h-35t-72 -4q2 35 3 57.5t2 41t1 40v51.5q-31 -41 -59.5 -76.5t-62 -64.5t-74.5 -45 t-95 -16q-37 0 -80.5 12t-81.5 43t-64.5 84t-26.5 135v371q0 57 -11.5 81.5t-52.5 24.5q-12 0 -23.5 -4t-23.5 -10q-16 -8 -21 -8q-8 0 -8 6z" />
<glyph unicode="v" horiz-adv-x="1003" d="M10 842q0 4 5 6t26 2q10 0 32.5 -1t48 -2t47 -2t32.5 -1q10 0 35.5 1t54.5 1q29 2 54.5 2h33.5q43 0 52 -2t9 -12q0 -4 -6 -5q-12 0 -34.5 1t-26.5 1q-29 0 -45.5 -6t-25.5 -14t-11 -16.5t-2 -12.5q0 -14 20 -61l213 -510l219 485q18 41 23.5 57.5t5.5 28.5q0 16 -7 34 t-50 18q-4 0 -16.5 -1.5t-26.5 -1.5q-10 0 -11 11q0 8 35 8q29 0 70 -3t63 -3q23 0 60 3t63 3q33 0 43.5 -2t10.5 -8q0 -10 -19 -11q-10 0 -21.5 2.5t-27.5 2.5q-23 0 -36 -4.5t-21.5 -13.5t-14.5 -23.5t-14 -32.5l-283 -613q-8 -16 -14 -31.5t-14.5 -36t-20.5 -50 t-31 -74.5q-20 55 -33.5 88t-23.5 57.5t-20.5 49t-24.5 61.5l-217 520q-27 63 -52.5 83t-52.5 20q-6 0 -18 -1.5t-25 -1.5q-10 0 -10 11z" />
<glyph unicode="w" horiz-adv-x="1386" d="M14 842q0 6 39 6q16 0 55 -2t80 -2q14 0 36 1t41.5 1t33.5 1t18 1q20 0 24.5 -3t4.5 -7t-2 -6.5t-14 -2.5q-4 0 -17.5 1t-23.5 1t-23.5 -6t-13.5 -34q0 -20 12 -52l191 -516l186 502q-4 14 -12 32.5t-21.5 35t-31 27.5t-39.5 11q-14 0 -25.5 -1t-22.5 -1q-8 0 -8 11 q0 4 3 6t22 2q14 0 35.5 -1t44 -1t44 -1t34.5 -1q14 0 37.5 1t48 1t46 1t31.5 1q29 0 38 -3t9 -9q0 -8 -18 -9q-10 0 -22.5 2t-24.5 2q-18 0 -33.5 -20t-21.5 -37l213 -551l172 459q16 47 25.5 70.5t9.5 44.5q0 27 -15.5 30.5t-23.5 3.5q-12 0 -21.5 -1t-17.5 -1 q-12 0 -15.5 2.5t-3.5 8.5t14.5 7t22.5 1t27.5 -1t39 -1t36 -1t22.5 -1t21.5 1t33 1t32.5 1t22 1q12 0 25 -2t13 -6q0 -10 -3 -11.5t-19 -1.5q-4 0 -17.5 1t-23.5 1t-19.5 -3t-19.5 -15t-22.5 -36.5t-28.5 -65.5l-227 -574q-18 -43 -26.5 -66.5t-15 -39t-11.5 -30.5t-13 -44 q-10 33 -16 50.5t-10.5 31.5t-11.5 32.5t-21 53.5l-199 504l-178 -457q-6 -14 -16.5 -41t-20.5 -57.5t-20.5 -61t-16.5 -55.5q-4 16 -13 45t-21.5 63.5t-25 70.5t-24.5 65l-213 526q-23 53 -39 79.5t-45 26.5q-10 0 -16 -1t-10 -1q-8 0 -9 13z" />
<glyph unicode="x" horiz-adv-x="1044" d="M6 836q0 10 20.5 12t30.5 2t25.5 -1t38.5 -1q23 -2 48.5 -3t53.5 -1q8 0 33 1t50.5 2t48 2t28.5 1q10 0 21.5 -1t11.5 -7q0 -10 -19 -11h-37.5t-23.5 -28q0 -14 16.5 -39t30.5 -47q33 -53 54.5 -85t36.5 -52.5t26.5 -36t27.5 -33.5l119 174q8 14 21.5 32.5t23.5 36 t18.5 33t8.5 23.5q0 16 -13.5 20.5t-43.5 4.5q-18 0 -21.5 2t-3.5 8t25 6q6 0 23 -1t40 -1q20 -2 38.5 -3t22.5 -1q10 0 31 1t43 3q23 0 44.5 1t35.5 1h15.5t7.5 -6t-3.5 -8t-17.5 -2q-41 0 -73.5 -7.5t-65.5 -35.5q-18 -16 -51 -60.5t-70 -95.5t-69.5 -98.5t-51.5 -69.5 l242 -338q8 -12 27.5 -31.5t48 -38t63.5 -33t72 -14.5q24 0 24 -7q0 -5 -9 -7t-19 -2q-18 0 -44 1t-50.5 1t-45 1t-28.5 1q-16 0 -50 -1t-70 -1t-67.5 -1t-44.5 -1h-38t-11 6q0 14 8 14q16 0 26.5 -2t18.5 -2q25 0 53.5 8.5t28.5 36.5q0 10 -16 40t-53 81l-135 187 q-16 -23 -41 -59t-50.5 -73.5t-47 -71.5t-31.5 -55q-12 -25 -13 -47q0 -47 51 -47h29q14 0 14 -10q0 -4 -7 -5t-15 -1q-45 0 -91 2t-87 2q-12 0 -36 -1t-49.5 -1t-49 -1t-37.5 -1q-16 0 -18.5 4t-2.5 10t7.5 6h17.5q57 0 92 7.5t60.5 23.5t46 43t47.5 66q16 25 40.5 58.5 t50 68t49 68.5t40.5 59q-55 78 -105 143q-41 55 -79.5 107.5t-55.5 72.5q-8 8 -22.5 25.5t-35 34t-47 29t-59.5 12.5q-10 0 -25.5 -2.5t-17.5 -2.5q-8 0 -8 7z" />
<glyph unicode="y" horiz-adv-x="1044" d="M2 838q0 4 11.5 6t27.5 2q29 0 53.5 -1t55.5 -1q14 0 41.5 1t56 1t52.5 1t34 1q35 0 45 -5t10 -12q0 -6 -12 -6q-6 0 -19.5 2t-25.5 2q-41 0 -45 -31q-1 -5 -1 -11q0 -29 19 -72l244 -520l260 548q11 23 11 42q0 12 -5 21q-12 25 -63 25q-4 0 -16.5 -3t-22.5 -3 q-8 0 -8 11q0 14 38 14q8 0 25.5 -1t36 -2t34 -2t19.5 -1q16 0 41 1t49.5 1t45 1t26.5 1q33 0 33 -10t-15 -11q-6 0 -21.5 2t-27.5 2q-18 0 -56 -24.5t-65 -81.5l-450 -965q-18 -37 -45 -78.5t-64 -75.5t-83 -56.5t-103 -22.5q-37 0 -65.5 8t-49.5 16q8 29 14.5 56.5 t10.5 70.5q25 -16 44 -23t58 -7t72 8t64.5 32.5t62.5 68.5t65 116l93 197l-310 635q-27 53 -63.5 87.5t-71.5 34.5q-8 0 -18.5 -1t-16.5 -1q-10 0 -10 13z" />
<glyph unicode="z" horiz-adv-x="874" d="M12 -6l633 735h-426q-88 0 -108 -63q-16 -57 -25 -58q-14 0 -14 17q0 4 11 33.5t17 48.5q12 37 20.5 69.5t16.5 67.5h688l-637 -733h390q86 0 140 16t91 59q23 27 28 46.5t15 19.5t10 -16q0 -6 -13 -28t-32.5 -54.5t-44 -73.5t-45.5 -84q-31 2 -51.5 3t-34.5 1h-28.5 h-32.5h-467h-18.5t-14.5 -1t-23.5 -2t-44.5 -3z" />
<glyph unicode="{" horiz-adv-x="512" d="M43 680q0 10 12 10q4 0 14.5 -2t14.5 -2q41 0 55.5 39t22.5 123l33 381q2 14 3 18t7 27q20 8 53 24.5t64.5 32t56 26.5t29.5 11q6 0 6 -8q0 -6 -13.5 -13.5t-40.5 -21.5q-20 -10 -31.5 -22.5t-20.5 -48t-16 -106.5t-18 -196q-8 -90 -14 -142t-15 -80t-25.5 -38t-43.5 -14 q27 -4 41 -16.5t22.5 -31t11.5 -42t7 -51.5q2 -25 8 -79.5t11.5 -113.5t9.5 -111.5t6 -72.5q4 -61 24.5 -94t67.5 -54q12 -6 18.5 -9t6.5 -13q0 -6 -9 -6q-4 0 -32.5 13t-63.5 30.5t-66.5 34t-39.5 20.5q-4 12 -6.5 25.5t-5.5 42t-7 79t-10 133.5q-6 82 -10 132.5t-8.5 79 t-9.5 44t-13 27.5q-18 25 -47 25q-4 0 -15.5 -2t-15.5 -2q-4 2 -6 6t-2 8z" />
<glyph unicode="|" horiz-adv-x="598" d="M262 -289v1702h74v-1702h-74z" />
<glyph unicode="}" horiz-adv-x="512" d="M98 -8q0 6 13.5 13t40.5 22q20 10 31.5 22t20.5 48t16 105.5t18 196.5q8 88 14 141.5t15 81t24.5 38t44.5 14.5q-27 4 -41 15t-22.5 29.5t-11.5 43t-7 53.5q-4 25 -9 79t-10.5 113.5t-9.5 111.5t-6 73q-4 57 -21.5 92t-70.5 55q-25 12 -25 19q0 10 9 10q6 0 35.5 -13.5 t63.5 -30.5t64.5 -33.5t38.5 -20.5q4 -12 6.5 -25.5t5.5 -42t7 -79t10 -134.5t10 -133t8.5 -77.5t9.5 -44t13 -27.5q18 -25 47 -25q4 0 15.5 2t15.5 2q4 -2 6 -6t2 -8q0 -10 -12 -10q-4 0 -14.5 2t-14.5 2q-41 0 -55.5 -39t-22.5 -123l-33 -381q-2 -14 -3 -18.5t-7 -26.5 q-23 -10 -54.5 -25.5l-63 -31t-56 -26.5t-29.5 -11q-6 0 -6 8z" />
<glyph unicode="~" horiz-adv-x="1003" d="M127 530q0 59 17.5 98.5t43.5 61.5q27 23 56.5 32t52.5 9q16 0 32.5 -2t41 -9t58.5 -19.5t83 -32.5q53 -23 86 -35t53.5 -18.5t32.5 -8.5t29 -2q16 0 36.5 4t39 18.5t34 39t19.5 65.5h32q0 -61 -20 -100t-48 -61.5t-57.5 -31t-50.5 -8.5q-16 0 -29.5 2.5t-34 8.5t-48 16 t-70.5 27q-59 23 -96 38t-60.5 23t-39 11t-29.5 3q-63 0 -95 -42t-36 -87h-33z" />
<glyph unicode="&#xa1;" horiz-adv-x="405" d="M78 557q29 27 50.5 46.5t45.5 45.5l90 -86l-37.5 -37.5t-52.5 -56.5q-12 10 -28.5 25.5t-67.5 62.5zM111 -469q4 27 6 55.5t2 85.5v480q8 41 23.5 76.5t33.5 90.5t29.5 88t21.5 33q6 0 6 -6q0 -16 -4 -60t-4 -81v-569q0 -29 5.5 -45.5t27.5 -16.5q6 0 16.5 2t18.5 6 q14 8 18 8q6 0 6 -10q0 -4 -22.5 -18.5t-56.5 -36.5q-25 -14 -40.5 -24.5t-28.5 -18.5t-26.5 -17.5t-31.5 -21.5z" />
<glyph unicode="&#xa2;" horiz-adv-x="811" d="M43 375q0 80 38 163t101.5 151.5t145.5 115.5t168 55l45 156h67l-45 -154q57 -6 87 -19.5t50 -25.5l2 -205q0 -23 -1 -49t-9 -26q-16 0 -16 8q0 6 2 22.5t2 20.5q0 63 -27.5 101t-122.5 63l-182 -621q23 -12 71 -31.5t124 -19.5q51 0 89 13t63.5 31.5t39 36t17.5 27.5 q10 23 13 28t7 5q10 0 6 -16q-4 -12 -23.5 -49t-59.5 -75t-102.5 -67.5t-152.5 -29.5q-47 0 -77.5 6t-53.5 14l-53 -178h-68l62 207q-104 61 -155.5 153.5t-51.5 188.5zM147 471q0 -88 38 -167t106 -136l174 594q-104 6 -166.5 -25.5t-96.5 -80t-44.5 -100.5t-10.5 -85z" />
<glyph unicode="&#xa3;" horiz-adv-x="854" d="M37 0q35 12 53.5 31.5t32.5 42.5q6 10 18.5 41.5t27.5 73.5t32.5 91.5t33 93.5t28.5 77.5t20 48.5q-98 -2 -137.5 -8.5t-49.5 -40.5q-4 -4 -6 -5q-4 0 -4 7q0 2 7 21.5t13 33.5q6 16 12.5 35.5t10.5 36.5q20 0 46 1t51.5 2t48 1h38.5q35 102 59.5 167.5t49 108.5t56.5 74 t83 61q59 37 104.5 50.5t88.5 23.5q25 6 39 11t23 12.5t17.5 18.5t18.5 30q-2 -12 -7 -37t-10.5 -49.5t-10.5 -45t-5 -24.5q-4 -16 -13 -18t-50 -2h-74t-42 -1t-21.5 -2t-14.5 -4q-20 -6 -33.5 -16t-26 -32.5t-28.5 -64.5t-41 -112l-53 -145h60.5h45t43 1t54.5 1l-29 -82 q-12 0 -42 -1t-62.5 -1t-61.5 -1t-39 -1q-29 -66 -50.5 -129.5t-51.5 -151.5q-16 -49 -49 -95t-78 -77q20 -2 68.5 -15t101.5 -29.5t100 -30t66 -13.5q39 0 59.5 6t40.5 31q10 10 17.5 21.5t17.5 29.5q18 0 18 -6q0 -4 -16.5 -29.5t-32.5 -46.5q-41 -47 -75.5 -65.5 t-80.5 -18.5q-16 0 -36.5 4.5t-54 13.5t-84 25.5t-124.5 40.5q-53 18 -70.5 22.5t-39.5 8.5z" />
<glyph unicode="&#xa4;" horiz-adv-x="894" d="M2 379q0 2 7 21.5t14 33.5q6 16 12 35.5t10 36.5h102v41v33.5t3 33.5q-70 -2 -99 -11t-39 -38q-4 -4 -6 -4q-4 0 -4 6q0 2 7 21.5t14 34.5q6 16 12 35.5t10 35.5h113q14 92 46 174t84 144.5t124.5 98.5t167.5 36q47 0 84.5 -7t69.5 -17.5t60.5 -23t59.5 -22.5 q-2 -33 -3 -59.5t-1 -44.5q0 -10 1 -30.5t1 -43t1 -42t1 -30.5q0 -4 -3 -8t-7 -4q-8 0 -8 8q0 111 -73 181.5t-188 70.5t-195.5 -95t-103.5 -286h572l-29 -78h-549v-51v-59h531l-29 -78h-493q12 -102 42.5 -174t69.5 -119t83 -68.5t85 -21.5q55 0 96 14.5t72 36t52.5 46 t35.5 46.5q4 6 15.5 34t9.5 44l-2 19q0 6 8 6q10 0 10 -15q0 -6 -1 -17t-2 -24.5t-2 -25.5t-1 -19q-2 -29 -2 -49v-65q-47 -18 -82 -35.5t-68.5 -30t-68.5 -19.5t-80 -7q-80 0 -146.5 31.5t-118 90t-85 140.5t-45.5 182q-72 -2 -101.5 -12t-40.5 -39q-4 -4 -6 -4q-4 0 -4 6z " />
<glyph unicode="&#xa5;" horiz-adv-x="1193" d="M6 1186q0 10 17 10h63q8 0 30.5 -1t47 -2t45 -2t29.5 -1q8 0 27.5 1t41 2t41 2t25.5 1q55 0 55 -10q0 -8 -10 -8q-8 0 -17.5 1t-21.5 1q-10 0 -22.5 -5.5t-12.5 -21.5q0 -10 9 -28.5t22.5 -39t28 -40t24.5 -33.5q35 -49 96.5 -130t124.5 -161q27 31 61.5 76t69.5 90 t66 86t47 63q39 53 48 69.5t9 33.5q0 23 -19.5 31t-29.5 8q-6 0 -14 -1t-13 -1q-12 0 -15 4t-3 10q0 4 7 5t11 1q8 0 31 -1t47.5 -2t45 -2t28.5 -1t29.5 1t45 3t45 3t30.5 1q2 0 7 -1t5 -5v-8t-10 -4h-50q-16 0 -31.5 -8.5t-36 -28t-48 -54t-66.5 -85.5q-14 -18 -50 -66.5 t-75 -101t-72.5 -99.5t-46.5 -65v-29h279l-31 -76h-248v-92h263l-35 -76h-228v-270q0 -66 20.5 -92.5t92.5 -26.5q4 0 16.5 2t16.5 2q12 0 12 -6q0 -14 -24 -14q-16 0 -43 1t-56 3q-29 0 -56.5 1t-47.5 1q-10 0 -34 -1t-50 -1q-29 -2 -53.5 -3t-40.5 -1q-25 0 -34 2t-9 10 q0 6 4 7t6 1q4 0 17.5 -2t17.5 -2q45 0 68.5 9.5t32.5 25.5t9 36.5v43.5v274h-205q-55 0 -90 -39q6 31 10.5 50.5t22.5 64.5h262v90h-186q-41 0 -59.5 -9t-38.5 -32q10 41 17 62.5t22 56.5h233v4q-12 18 -45 62.5t-70 92.5t-69.5 91t-44.5 59q-57 76 -93 121t-64 67.5 t-52.5 30t-59.5 7.5q-4 0 -21.5 -2t-23.5 -2q-4 0 -5 5t-1 7z" />
<glyph unicode="&#xa6;" horiz-adv-x="598" d="M262 -289v721h74v-721h-74zM262 692v721h74v-721h-74z" />
<glyph unicode="&#xa7;" horiz-adv-x="811" d="M96 571q0 72 38 127.5t85 96.5q-49 29 -77.5 74.5t-28.5 101.5q0 47 19.5 95t58 88t98 65.5t137.5 25.5q61 0 111.5 -14t87.5 -32.5t57 -36t20 -23.5v-85t1.5 -56.5t2.5 -37t1 -26.5l2 -33q0 -4 -3.5 -11t-11.5 -7t-8 14l2 64q-8 47 -47 80.5t-93 55t-113.5 32 t-106.5 10.5q-72 0 -122 -32t-50 -81q0 -31 16 -53.5t50 -41t85 -34.5t121 -37q100 -31 160.5 -54.5t92.5 -48t41 -54t9 -70.5q0 -55 -17.5 -96t-40 -69t-45 -44t-34.5 -23q14 -6 34.5 -15t40 -26.5t33 -45t13.5 -66.5q0 -53 -21.5 -101.5t-64.5 -84t-107.5 -57 t-152.5 -21.5q-49 0 -114 10t-118 47q-23 16 -30 31.5t-7 42.5q0 10 1 34.5t1 50t1 49t1 34.5q0 16 1 26t12 10q8 0 8 -30q0 -59 8 -83t25 -38q12 -10 38.5 -23.5t64.5 -26t84 -20.5t95 -8q90 0 143.5 22.5t53.5 75.5q0 25 -25.5 46.5t-63.5 39t-84 31.5t-87 25 q-82 20 -136.5 45.5t-86 56.5t-45 64.5t-13.5 74.5zM139 625q0 -27 14.5 -49.5t58.5 -46t126 -48t219 -55.5q14 6 32.5 15.5t36 22.5t29 30.5t11.5 40.5q0 61 -106.5 126.5t-299.5 110.5q-39 -27 -80 -62.5t-41 -84.5z" />
<glyph unicode="&#xa8;" horiz-adv-x="747" d="M180 1053l74 75l76 -75l-76 -74zM418 1049l74 75l75 -75l-75 -74z" />
<glyph unicode="&#xa9;" horiz-adv-x="1642" d="M57 651q0 160 60.5 300.5t165 242.5t242.5 161.5t296 59.5q156 0 295 -59.5t243.5 -162.5t165 -242.5t60.5 -299.5q0 -158 -60.5 -297t-164 -242.5t-242.5 -164t-297 -60.5t-297 60.5t-242.5 164t-164 243t-60.5 296.5zM152 651q0 -139 52 -261t143 -212t213 -143 t261 -53t261 53t213 143t143.5 212t52.5 261q0 141 -53.5 263t-144.5 212.5t-213 142.5t-259 52t-259 -52t-213 -142.5t-144 -212t-53 -263.5zM434 647q0 100 38 177t97.5 128.5t131 78t141.5 26.5q78 0 154.5 -12.5t154.5 -34.5q-2 -29 -2 -67v-99v-25.5t-6 -9.5t-8 4 t-2 21q0 72 -75 126t-210 54q-72 0 -128 -26.5t-96 -76t-61.5 -117t-21.5 -147.5q0 -76 28.5 -140.5t74.5 -110.5t103.5 -71.5t112.5 -25.5q123 0 193.5 36t79.5 77q4 16 4 30.5t10 14.5q12 0 11 -14.5t-5 -47.5q-4 -29 -5 -44t-3 -38q-84 -29 -155.5 -47t-149.5 -18 q-80 0 -154 29.5t-129 83t-89 127t-34 159.5z" />
<glyph unicode="&#xaa;" horiz-adv-x="598" d="M51 897q0 39 13.5 67.5t74.5 55.5q43 18 71 29.5t52.5 22.5t52 22.5t70.5 29.5v35q0 63 -44 97t-101 34q-37 0 -80 -19.5t-68 -58.5q-8 -12 -14 -22t-15 -10q-4 0 -6 10t19 39q41 59 97 99t136 40q96 0 139.5 -63.5t43.5 -151.5v-317q0 -31 7 -41.5t17 -10.5t27.5 2 t31.5 2q16 0 17 -14q0 -4 -7 -7t-34 -3h-30.5h-45t-48.5 -1t-42 -1v78q-43 -27 -68.5 -42.5t-43 -23.5t-32 -10t-34.5 -2q-23 0 -50.5 6t-51 21.5t-39 42t-15.5 65.5zM145 944q0 -18 10.5 -41.5t29 -44t41 -35t46.5 -14.5q23 0 47.5 14.5t65.5 40.5v236 q-61 -27 -106.5 -44.5t-75 -33.5t-44 -34.5t-14.5 -43.5z" />
<glyph unicode="&#xab;" horiz-adv-x="532" d="M20 395q39 41 56.5 60.5t40.5 44.5q31 35 57.5 64.5t69.5 78.5q-31 -78 -56.5 -142.5t-44.5 -117.5q14 -31 32 -67.5t33 -72.5t28.5 -66t19.5 -48q-29 37 -60.5 75t-60.5 72q-6 6 -22.5 23.5t-35 36t-35 36t-22.5 23.5zM256 399l56.5 56.5t37.5 40.5q14 18 27.5 33.5 t28 32t30 34.5t33.5 45q-16 -57 -42 -128t-42 -118q14 -39 25.5 -66.5t22.5 -55t23.5 -59.5t30.5 -75q-6 6 -17 20.5t-25.5 33t-30 38t-27.5 33.5q-20 23 -33.5 38t-27 28.5l-28.5 28.5t-42 40z" />
<glyph unicode="&#xac;" horiz-adv-x="1003" d="M127 692v74h747v-397h-73v323h-674z" />
<glyph unicode="&#xad;" horiz-adv-x="724" d="M45 313q0 2 9 15.5t20.5 30t21.5 30.5t15 19q23 35 36.5 50t42.5 15q23 0 76 -2t112.5 -3t112 -3t72.5 -2q41 0 70 13t31 42q2 16 3 19.5t7 3.5t6 -6v-5q0 -12 -8 -43.5t-15 -48.5q-12 -31 -31.5 -50t-60.5 -19q-23 0 -77 1t-113.5 2t-112.5 2t-74 1q-41 0 -60 -6.5 t-32 -16.5q-6 -4 -21.5 -24.5t-23.5 -20.5q-6 0 -6 6z" />
<glyph unicode="&#xae;" horiz-adv-x="1642" d="M57 649q0 160 60.5 300.5t165 242.5t242.5 161.5t296 59.5q156 0 295 -59.5t243.5 -163t165 -242.5t60.5 -299q0 -158 -60.5 -297t-164 -242.5t-242.5 -164t-297 -60.5t-297 60.5t-242.5 164t-164 243t-60.5 296.5zM152 649q0 -139 52 -261t143 -212t213 -143t261 -53 t261 53t213 143t143.5 212t52.5 261q0 141 -53.5 263t-144.5 212t-213 142.5t-259 52.5t-259 -52.5t-213 -142.5t-144 -211.5t-53 -263.5zM522 1040q0 14 21 15q6 0 33.5 -1t63.5 -1t70.5 -1t55.5 -1q147 0 219 -54.5t72 -148.5q0 -53 -19.5 -91t-50.5 -63.5t-69.5 -39 t-75.5 -17.5q20 -25 58 -70t79 -93t78 -91t57 -64q16 -16 39 -34.5t64 -18.5q10 0 21 1t15 1q12 0 13 -10q0 -8 -23 -8q-16 0 -51 1t-57 1q-20 0 -40 -1t-44 -3q-27 33 -52.5 65.5t-59.5 75.5t-81 102.5t-117 149.5q33 0 71 5t72 22.5t56.5 54.5t22.5 102q0 41 -14.5 79 t-44.5 65.5t-73 41t-100 7.5v-651q0 -35 6 -55.5t16.5 -31t22.5 -13.5t27 -3q10 0 20.5 2t18.5 2t8 -10q0 -8 -12.5 -9t-28.5 -1q-14 0 -55 2t-64 2q-12 0 -32.5 -1t-42 -1t-40 -1t-24.5 -1q-20 0 -21 16q0 4 15 4q6 0 16 -1t19 -1q37 0 50 17.5t13 78.5v517q0 49 -1 79.5 t-9 48t-23.5 24.5t-46.5 7q-16 0 -28.5 -2t-12.5 4z" />
<glyph unicode="&#xaf;" horiz-adv-x="747" d="M203 1026v45h342v-45h-342z" />
<glyph unicode="&#xb0;" horiz-adv-x="681" d="M141 1196q0 35 15.5 69.5t42 61.5t63.5 43t80 16q39 0 75 -14t63.5 -40.5t45 -61.5t17.5 -78q0 -78 -53.5 -135.5t-149.5 -57.5q-37 0 -73 12.5t-63.5 37t-45 61.5t-17.5 86zM201 1194q0 -25 8 -52.5t25.5 -52t44 -41t61.5 -16.5q53 0 98 42t45 114q0 63 -36.5 114.5 t-110.5 51.5q-49 0 -92 -40t-43 -120z" />
<glyph unicode="&#xb1;" horiz-adv-x="1003" d="M129 84v74h745v-74h-745zM129 645v74h336v336h74v-336h335v-74h-335v-336h-74v336h-336z" />
<glyph unicode="&#xb2;" horiz-adv-x="468" d="M33 702q29 18 76 59.5t91 94.5t76.5 112.5t32.5 114.5q0 16 -5 41t-18.5 47.5t-38 39t-61.5 16.5q-18 0 -37.5 -5t-36 -16.5t-26.5 -30t-10 -45.5q0 -10 4 -22q4 -14 -6 -14q-14 0 -15 34q0 31 11.5 60t33 52.5t53 37.5t70.5 14q6 0 31 -3t53.5 -17.5t51 -45t22.5 -85.5 q0 -76 -56.5 -170t-178.5 -191h174q43 0 63.5 9.5t30.5 25.5q14 27 18 27q8 0 8 -4t-10 -25.5t-20 -46.5q-10 -23 -14.5 -33t-12.5 -31h-354z" />
<glyph unicode="&#xb3;" horiz-adv-x="468" d="M55 797q0 8 8 8q4 0 16.5 -17.5t16.5 -23.5q10 -8 40 -31.5t77 -23.5q59 0 99 34.5t40 96.5q0 66 -38 99.5t-85 33.5q-14 0 -25 -2t-30 -8l121 237h-148q-25 0 -42 -6t-27 -33q-4 -8 -5 -17t-7 -9q-10 0 -3 22q4 10 8.5 24.5t12.5 35.5q8 23 9 31.5t9 29.5h269l-121 -246 q88 10 134 -35t46 -116q0 -76 -49 -134.5t-135 -58.5q-49 0 -85 15.5t-59.5 36t-35 37t-11.5 20.5z" />
<glyph unicode="&#xb4;" horiz-adv-x="747" d="M268 979l138 147l51 -57z" />
<glyph unicode="&#xb5;" horiz-adv-x="1044" d="M57 -334q0 12 1 21.5t4.5 25t10.5 40t17 65.5q10 35 16.5 99.5t8.5 129.5q0 31 1 76t2 92t2 91t1 69v469h135v-529q0 -47 6 -88t24.5 -70.5t51.5 -47t84 -17.5q66 0 126 38t126 108v606h133v-549q0 -72 5 -114t15.5 -64.5t25.5 -29.5t38 -7q47 0 64.5 41t29.5 94h45 q-4 -47 -15 -89t-32.5 -74t-57.5 -50t-89 -18t-84 22.5t-47.5 53t-22.5 63.5t-8 55q-82 -90 -160 -142t-162 -52q-47 0 -78.5 13t-52 32.5t-33 40t-18.5 34.5q0 -104 2 -167.5t12 -108.5q10 -57 22.5 -95t12.5 -65q0 -45 -23.5 -70.5t-56.5 -25.5q-29 0 -55.5 24.5 t-26.5 69.5z" />
<glyph unicode="&#xb6;" horiz-adv-x="894" d="M-6 977q0 76 25.5 143.5t79 118.5t138.5 82t201 31h461v-35q-43 0 -69.5 -7t-41 -25.5t-19.5 -53.5t-5 -90v-1583h-62v1736h-182v-1736h-61v1069q-51 0 -130 7t-154 41t-128 104.5t-53 197.5z" />
<glyph unicode="&#xb7;" horiz-adv-x="362" d="M88 559l38 38t52 56q12 -10 28.5 -25.5t67.5 -62.5q-29 -27 -50 -46t-46 -46z" />
<glyph unicode="&#xb8;" horiz-adv-x="747" d="M250 -205q0 6 6 6q8 0 28.5 -9t49.5 -9q55 0 71.5 16.5t16.5 36.5q0 33 -26.5 54.5t-94.5 3.5q18 37 26.5 56t22.5 50h23q-10 -29 -14.5 -40t-10.5 -28q76 12 113 -20.5t37 -79.5q0 -39 -29 -64.5t-68 -25.5q-41 0 -69.5 10t-40.5 17q-12 6 -26.5 14t-14.5 12z" />
<glyph unicode="&#xb9;" horiz-adv-x="468" d="M104 1182q0 10 33 26l154 80v-512q0 -41 17.5 -50t33.5 -9q8 0 17.5 1t17.5 1q14 0 14 -10q0 -8 -22 -9q-23 0 -54.5 1t-66.5 1q-29 0 -60.5 -1t-48.5 -1q-25 0 -24 11q0 6 12 6h35q25 0 39 17.5t14 64.5v334q0 27 -5 49t-28 22q-8 0 -19 -5t-22 -11q-25 -12 -32 -12 q-4 0 -5 6z" />
<glyph unicode="&#xba;" horiz-adv-x="704" d="M45 1030q0 51 27.5 109.5t74 109.5t108.5 85t134 34q55 0 104.5 -20.5t85 -56.5t57 -85t21.5 -104q0 -59 -29.5 -119.5t-76.5 -110t-109.5 -80t-126.5 -30.5q-59 0 -108 22.5t-85 60.5t-56.5 86t-20.5 99zM119 1100q0 -55 22.5 -103.5t59.5 -84t87 -56t105 -20.5 q37 0 71 12t60.5 36.5t43 59.5t16.5 80q0 53 -21.5 102.5t-58.5 86t-86 59t-107 22.5q-47 0 -82.5 -16t-60.5 -43t-37 -62.5t-12 -72.5z" />
<glyph unicode="&#xbb;" horiz-adv-x="532" d="M45 139q18 43 30.5 75t24 59.5t22.5 55t25 66.5q-16 47 -41.5 118t-42.5 128q18 -27 34 -45t30 -34.5t26.5 -32t28.5 -33.5t37.5 -40t56.5 -57q-27 -25 -42 -40t-28 -28.5t-26.5 -28.5t-34.5 -38q-12 -14 -27.5 -33.5t-29.5 -38t-25.5 -33t-17.5 -20.5zM276 129 q6 18 19.5 48t29 66t33 72.5t31.5 67.5q-18 53 -44 117.5t-56 142.5q43 -49 69.5 -78.5t57.5 -64.5q23 -25 40 -44.5t56 -60.5q-6 -6 -22.5 -23.5t-35 -36t-35 -35.5t-22.5 -24q-29 -35 -60.5 -72.5t-60.5 -74.5z" />
<glyph unicode="&#xbc;" horiz-adv-x="1110" d="M100 1182q0 10 33 26l154 80v-512q0 -41 17.5 -50t33.5 -9q8 0 17.5 1t17.5 1q14 0 14 -10q0 -8 -22 -9q-23 0 -54.5 1t-66.5 1q-29 0 -60.5 -1t-48.5 -1q-25 0 -24 11q0 6 12 6h35q25 0 39 17.5t14 64.5v334q0 27 -5 49t-28 22q-8 0 -19.5 -5t-21.5 -11q-25 -12 -33 -12 q-4 0 -4 6zM147 4q0 4 2.5 6t12.5 2t23.5 -1t27.5 -1q37 0 60.5 42t58.5 118q37 82 70.5 159t61.5 141.5t49.5 113.5t33.5 78q35 80 81 173t88 182t75.5 162.5t44.5 112.5q29 -4 39 -6t20 -2q16 0 58 5t77 5q10 0 21.5 -3t11.5 -9q0 -8 -10 -8t-21.5 2t-15.5 2 q-63 0 -97 -34t-53 -70q-55 -111 -122.5 -255.5t-139.5 -304t-141.5 -322.5t-126.5 -308q-35 16 -70 16q-6 0 -20.5 -1t-30.5 -2t-30.5 -2t-20.5 -1q-16 0 -17 10zM641 186l27 35q31 35 59.5 66.5t62 72.5t76.5 96.5t105 135.5v-336h61q16 0 32.5 4t35.5 29q2 4 8 15t16 9 q6 0 6 -4t-4 -12t-10 -17.5t-11 -18.5t-7 -13l-31 -64h-96v-90l2 -31q0 -29 14 -40t41 -11h19q18 0 18 -2q0 -14 -29 -14q-23 0 -43 2t-53 2q-16 0 -45 -2t-43 -2q-25 0 -28 4t-3 10q0 2 8 2h27q25 0 32 21.5t7 36.5v116h-254zM741 258h154v191z" />
<glyph unicode="&#xbd;" horiz-adv-x="1110" d="M100 1182q0 10 33 26l154 80v-512q0 -41 17.5 -50t33.5 -9q8 0 17.5 1t17.5 1q14 0 14 -10q0 -8 -22 -9q-23 0 -54.5 1t-66.5 1q-29 0 -60.5 -1t-48.5 -1q-25 0 -24 11q0 6 12 6h35q25 0 39 17.5t14 64.5v334q0 27 -5 49t-28 22q-8 0 -19.5 -5t-21.5 -11q-25 -12 -33 -12 q-4 0 -4 6zM147 4q0 4 2.5 6t12.5 2t23.5 -1t27.5 -1q37 0 60.5 42t58.5 118q37 82 70.5 159t61.5 141.5t49.5 113.5t33.5 78q35 80 81 173t88 182t75.5 162.5t44.5 112.5q29 -4 39 -6t20 -2q16 0 58 5t77 5q10 0 21.5 -3t11.5 -9q0 -8 -10 -8t-21.5 2t-15.5 2 q-63 0 -97 -34t-53 -70q-55 -111 -122.5 -255.5t-139.5 -304t-141.5 -322.5t-126.5 -308q-18 8 -37 12q-10 4 -17.5 4h-15.5q-6 0 -20.5 -1t-30.5 -1q-16 -2 -30.5 -3t-20.5 -1q-16 0 -17 10zM676 0q29 18 76 59t91 94.5t76.5 113t32.5 114.5q0 16 -5 40.5t-18.5 47.5 t-38 39t-61.5 16q-18 0 -37.5 -5t-36 -16t-26.5 -29.5t-10 -45.5q0 -10 4 -22q4 -14 -6 -15q-14 0 -15 35q0 31 11.5 59.5t33 52t53 38t70.5 14.5q6 0 31 -3t53.5 -17.5t51 -45t22.5 -86.5q0 -76 -56.5 -170t-178.5 -190h174q43 0 63.5 9t30.5 26q14 27 18 26q8 0 8 -4 t-10 -25.5t-20 -46.5q-10 -23 -14.5 -33t-12.5 -30h-354z" />
<glyph unicode="&#xbe;" horiz-adv-x="1110" d="M55 797q0 8 8 8q4 0 16.5 -17.5t16.5 -23.5q10 -8 40 -31.5t77 -23.5q59 0 99 34.5t40 96.5q0 66 -38 99.5t-85 33.5q-14 0 -25 -2t-30 -8l121 237h-148q-25 0 -42 -6t-27 -33q-4 -8 -5 -17t-7 -9q-10 0 -3 22q4 10 8.5 24.5t12.5 35.5q8 23 9 31.5t9 29.5h269l-121 -246 q88 10 134 -35t46 -116q0 -76 -49 -134.5t-135 -58.5q-49 0 -85 15.5t-59.5 36t-35 37t-11.5 20.5zM147 4q0 4 2.5 6t12.5 2t23.5 -1t27.5 -1q37 0 60.5 42t58.5 118q37 82 70.5 159t61.5 141.5t49.5 113.5t33.5 78q35 80 81 173t88 182t75.5 162.5t44.5 112.5q29 -4 39 -6 t20 -2q16 0 58 5t77 5q10 0 21.5 -3t11.5 -9q0 -8 -10 -8t-21.5 2t-15.5 2q-63 0 -97 -34t-53 -70q-55 -111 -122.5 -255.5t-139.5 -304t-141.5 -322.5t-126.5 -308q-35 16 -70 16q-6 0 -20.5 -1t-30.5 -2t-30.5 -2t-20.5 -1q-16 0 -17 10zM641 186l27 35q31 35 59.5 66.5 t62 72.5t76.5 96.5t105 135.5v-336h61q16 0 32.5 4t35.5 29q2 4 8 15t16 9q6 0 6 -4t-4 -12t-10 -17.5t-11 -18.5t-7 -13l-31 -64h-96v-90l2 -31q0 -29 14 -40t41 -11h19q18 0 18 -2q0 -14 -29 -14q-23 0 -43 2t-53 2q-16 0 -45 -2t-43 -2q-25 0 -28 4t-3 10q0 2 8 2h27 q25 0 32 21.5t7 36.5v116h-254zM741 258h154v191z" />
<glyph unicode="&#xbf;" horiz-adv-x="598" d="M41 -109q0 45 12.5 80t40 71t71.5 77t107 96q70 59 110 116.5t40 117.5q0 41 -28.5 64.5t-110.5 39.5q12 12 19 21.5t14.5 18.5t16.5 22.5t25 33.5q16 -10 39 -20.5t54 -20.5q-18 -14 -33 -29.5t-37 -39.5q51 -25 77.5 -68t26.5 -96q0 -74 -46 -133.5t-144 -145.5 q-39 -35 -68.5 -61.5t-49 -53t-30 -54t-10.5 -62.5q0 -31 10.5 -64.5t32 -61.5t55 -46.5t78.5 -18.5q66 0 108 39t42 80q0 8 -6 15.5t-29 11.5q-14 4 -17 6t-3 6q0 8 12 8q8 0 17 -4t32 -12q41 -14 57.5 -20.5t40.5 -12.5q-14 -29 -31.5 -54.5t-44 -47t-65.5 -33.5t-94 -12 q-39 0 -89 10t-95.5 37.5t-76 76t-30.5 123.5z" />
<glyph unicode="&#xc0;" horiz-adv-x="1492" d="M-2 4v6t12 2q6 0 26.5 -1t31.5 -1q76 0 110.5 33t63.5 90q14 29 45.5 101.5t72.5 170t87.5 211t90.5 221t81.5 199.5t60.5 150q-41 88 -82 127t-115 39h-53q-14 0 -14 8q0 6 10 7t23 1q10 0 33.5 -1t54.5 -1q31 -2 63.5 -3t56.5 -1h103q10 -27 17 -44.5t16.5 -37.5 t22.5 -48t34 -73l469 -1040q27 -59 51.5 -84t50.5 -25q20 0 33.5 1t20.5 1h14t4 -6q0 -4 -1 -8t-17 -4q-14 0 -39 1t-53.5 2t-59.5 2t-55 1q-27 0 -57.5 -1t-60.5 -2t-54.5 -2t-36.5 -1q-35 0 -42 2t-7 10q0 6 14 6q10 0 21.5 -2t33.5 -2q74 0 74 60q0 16 -13.5 61 t-45.5 123l-105 256h-491q-20 -47 -49 -112.5t-54.5 -130t-44 -117t-18.5 -72.5q0 -45 34.5 -54.5t77.5 -9.5q25 0 34 -2t9 -6q0 -6 -7 -7t-29 -1q-10 0 -29 1t-39.5 1t-39.5 1t-32 1h-118q-23 0 -78.5 -2t-102.5 -2q-10 0 -12 2t-2 6zM528 582h428l-223 495zM600 1538 l51 57l138 -147z" />
<glyph unicode="&#xc1;" horiz-adv-x="1492" d="M-2 4v6t12 2q6 0 26.5 -1t31.5 -1q76 0 110.5 33t63.5 90q14 29 45.5 101.5t72.5 170t87.5 211t90.5 221t81.5 199.5t60.5 150q-41 88 -82 127t-115 39h-53q-14 0 -14 8q0 6 10 7t23 1q10 0 33.5 -1t54.5 -1q31 -2 63.5 -3t56.5 -1h103q10 -27 17 -44.5t16.5 -37.5 t22.5 -48t34 -73l469 -1040q27 -59 51.5 -84t50.5 -25q20 0 33.5 1t20.5 1h14t4 -6q0 -4 -1 -8t-17 -4q-14 0 -39 1t-53.5 2t-59.5 2t-55 1q-27 0 -57.5 -1t-60.5 -2t-54.5 -2t-36.5 -1q-35 0 -42 2t-7 10q0 6 14 6q10 0 21.5 -2t33.5 -2q74 0 74 60q0 16 -13.5 61 t-45.5 123l-105 256h-491q-20 -47 -49 -112.5t-54.5 -130t-44 -117t-18.5 -72.5q0 -45 34.5 -54.5t77.5 -9.5q25 0 34 -2t9 -6q0 -6 -7 -7t-29 -1q-10 0 -29 1t-39.5 1t-39.5 1t-32 1h-118q-23 0 -78.5 -2t-102.5 -2q-10 0 -12 2t-2 6zM528 582h428l-223 495zM641 1448 l138 147l51 -57z" />
<glyph unicode="&#xc2;" horiz-adv-x="1492" d="M-2 4v6t12 2q6 0 26.5 -1t31.5 -1q76 0 110.5 33t63.5 90q14 29 45.5 101.5t72.5 170t87.5 211t90.5 221t81.5 199.5t60.5 150q-41 88 -82 127t-115 39h-53q-14 0 -14 8q0 6 10 7t23 1q10 0 33.5 -1t54.5 -1q31 -2 63.5 -3t56.5 -1h103q10 -27 17 -44.5t16.5 -37.5 t22.5 -48t34 -73l469 -1040q27 -59 51.5 -84t50.5 -25q20 0 33.5 1t20.5 1h14t4 -6q0 -4 -1 -8t-17 -4q-14 0 -39 1t-53.5 2t-59.5 2t-55 1q-27 0 -57.5 -1t-60.5 -2t-54.5 -2t-36.5 -1q-35 0 -42 2t-7 10q0 6 14 6q10 0 21.5 -2t33.5 -2q74 0 74 60q0 16 -13.5 61 t-45.5 123l-105 256h-491q-20 -47 -49 -112.5t-54.5 -130t-44 -117t-18.5 -72.5q0 -45 34.5 -54.5t77.5 -9.5q25 0 34 -2t9 -6q0 -6 -7 -7t-29 -1q-10 0 -29 1t-39.5 1t-39.5 1t-32 1h-118q-23 0 -78.5 -2t-102.5 -2q-10 0 -12 2t-2 6zM516 1446l189 151l188 -151l-188 72z M528 582h428l-223 495z" />
<glyph unicode="&#xc3;" horiz-adv-x="1492" d="M-2 4v6t12 2q6 0 26.5 -1t31.5 -1q76 0 110.5 33t63.5 90q14 29 45.5 101.5t72.5 170t87.5 211t90.5 221t81.5 199.5t60.5 150q-41 88 -82 127t-115 39h-53q-14 0 -14 8q0 6 10 7t23 1q10 0 33.5 -1t54.5 -1q31 -2 63.5 -3t56.5 -1h103q10 -27 17 -44.5t16.5 -37.5 t22.5 -48t34 -73l469 -1040q27 -59 51.5 -84t50.5 -25q20 0 33.5 1t20.5 1h14t4 -6q0 -4 -1 -8t-17 -4q-14 0 -39 1t-53.5 2t-59.5 2t-55 1q-27 0 -57.5 -1t-60.5 -2t-54.5 -2t-36.5 -1q-35 0 -42 2t-7 10q0 6 14 6q10 0 21.5 -2t33.5 -2q74 0 74 60q0 16 -13.5 61 t-45.5 123l-105 256h-491q-20 -47 -49 -112.5t-54.5 -130t-44 -117t-18.5 -72.5q0 -45 34.5 -54.5t77.5 -9.5q25 0 34 -2t9 -6q0 -6 -7 -7t-29 -1q-10 0 -29 1t-39.5 1t-39.5 1t-32 1h-118q-23 0 -78.5 -2t-102.5 -2q-10 0 -12 2t-2 6zM514 1499q0 8 6.5 26.5t18.5 35 t31.5 30t46.5 13.5t51 -12.5t59 -35.5q41 -29 62.5 -38t44.5 -9t35 11.5t12 21.5q0 8 -1 14.5t-1 12.5q0 4 1 10t7 6q10 0 10 -20q0 -8 -6 -25.5t-18.5 -36t-34 -32t-51.5 -13.5q-29 0 -57.5 16.5t-49.5 30.5q-41 29 -61.5 38t-40.5 9t-33.5 -9t-13.5 -27q0 -6 1 -12.5 t1 -12.5q0 -14 -8 -14q-6 0 -8.5 9t-2.5 13zM528 582h428l-223 495z" />
<glyph unicode="&#xc4;" horiz-adv-x="1492" d="M-2 4v6t12 2q6 0 26.5 -1t31.5 -1q76 0 110.5 33t63.5 90q14 29 45.5 101.5t72.5 170t87.5 211t90.5 221t81.5 199.5t60.5 150q-41 88 -82 127t-115 39h-53q-14 0 -14 8q0 6 10 7t23 1q10 0 33.5 -1t54.5 -1q31 -2 63.5 -3t56.5 -1h103q10 -27 17 -44.5t16.5 -37.5 t22.5 -48t34 -73l469 -1040q27 -59 51.5 -84t50.5 -25q20 0 33.5 1t20.5 1h14t4 -6q0 -4 -1 -8t-17 -4q-14 0 -39 1t-53.5 2t-59.5 2t-55 1q-27 0 -57.5 -1t-60.5 -2t-54.5 -2t-36.5 -1q-35 0 -42 2t-7 10q0 6 14 6q10 0 21.5 -2t33.5 -2q74 0 74 60q0 16 -13.5 61 t-45.5 123l-105 256h-491q-20 -47 -49 -112.5t-54.5 -130t-44 -117t-18.5 -72.5q0 -45 34.5 -54.5t77.5 -9.5q25 0 34 -2t9 -6q0 -6 -7 -7t-29 -1q-10 0 -29 1t-39.5 1t-39.5 1t-32 1h-118q-23 0 -78.5 -2t-102.5 -2q-10 0 -12 2t-2 6zM512 1522l74 75l76 -75l-76 -74z M528 582h428l-223 495zM750 1518l74 75l75 -75l-75 -74z" />
<glyph unicode="&#xc5;" horiz-adv-x="1492" d="M-2 4v6t12 2q6 0 26.5 -1t31.5 -1q76 0 110.5 33t63.5 90q14 29 45.5 101.5t72.5 170t87.5 211t90.5 221t81.5 199.5t60.5 150q-41 88 -82 127t-115 39h-53q-14 0 -14 8q0 6 10 7t23 1q10 0 33.5 -1t54.5 -1q31 -2 63.5 -3t56.5 -1h103q10 -27 17 -44.5t16.5 -37.5 t22.5 -48t34 -73l469 -1040q27 -59 51.5 -84t50.5 -25q20 0 33.5 1t20.5 1h14t4 -6q0 -4 -1 -8t-17 -4q-14 0 -39 1t-53.5 2t-59.5 2t-55 1q-27 0 -57.5 -1t-60.5 -2t-54.5 -2t-36.5 -1q-35 0 -42 2t-7 10q0 6 14 6q10 0 21.5 -2t33.5 -2q74 0 74 60q0 16 -13.5 61 t-45.5 123l-105 256h-491q-20 -47 -49 -112.5t-54.5 -130t-44 -117t-18.5 -72.5q0 -45 34.5 -54.5t77.5 -9.5q25 0 34 -2t9 -6q0 -6 -7 -7t-29 -1q-10 0 -29 1t-39.5 1t-39.5 1t-32 1h-118q-23 0 -78.5 -2t-102.5 -2q-10 0 -12 2t-2 6zM528 582h428l-223 495zM606 1534 q0 41 29 69.5t70 28.5t69.5 -28.5t28.5 -69.5t-28.5 -69.5t-69.5 -28.5t-70 28.5t-29 69.5zM647 1534q0 -23 17.5 -40t40.5 -17t40 17t17 40t-17.5 40t-39.5 17q-23 0 -40.5 -17.5t-17.5 -39.5z" />
<glyph unicode="&#xc6;" horiz-adv-x="1599" d="M12 4q0 10 11 10q12 0 14 -1t12 -1q31 0 59.5 17.5t54 46t48 64.5t43.5 75q23 43 51.5 95t58 107.5t58.5 108t51 95.5q37 68 81 150.5t90 169.5t90 170t81 151q-2 23 -25.5 39t-52 25t-56.5 13t-40 4t-25.5 -2t-15.5 -2q-10 0 -10 11q2 8 12.5 9t26.5 1q12 0 44 -1t77 -3 t98 -3t113 -1h542v-76q0 -23 2 -59.5t2 -63.5q0 -47 -6 -47q-10 0 -10 20q0 53 -12 78q-10 20 -38 44t-98 24h-356v-524h289q158 0 158 79q0 16 -1 35t-1 25q0 16 12 16q6 0 6 -16q0 -6 -1 -26.5t-2 -47.5t-2 -53.5t-1 -46.5q0 -53 3 -100.5t3 -69.5q0 -6 -2 -12.5t-6 -6.5 q-10 0 -10 21q0 12 1 30.5t1 32.5q0 18 -25 42t-98 24h-324v-463q0 -72 25.5 -96.5t91.5 -24.5h217q53 0 89 2t60.5 11.5t39 28t26.5 52.5q6 16 14 17q6 0 6 -8q0 -4 -5 -20.5t-7 -20.5q-6 -16 -20.5 -60.5t-24.5 -91.5h-594h-229q-12 0 -22.5 2t-10.5 14q0 4 8 4 q6 0 26.5 -2t24.5 -2q49 0 76 11.5t40 33t15.5 52t2.5 69.5v328h-355q-8 -16 -26.5 -50t-39 -73t-40 -75t-27.5 -54q-14 -29 -30.5 -61.5t-31 -61.5t-23.5 -52.5t-9 -31.5q0 -12 10 -25.5t45 -13.5q6 0 11.5 1t15.5 1q12 0 15 -2t3 -12q0 -4 -20 -4q-10 0 -35 1t-52.5 1 t-52 1t-32.5 1q-6 0 -22.5 -1t-33 -1t-32 -1t-21.5 -1q-29 0 -35 1t-6 7zM524 584h312v583q-25 -45 -50.5 -90t-59.5 -107.5t-82 -154.5t-120 -231z" />
<glyph unicode="&#xc7;" horiz-adv-x="1386" d="M70 653q0 137 50 265.5t145 228.5t231.5 160.5t310.5 60.5q150 0 270.5 -27.5t216.5 -54.5q-2 -39 -3 -70.5t-1 -54.5q0 -12 1 -44t1 -67.5t1 -66.5t1 -43q0 -4 -2 -9t-6 -5q-8 0 -8 10q0 43 -4 86t-47 96q-61 78 -177 122t-251 44q-102 0 -202.5 -39t-180.5 -115.5 t-130 -190.5t-50 -263q0 -119 28.5 -212t75.5 -162t105.5 -116t118 -75.5t114.5 -41t94 -12.5q86 0 162 17.5t137.5 44t106.5 55.5t69 53q14 14 25.5 45t11.5 50l-2 20q0 8 8 8t8 -18q0 -6 -1 -19.5t-2 -29t-3 -29.5t-2 -23q-4 -43 -4 -67.5v-69.5q-143 -47 -269 -79.5 t-259 -32.5q-6 -14 -8 -20.5t-3.5 -9.5t-3.5 -6t-4 -12q39 6 67 -1t46 -22t27.5 -35.5t9.5 -41.5q0 -41 -26.5 -65.5t-69.5 -24.5q-45 0 -74 11.5t-37 15.5q-12 6 -26.5 14t-14.5 12q0 6 6 6q8 0 28.5 -9t49.5 -9q88 0 88 53q0 37 -27.5 56.5t-93.5 1.5q14 31 20.5 47 t14.5 41q-150 4 -270.5 63t-206.5 152.5t-133 212t-47 241.5z" />
<glyph unicode="&#xc8;" d="M23 10q0 10 8 10t30.5 -2t30.5 -2q45 0 70.5 11.5t36 33t12.5 51t2 66.5v983q0 55 -3 91t-17.5 56.5t-43 27.5t-77.5 7q-6 0 -6 9q0 8 32 8q14 0 57.5 -1t94.5 -3q49 -2 95 -3t63 -1h475v-209q0 -29 -2 -38t-9 -9q-6 0 -6 14v55q0 18 -6 37t-21.5 34t-43 24.5t-72.5 9.5 h-358v-527h337q37 0 58.5 12.5t33 30t15.5 33t4 21.5v43q0 16 8 16q4 0 6 -3t2 -22q0 -41 -3 -71.5t-3 -71.5q0 -12 1 -38.5t3 -55.5t3 -54.5t1 -35.5q0 -6 -1 -17.5t-9 -11.5t-8 8q0 6 1 22.5t-3 41.5q-8 45 -38 62.5t-116 17.5h-292v-387q0 -55 2 -92t12 -59.5t34.5 -32 t67.5 -9.5h297q106 0 127 57q8 23 12.5 38.5t12.5 15.5t8 -8q0 -4 -8 -26t-17 -42q-10 -29 -18 -55.5t-18 -69.5h-818q-37 0 -36 10zM385 1538l51 57l138 -147z" />
<glyph unicode="&#xc9;" d="M23 10q0 10 8 10t30.5 -2t30.5 -2q45 0 70.5 11.5t36 33t12.5 51t2 66.5v983q0 55 -3 91t-17.5 56.5t-43 27.5t-77.5 7q-6 0 -6 9q0 8 32 8q14 0 57.5 -1t94.5 -3q49 -2 95 -3t63 -1h475v-209q0 -29 -2 -38t-9 -9q-6 0 -6 14v55q0 18 -6 37t-21.5 34t-43 24.5t-72.5 9.5 h-358v-527h337q37 0 58.5 12.5t33 30t15.5 33t4 21.5v43q0 16 8 16q4 0 6 -3t2 -22q0 -41 -3 -71.5t-3 -71.5q0 -12 1 -38.5t3 -55.5t3 -54.5t1 -35.5q0 -6 -1 -17.5t-9 -11.5t-8 8q0 6 1 22.5t-3 41.5q-8 45 -38 62.5t-116 17.5h-292v-387q0 -55 2 -92t12 -59.5t34.5 -32 t67.5 -9.5h297q106 0 127 57q8 23 12.5 38.5t12.5 15.5t8 -8q0 -4 -8 -26t-17 -42q-10 -29 -18 -55.5t-18 -69.5h-818q-37 0 -36 10zM426 1448l138 147l51 -57z" />
<glyph unicode="&#xca;" d="M23 10q0 10 8 10t30.5 -2t30.5 -2q45 0 70.5 11.5t36 33t12.5 51t2 66.5v983q0 55 -3 91t-17.5 56.5t-43 27.5t-77.5 7q-6 0 -6 9q0 8 32 8q14 0 57.5 -1t94.5 -3q49 -2 95 -3t63 -1h475v-209q0 -29 -2 -38t-9 -9q-6 0 -6 14v55q0 18 -6 37t-21.5 34t-43 24.5t-72.5 9.5 h-358v-527h337q37 0 58.5 12.5t33 30t15.5 33t4 21.5v43q0 16 8 16q4 0 6 -3t2 -22q0 -41 -3 -71.5t-3 -71.5q0 -12 1 -38.5t3 -55.5t3 -54.5t1 -35.5q0 -6 -1 -17.5t-9 -11.5t-8 8q0 6 1 22.5t-3 41.5q-8 45 -38 62.5t-116 17.5h-292v-387q0 -55 2 -92t12 -59.5t34.5 -32 t67.5 -9.5h297q106 0 127 57q8 23 12.5 38.5t12.5 15.5t8 -8q0 -4 -8 -26t-17 -42q-10 -29 -18 -55.5t-18 -69.5h-818q-37 0 -36 10zM342 1446l189 151l188 -151l-188 72z" />
<glyph unicode="&#xcb;" d="M23 10q0 10 8 10t30.5 -2t30.5 -2q45 0 70.5 11.5t36 33t12.5 51t2 66.5v983q0 55 -3 91t-17.5 56.5t-43 27.5t-77.5 7q-6 0 -6 9q0 8 32 8q14 0 57.5 -1t94.5 -3q49 -2 95 -3t63 -1h475v-209q0 -29 -2 -38t-9 -9q-6 0 -6 14v55q0 18 -6 37t-21.5 34t-43 24.5t-72.5 9.5 h-358v-527h337q37 0 58.5 12.5t33 30t15.5 33t4 21.5v43q0 16 8 16q4 0 6 -3t2 -22q0 -41 -3 -71.5t-3 -71.5q0 -12 1 -38.5t3 -55.5t3 -54.5t1 -35.5q0 -6 -1 -17.5t-9 -11.5t-8 8q0 6 1 22.5t-3 41.5q-8 45 -38 62.5t-116 17.5h-292v-387q0 -55 2 -92t12 -59.5t34.5 -32 t67.5 -9.5h297q106 0 127 57q8 23 12.5 38.5t12.5 15.5t8 -8q0 -4 -8 -26t-17 -42q-10 -29 -18 -55.5t-18 -69.5h-818q-37 0 -36 10zM338 1522l74 75l76 -75l-76 -74zM576 1518l74 75l75 -75l-75 -74z" />
<glyph unicode="&#xcc;" horiz-adv-x="575" d="M18 2q0 10 9 10q6 0 37.5 -2t48.5 -2q51 0 74.5 39t23.5 127v1000q0 92 -17.5 130.5t-78.5 38.5q-10 0 -39 -2t-43 -2q-10 0 -12.5 2t-2.5 13q0 2 7.5 4t17.5 2h20.5h16.5q16 0 47 -1t66 -3q33 -2 60.5 -3t33.5 -1q16 0 42.5 1t55.5 3t57.5 3t51.5 1q35 0 49 -1t14 -7 q0 -10 -3 -11.5t-13 -1.5q-20 0 -43 2t-58 2q-31 0 -46 -15t-22 -36.5t-8.5 -46t-1.5 -45.5v-1063q0 -59 26 -94t79 -35q18 0 37.5 2t36.5 2q10 0 13 -4t3 -8q0 -8 -49 -8q-16 0 -44 1t-58 3q-31 2 -62 3t-53 1q-23 0 -52.5 -1t-62.5 -3q-31 -2 -58.5 -3t-49.5 -1 q-14 0 -32 1t-18 9zM184 1538l51 57l138 -147z" />
<glyph unicode="&#xcd;" horiz-adv-x="575" d="M18 2q0 10 9 10q6 0 37.5 -2t48.5 -2q51 0 74.5 39t23.5 127v1000q0 92 -17.5 130.5t-78.5 38.5q-10 0 -39 -2t-43 -2q-10 0 -12.5 2t-2.5 13q0 2 7.5 4t17.5 2h20.5h16.5q16 0 47 -1t66 -3q33 -2 60.5 -3t33.5 -1q16 0 42.5 1t55.5 3t57.5 3t51.5 1q35 0 49 -1t14 -7 q0 -10 -3 -11.5t-13 -1.5q-20 0 -43 2t-58 2q-31 0 -46 -15t-22 -36.5t-8.5 -46t-1.5 -45.5v-1063q0 -59 26 -94t79 -35q18 0 37.5 2t36.5 2q10 0 13 -4t3 -8q0 -8 -49 -8q-16 0 -44 1t-58 3q-31 2 -62 3t-53 1q-23 0 -52.5 -1t-62.5 -3q-31 -2 -58.5 -3t-49.5 -1 q-14 0 -32 1t-18 9zM184 1448l138 147l51 -57z" />
<glyph unicode="&#xce;" horiz-adv-x="575" d="M18 2q0 10 9 10q6 0 37.5 -2t48.5 -2q51 0 74.5 39t23.5 127v1000q0 92 -17.5 130.5t-78.5 38.5q-10 0 -39 -2t-43 -2q-10 0 -12.5 2t-2.5 13q0 2 7.5 4t17.5 2h20.5h16.5q16 0 47 -1t66 -3q33 -2 60.5 -3t33.5 -1q16 0 42.5 1t55.5 3t57.5 3t51.5 1q35 0 49 -1t14 -7 q0 -10 -3 -11.5t-13 -1.5q-20 0 -43 2t-58 2q-31 0 -46 -15t-22 -36.5t-8.5 -46t-1.5 -45.5v-1063q0 -59 26 -94t79 -35q18 0 37.5 2t36.5 2q10 0 13 -4t3 -8q0 -8 -49 -8q-16 0 -44 1t-58 3q-31 2 -62 3t-53 1q-23 0 -52.5 -1t-62.5 -3q-31 -2 -58.5 -3t-49.5 -1 q-14 0 -32 1t-18 9zM100 1446l189 151l188 -151l-188 72z" />
<glyph unicode="&#xcf;" horiz-adv-x="575" d="M18 2q0 10 9 10q6 0 37.5 -2t48.5 -2q51 0 74.5 39t23.5 127v1000q0 92 -17.5 130.5t-78.5 38.5q-10 0 -39 -2t-43 -2q-10 0 -12.5 2t-2.5 13q0 2 7.5 4t17.5 2h20.5h16.5q16 0 47 -1t66 -3q33 -2 60.5 -3t33.5 -1q16 0 42.5 1t55.5 3t57.5 3t51.5 1q35 0 49 -1t14 -7 q0 -10 -3 -11.5t-13 -1.5q-20 0 -43 2t-58 2q-31 0 -46 -15t-22 -36.5t-8.5 -46t-1.5 -45.5v-1063q0 -59 26 -94t79 -35q18 0 37.5 2t36.5 2q10 0 13 -4t3 -8q0 -8 -49 -8q-16 0 -44 1t-58 3q-31 2 -62 3t-53 1q-23 0 -52.5 -1t-62.5 -3q-31 -2 -58.5 -3t-49.5 -1 q-14 0 -32 1t-18 9zM96 1522l74 75l76 -75l-76 -74zM334 1518l74 75l75 -75l-75 -74z" />
<glyph unicode="&#xd0;" horiz-adv-x="1409" d="M6 645v80h201v459q0 39 -3 68.5t-16.5 50t-39 32t-68.5 11.5q-10 0 -30.5 -2.5t-29.5 -2.5q-4 0 -6 4.5t-2 8.5q0 2 9.5 4t21.5 3t24.5 1h16.5q10 0 36.5 -1t55.5 -3q29 -4 54.5 -5t35.5 -1q14 0 53 1t84 3t84 2h50q211 0 363.5 -57.5t251.5 -153.5t146.5 -222t47.5 -263 q0 -164 -56.5 -289t-147.5 -208t-206 -125t-231 -42h-88.5t-125 1t-124 1h-82.5h-35t-66 -1t-73.5 -1h-57.5q-23 0 -31 5t-8 9t5.5 6t9.5 2q8 0 31.5 -3t39.5 -3q66 0 86.5 36t20.5 126v469h-201zM358 303q0 -53 1 -87t4.5 -56.5t8.5 -35.5t13 -24q20 -29 83.5 -33t188.5 -4 q143 0 243.5 45.5t162 123t89.5 181t28 220.5q0 168 -52.5 294t-141.5 209t-210 123.5t-258 40.5q-35 0 -71.5 -2t-88.5 -6v-567h424v-80h-424v-342z" />
<glyph unicode="&#xd1;" horiz-adv-x="1556" d="M0 1341q0 6 1 10.5t11 4.5q6 0 22.5 -1t36 -1t38 -1t28.5 -1h75t91 2q18 -25 29.5 -40.5t23 -29.5t25.5 -30.5t39 -43.5q98 -111 215 -240.5t227.5 -251.5t204.5 -224.5t150 -159.5l51 -60v652q0 111 -1 172t-2 95t-3 49t-5 30q-8 51 -32.5 60t-87.5 9q-25 0 -25 5 q0 8 6 10t29 2q12 0 35.5 -1t50.5 -2t50.5 -2t33.5 -1q14 0 55 3t62 3h33t10 -8q0 -10 -39 -11q-39 0 -62 -32q-16 -23 -21 -96.5t-5 -237.5v-1028q-43 57 -71 95t-55.5 70.5t-62.5 70.5t-92 100q-57 59 -121.5 129.5t-124.5 136.5q-61 68 -107 118t-82 90t-67.5 72.5 t-64.5 69.5t-73 80t-91 100v-801v-46.5t1 -59.5t2 -56.5t5 -35.5q14 -49 57 -58.5t82 -9.5q14 0 32 2t32 2q10 0 10 -8q0 -10 -13.5 -11t-45.5 -1q-16 0 -45 1t-64 3q-33 0 -63.5 1t-48.5 1q-16 0 -46 -1t-61 -1q-31 -2 -55.5 -3t-30.5 -1q-4 0 -8 1t-4 5t2 8t6 4t19.5 -1 t21.5 -1q49 0 72.5 18.5t42.5 77.5q10 35 12 89.5t2 97.5v876l-111 121q-18 23 -44.5 36t-47.5 13q-10 0 -20.5 -1t-20.5 -1q-8 0 -8 4zM588 1499q0 8 6.5 26.5t18.5 35t31.5 30t46.5 13.5t51 -12.5t59 -35.5q41 -29 62.5 -38t44.5 -9t35 11.5t12 21.5q0 8 -1 14.5t-1 12.5 q0 4 1 10t7 6q10 0 10 -20q0 -8 -6 -25.5t-18.5 -36t-34 -32t-51.5 -13.5q-29 0 -57.5 16.5t-49.5 30.5q-41 29 -61.5 38t-40.5 9t-33.5 -9t-13.5 -27q0 -6 1 -12.5t1 -12.5q0 -14 -8 -14q-6 0 -8.5 9t-2.5 13z" />
<glyph unicode="&#xd2;" horiz-adv-x="1515" d="M57 662q0 143 53.5 271t147.5 225t222 153.5t278 56.5q145 0 273 -55.5t223.5 -150.5t149.5 -221t54 -269q0 -141 -53 -267t-148.5 -219.5t-226.5 -147.5t-285 -54q-145 0 -271 53t-218 145t-145.5 215.5t-53.5 264.5zM223 717q0 -174 48 -300t123 -207t169 -120t187 -39 q96 0 193 40t175 116t126 186.5t48 251.5q0 133 -37.5 251t-109.5 205t-173.5 138t-226.5 51q-100 0 -178 -29.5t-136 -78.5t-98 -110.5t-64.5 -125t-35 -124t-10.5 -105.5zM653 1538l51 57l138 -147z" />
<glyph unicode="&#xd3;" horiz-adv-x="1515" d="M57 662q0 143 53.5 271t147.5 225t222 153.5t278 56.5q145 0 273 -55.5t223.5 -150.5t149.5 -221t54 -269q0 -141 -53 -267t-148.5 -219.5t-226.5 -147.5t-285 -54q-145 0 -271 53t-218 145t-145.5 215.5t-53.5 264.5zM223 717q0 -174 48 -300t123 -207t169 -120t187 -39 q96 0 193 40t175 116t126 186.5t48 251.5q0 133 -37.5 251t-109.5 205t-173.5 138t-226.5 51q-100 0 -178 -29.5t-136 -78.5t-98 -110.5t-64.5 -125t-35 -124t-10.5 -105.5zM653 1448l138 147l51 -57z" />
<glyph unicode="&#xd4;" horiz-adv-x="1515" d="M57 662q0 143 53.5 271t147.5 225t222 153.5t278 56.5q145 0 273 -55.5t223.5 -150.5t149.5 -221t54 -269q0 -141 -53 -267t-148.5 -219.5t-226.5 -147.5t-285 -54q-145 0 -271 53t-218 145t-145.5 215.5t-53.5 264.5zM223 717q0 -174 48 -300t123 -207t169 -120t187 -39 q96 0 193 40t175 116t126 186.5t48 251.5q0 133 -37.5 251t-109.5 205t-173.5 138t-226.5 51q-100 0 -178 -29.5t-136 -78.5t-98 -110.5t-64.5 -125t-35 -124t-10.5 -105.5zM569 1446l189 151l188 -151l-188 72z" />
<glyph unicode="&#xd5;" horiz-adv-x="1515" d="M57 662q0 143 53.5 271t147.5 225t222 153.5t278 56.5q145 0 273 -55.5t223.5 -150.5t149.5 -221t54 -269q0 -141 -53 -267t-148.5 -219.5t-226.5 -147.5t-285 -54q-145 0 -271 53t-218 145t-145.5 215.5t-53.5 264.5zM223 717q0 -174 48 -300t123 -207t169 -120t187 -39 q96 0 193 40t175 116t126 186.5t48 251.5q0 133 -37.5 251t-109.5 205t-173.5 138t-226.5 51q-100 0 -178 -29.5t-136 -78.5t-98 -110.5t-64.5 -125t-35 -124t-10.5 -105.5zM567 1499q0 8 6.5 26.5t18.5 35t31.5 30t46.5 13.5t51 -12.5t59 -35.5q41 -29 62.5 -38t44.5 -9 t35 11.5t12 21.5q0 8 -1 14.5t-1 12.5q0 4 1 10t7 6q10 0 10 -20q0 -8 -6 -25.5t-18.5 -36t-34 -32t-51.5 -13.5q-29 0 -57.5 16.5t-49.5 30.5q-41 29 -61.5 38t-40.5 9t-33.5 -9t-13.5 -27q0 -6 1 -12.5t1 -12.5q0 -14 -8 -14q-6 0 -8.5 9t-2.5 13z" />
<glyph unicode="&#xd6;" horiz-adv-x="1515" d="M57 662q0 143 53.5 271t147.5 225t222 153.5t278 56.5q145 0 273 -55.5t223.5 -150.5t149.5 -221t54 -269q0 -141 -53 -267t-148.5 -219.5t-226.5 -147.5t-285 -54q-145 0 -271 53t-218 145t-145.5 215.5t-53.5 264.5zM223 717q0 -174 48 -300t123 -207t169 -120t187 -39 q96 0 193 40t175 116t126 186.5t48 251.5q0 133 -37.5 251t-109.5 205t-173.5 138t-226.5 51q-100 0 -178 -29.5t-136 -78.5t-98 -110.5t-64.5 -125t-35 -124t-10.5 -105.5zM565 1522l74 75l76 -75l-76 -74zM803 1518l74 75l75 -75l-75 -74z" />
<glyph unicode="&#xd7;" horiz-adv-x="1003" d="M162 281l287 286l-287 287l53 53l287 -286l286 286l54 -53l-287 -287l287 -286l-54 -54l-286 287l-287 -287z" />
<glyph unicode="&#xd8;" horiz-adv-x="1515" d="M57 662q0 125 48.5 250.5t139.5 227t220 165t291 63.5q82 0 149.5 -16.5t121.5 -39t96 -48t71 -45.5l121 135h100l-166 -189q49 -53 88 -106t66 -112.5t41 -127t14 -147.5q0 -125 -33.5 -224.5t-90 -175t-130.5 -131t-151.5 -90.5t-155.5 -51t-143 -16 q-117 0 -229.5 38.5t-205.5 110.5l-118 -133h-103l164 182q-68 68 -107.5 134.5t-61 129t-29 117.5t-7.5 99zM223 715q0 -106 25.5 -217t97.5 -226l772 858q-18 16 -49 44t-77 53.5t-107.5 44t-141.5 18.5q-98 0 -174.5 -29.5t-135 -77.5t-98.5 -109.5t-64.5 -125t-36 -125 t-11.5 -108.5zM389 211q39 -49 89 -80t101.5 -49.5t95.5 -24.5t73 -6q98 0 196 39t175 115t125 186.5t48 251.5q0 63 -11 129t-29.5 123t-41 103t-45.5 73z" />
<glyph unicode="&#xd9;" horiz-adv-x="1556" d="M-6 1350q0 8 9 10t50 2q14 0 46 -2t68 -3t66.5 -3t42.5 -2t41 2t62 3t61.5 3t38.5 2q12 0 34 -1t22 -7q0 -8 -27 -8q-12 0 -29.5 1t-34.5 1q-53 0 -78.5 -48.5t-25.5 -113.5v-422q0 -346 105.5 -517t340.5 -171q86 0 157 23.5t121 59.5t80 75.5t36 70.5q8 41 13 94.5 t5 124.5v633v74t-11 61.5t-36 41t-74 14.5q-12 0 -30.5 -2.5t-34.5 -2.5q-4 0 -7.5 4.5t-3.5 6.5q0 6 7 6q4 2 19 2h24q12 0 44.5 -2t67.5 -3t66 -3t41 -2q14 0 49 2t73 3t70.5 3t44.5 2q6 0 19.5 -1t13.5 -5q0 -8 -4 -10.5t-20 -2.5t-44 1.5t-40 1.5q-37 0 -54.5 -17.5 t-23.5 -46.5t-4 -63.5t2 -69.5v-653q0 -23 -1 -60t-1 -78t-1 -78.5t-1 -60.5q0 -53 3 -93t16 -65.5t40 -38t72 -12.5h24q8 0 8 -10q0 -4 -21.5 -5t-43.5 -1q-18 0 -94 3t-168 3q4 47 6 112.5t4 137.5q-31 -59 -79 -108.5t-108.5 -84t-132 -54t-147.5 -19.5 q-262 0 -400.5 171t-138.5 502v557q0 68 -23.5 102t-109.5 34q-10 0 -25.5 -3.5t-27.5 -3.5q-8 0 -8 7zM674 1538l51 57l138 -147z" />
<glyph unicode="&#xda;" horiz-adv-x="1556" d="M-6 1350q0 8 9 10t50 2q14 0 46 -2t68 -3t66.5 -3t42.5 -2t41 2t62 3t61.5 3t38.5 2q12 0 34 -1t22 -7q0 -8 -27 -8q-12 0 -29.5 1t-34.5 1q-53 0 -78.5 -48.5t-25.5 -113.5v-422q0 -346 105.5 -517t340.5 -171q86 0 157 23.5t121 59.5t80 75.5t36 70.5q8 41 13 94.5 t5 124.5v633v74t-11 61.5t-36 41t-74 14.5q-12 0 -30.5 -2.5t-34.5 -2.5q-4 0 -7.5 4.5t-3.5 6.5q0 6 7 6q4 2 19 2h24q12 0 44.5 -2t67.5 -3t66 -3t41 -2q14 0 49 2t73 3t70.5 3t44.5 2q6 0 19.5 -1t13.5 -5q0 -8 -4 -10.5t-20 -2.5t-44 1.5t-40 1.5q-37 0 -54.5 -17.5 t-23.5 -46.5t-4 -63.5t2 -69.5v-653q0 -23 -1 -60t-1 -78t-1 -78.5t-1 -60.5q0 -53 3 -93t16 -65.5t40 -38t72 -12.5h24q8 0 8 -10q0 -4 -21.5 -5t-43.5 -1q-18 0 -94 3t-168 3q4 47 6 112.5t4 137.5q-31 -59 -79 -108.5t-108.5 -84t-132 -54t-147.5 -19.5 q-262 0 -400.5 171t-138.5 502v557q0 68 -23.5 102t-109.5 34q-10 0 -25.5 -3.5t-27.5 -3.5q-8 0 -8 7zM674 1448l138 147l51 -57z" />
<glyph unicode="&#xdb;" horiz-adv-x="1556" d="M-6 1350q0 8 9 10t50 2q14 0 46 -2t68 -3t66.5 -3t42.5 -2t41 2t62 3t61.5 3t38.5 2q12 0 34 -1t22 -7q0 -8 -27 -8q-12 0 -29.5 1t-34.5 1q-53 0 -78.5 -48.5t-25.5 -113.5v-422q0 -346 105.5 -517t340.5 -171q86 0 157 23.5t121 59.5t80 75.5t36 70.5q8 41 13 94.5 t5 124.5v633v74t-11 61.5t-36 41t-74 14.5q-12 0 -30.5 -2.5t-34.5 -2.5q-4 0 -7.5 4.5t-3.5 6.5q0 6 7 6q4 2 19 2h24q12 0 44.5 -2t67.5 -3t66 -3t41 -2q14 0 49 2t73 3t70.5 3t44.5 2q6 0 19.5 -1t13.5 -5q0 -8 -4 -10.5t-20 -2.5t-44 1.5t-40 1.5q-37 0 -54.5 -17.5 t-23.5 -46.5t-4 -63.5t2 -69.5v-653q0 -23 -1 -60t-1 -78t-1 -78.5t-1 -60.5q0 -53 3 -93t16 -65.5t40 -38t72 -12.5h24q8 0 8 -10q0 -4 -21.5 -5t-43.5 -1q-18 0 -94 3t-168 3q4 47 6 112.5t4 137.5q-31 -59 -79 -108.5t-108.5 -84t-132 -54t-147.5 -19.5 q-262 0 -400.5 171t-138.5 502v557q0 68 -23.5 102t-109.5 34q-10 0 -25.5 -3.5t-27.5 -3.5q-8 0 -8 7zM590 1446l189 151l188 -151l-188 72z" />
<glyph unicode="&#xdc;" horiz-adv-x="1556" d="M-6 1350q0 8 9 10t50 2q14 0 46 -2t68 -3t66.5 -3t42.5 -2t41 2t62 3t61.5 3t38.5 2q12 0 34 -1t22 -7q0 -8 -27 -8q-12 0 -29.5 1t-34.5 1q-53 0 -78.5 -48.5t-25.5 -113.5v-422q0 -346 105.5 -517t340.5 -171q86 0 157 23.5t121 59.5t80 75.5t36 70.5q8 41 13 94.5 t5 124.5v633v74t-11 61.5t-36 41t-74 14.5q-12 0 -30.5 -2.5t-34.5 -2.5q-4 0 -7.5 4.5t-3.5 6.5q0 6 7 6q4 2 19 2h24q12 0 44.5 -2t67.5 -3t66 -3t41 -2q14 0 49 2t73 3t70.5 3t44.5 2q6 0 19.5 -1t13.5 -5q0 -8 -4 -10.5t-20 -2.5t-44 1.5t-40 1.5q-37 0 -54.5 -17.5 t-23.5 -46.5t-4 -63.5t2 -69.5v-653q0 -23 -1 -60t-1 -78t-1 -78.5t-1 -60.5q0 -53 3 -93t16 -65.5t40 -38t72 -12.5h24q8 0 8 -10q0 -4 -21.5 -5t-43.5 -1q-18 0 -94 3t-168 3q4 47 6 112.5t4 137.5q-31 -59 -79 -108.5t-108.5 -84t-132 -54t-147.5 -19.5 q-262 0 -400.5 171t-138.5 502v557q0 68 -23.5 102t-109.5 34q-10 0 -25.5 -3.5t-27.5 -3.5q-8 0 -8 7zM586 1522l74 75l76 -75l-76 -74zM824 1518l74 75l75 -75l-75 -74z" />
<glyph unicode="&#xdd;" horiz-adv-x="1429" d="M0 1348q0 10 16.5 10h32.5q12 0 45 -1t72 -1q39 -2 72.5 -3t50.5 -1q12 0 37.5 1t53.5 3t50.5 3t30.5 1q14 0 28.5 -1t14.5 -7q0 -10 -5 -11.5t-10 -1.5q-10 0 -22 2t-27 2q-23 0 -28.5 -9t-5.5 -21q0 -27 100 -158q16 -20 55 -69.5t82 -102.5t80 -101t51 -67l322 406 q10 12 24.5 36.5t14.5 42.5q0 16 -8.5 25.5t-18.5 13.5t-20.5 4h-16.5q-10 0 -20.5 -1t-16.5 -1t-6 9q0 6 19.5 8t29.5 2q16 0 32.5 -1t35.5 -3q18 -2 37.5 -3t38.5 -1q12 0 35.5 1t50.5 5q27 2 51 3t37 1q25 0 24 -10q0 -6 -10 -6h-14q-47 0 -78 -9.5t-66 -44.5 q-10 -10 -40.5 -47t-71.5 -89t-88 -111.5t-91.5 -113.5t-79 -99.5t-51.5 -65.5v-600q0 -55 9.5 -86t26 -46.5t36 -19.5t41.5 -4q16 0 35.5 3t32.5 3q10 0 10 -8q0 -14 -31 -14q-18 0 -49 1t-66 3q-35 0 -65.5 1t-52.5 1q-27 0 -60.5 -1t-68.5 -1q-35 -2 -62.5 -3t-44.5 -1 q-27 0 -26 14q0 8 10 8q8 0 23.5 -3t27.5 -3q45 0 70.5 8.5t38 33t15.5 70.5t3 120v473q-20 25 -55 68.5t-76 96t-85 107.5l-82 102.5t-65.5 82t-37.5 47.5q-33 41 -59.5 65.5t-50.5 36.5t-44.5 16t-42.5 4q-16 0 -36.5 -3t-37.5 -3q-8 0 -9 4t-1 9zM651 1448l138 147 l51 -57z" />
<glyph unicode="&#xde;" horiz-adv-x="1003" d="M10 2q0 10 10 10q6 0 27 -3t27 -3q49 0 75.5 11.5t39 33t14.5 53t2 70.5v1014q0 37 -1 66.5t-13.5 50t-39 32t-75.5 11.5q-18 0 -29.5 -2.5t-21.5 -2.5q-14 0 -15 9q0 6 25.5 7t36.5 1q12 0 41.5 -1t62.5 -3q35 -2 64.5 -3t40.5 -1q4 0 29.5 1t60.5 3q33 2 64.5 3t41.5 1 h18.5t24.5 -1t21.5 -3t9.5 -4q0 -8 -8 -9q-10 0 -30.5 2.5t-27.5 2.5q-45 0 -70.5 -10.5t-39 -29t-16.5 -44t-3 -54.5v-178q182 10 296 -24.5t178.5 -89t88 -116t23.5 -106.5q0 -47 -24.5 -109.5t-89 -116.5t-179 -89t-293.5 -25v-182q0 -41 2 -72.5t14.5 -53t38 -32 t72.5 -10.5q6 0 26.5 3t33.5 3q12 0 12 -8t-18.5 -10t-40.5 -2q-10 0 -41 1t-65 3t-64.5 3t-40.5 1q-12 0 -41 -1t-60.5 -3t-60.5 -3t-39 -1h-53q-4 0 -12.5 2t-8.5 8zM356 403q100 -2 169 17.5t114 51.5t70.5 70t38 70.5t14.5 56t2 27.5q0 37 -16.5 88.5t-61.5 96.5 t-125 75.5t-205 28.5v-582z" />
<glyph unicode="&#xdf;" horiz-adv-x="989" d="M57 8q0 8 17 8q10 0 19 -1t16 -1q35 0 45 29t10 72v821q0 86 31.5 164t85 138t122 95t142.5 35q61 0 119.5 -27.5t104.5 -74.5t74.5 -109.5t28.5 -132.5q0 -74 -24.5 -126t-63.5 -88t-85 -57.5t-89 -31.5q100 -27 165 -72t101.5 -98t50 -111.5t13.5 -109.5 q0 -57 -19.5 -118.5t-67.5 -112t-131 -83t-212 -32.5q-8 0 -28.5 1t-20.5 11q0 4 2 8t6 4q6 0 26.5 -4t26.5 -4q55 0 105.5 26.5t88.5 71.5t59.5 106.5t21.5 131.5q0 88 -28 158.5t-73 120t-99 76t-110 26.5q-14 0 -34.5 -2t-42.5 -2q-4 0 -8.5 2t-4.5 8q1 14 15 14 q12 0 32.5 -2t36.5 -2q111 0 183.5 60.5t72.5 189.5q0 98 -25.5 160.5t-62.5 99.5t-79 51.5t-76 14.5q-41 0 -80 -17.5t-68 -53.5t-46 -92t-17 -134v-885q0 -18 1 -37.5t7 -37t19.5 -28t37.5 -10.5q4 0 22.5 1t28.5 1q4 0 9.5 -1t5.5 -7q0 -12 -8 -12h-25q-8 0 -28.5 1 t-45 1t-49.5 1t-39 1q-12 0 -32.5 -1t-42 -1t-40 -1t-26.5 -1q-20 0 -21 12z" />
<glyph unicode="&#xe0;" horiz-adv-x="811" d="M55 219q0 47 29 81t109 62q63 20 107 37t82 33.5t74 34.5t83 45v49q0 29 -7.5 61.5t-27 59.5t-53 44t-89.5 17q-70 0 -117.5 -15t-92.5 -50q-18 -16 -32 -32.5t-20 -27.5q-10 -25 -16 -24q-6 0 -6 6q0 23 26.5 66t70.5 86t102.5 75.5t121.5 32.5q115 0 189 -74.5 t74 -216.5v-444q0 -55 7 -82t62 -27q16 0 27.5 2t21.5 2h7.5t3.5 -10q0 -2 -16.5 -4t-36 -3t-38 -2t-24.5 -1h-137v104q-68 -47 -127.5 -83.5t-120.5 -36.5q-63 0 -107.5 24.5t-73 59t-42 75.5t-13.5 76zM186 248q0 -41 18.5 -77t47.5 -64.5t62.5 -45t64.5 -16.5 q41 0 79 26.5t81 55.5v365q-55 -35 -108.5 -60.5t-104.5 -46.5q-47 -18 -75 -34.5t-42 -32t-18.5 -33t-4.5 -37.5zM301 1069l51 57l138 -147z" />
<glyph unicode="&#xe1;" horiz-adv-x="811" d="M55 219q0 47 29 81t109 62q63 20 107 37t82 33.5t74 34.5t83 45v49q0 29 -7.5 61.5t-27 59.5t-53 44t-89.5 17q-70 0 -117.5 -15t-92.5 -50q-18 -16 -32 -32.5t-20 -27.5q-10 -25 -16 -24q-6 0 -6 6q0 23 26.5 66t70.5 86t102.5 75.5t121.5 32.5q115 0 189 -74.5 t74 -216.5v-444q0 -55 7 -82t62 -27q16 0 27.5 2t21.5 2h7.5t3.5 -10q0 -2 -16.5 -4t-36 -3t-38 -2t-24.5 -1h-137v104q-68 -47 -127.5 -83.5t-120.5 -36.5q-63 0 -107.5 24.5t-73 59t-42 75.5t-13.5 76zM186 248q0 -41 18.5 -77t47.5 -64.5t62.5 -45t64.5 -16.5 q41 0 79 26.5t81 55.5v365q-55 -35 -108.5 -60.5t-104.5 -46.5q-47 -18 -75 -34.5t-42 -32t-18.5 -33t-4.5 -37.5zM301 979l138 147l51 -57z" />
<glyph unicode="&#xe2;" horiz-adv-x="811" d="M55 219q0 47 29 81t109 62q63 20 107 37t82 33.5t74 34.5t83 45v49q0 29 -7.5 61.5t-27 59.5t-53 44t-89.5 17q-70 0 -117.5 -15t-92.5 -50q-18 -16 -32 -32.5t-20 -27.5q-10 -25 -16 -24q-6 0 -6 6q0 23 26.5 66t70.5 86t102.5 75.5t121.5 32.5q115 0 189 -74.5 t74 -216.5v-444q0 -55 7 -82t62 -27q16 0 27.5 2t21.5 2h7.5t3.5 -10q0 -2 -16.5 -4t-36 -3t-38 -2t-24.5 -1h-137v104q-68 -47 -127.5 -83.5t-120.5 -36.5q-63 0 -107.5 24.5t-73 59t-42 75.5t-13.5 76zM186 248q0 -41 18.5 -77t47.5 -64.5t62.5 -45t64.5 -16.5 q41 0 79 26.5t81 55.5v365q-55 -35 -108.5 -60.5t-104.5 -46.5q-47 -18 -75 -34.5t-42 -32t-18.5 -33t-4.5 -37.5zM217 977l189 151l188 -151l-188 72z" />
<glyph unicode="&#xe3;" horiz-adv-x="811" d="M55 219q0 47 29 81t109 62q63 20 107 37t82 33.5t74 34.5t83 45v49q0 29 -7.5 61.5t-27 59.5t-53 44t-89.5 17q-70 0 -117.5 -15t-92.5 -50q-18 -16 -32 -32.5t-20 -27.5q-10 -25 -16 -24q-6 0 -6 6q0 23 26.5 66t70.5 86t102.5 75.5t121.5 32.5q115 0 189 -74.5 t74 -216.5v-444q0 -55 7 -82t62 -27q16 0 27.5 2t21.5 2h7.5t3.5 -10q0 -2 -16.5 -4t-36 -3t-38 -2t-24.5 -1h-137v104q-68 -47 -127.5 -83.5t-120.5 -36.5q-63 0 -107.5 24.5t-73 59t-42 75.5t-13.5 76zM186 248q0 -41 18.5 -77t47.5 -64.5t62.5 -45t64.5 -16.5 q41 0 79 26.5t81 55.5v365q-55 -35 -108.5 -60.5t-104.5 -46.5q-47 -18 -75 -34.5t-42 -32t-18.5 -33t-4.5 -37.5zM215 1030q0 8 6.5 26.5t18.5 35t31.5 30t46.5 13.5t51 -12.5t59 -35.5q41 -29 62.5 -38t44.5 -9t35 11.5t12 21.5q0 8 -1 14.5t-1 12.5q0 4 1 10t7 6 q10 0 10 -20q0 -8 -6 -25.5t-18.5 -36t-34 -32t-51.5 -13.5q-29 0 -57.5 16.5t-49.5 30.5q-41 29 -61.5 38t-40.5 9t-33.5 -9t-13.5 -27q0 -6 1 -12.5t1 -12.5q0 -14 -8 -14q-6 0 -8.5 9t-2.5 13z" />
<glyph unicode="&#xe4;" horiz-adv-x="811" d="M55 219q0 47 29 81t109 62q63 20 107 37t82 33.5t74 34.5t83 45v49q0 29 -7.5 61.5t-27 59.5t-53 44t-89.5 17q-70 0 -117.5 -15t-92.5 -50q-18 -16 -32 -32.5t-20 -27.5q-10 -25 -16 -24q-6 0 -6 6q0 23 26.5 66t70.5 86t102.5 75.5t121.5 32.5q115 0 189 -74.5 t74 -216.5v-444q0 -55 7 -82t62 -27q16 0 27.5 2t21.5 2h7.5t3.5 -10q0 -2 -16.5 -4t-36 -3t-38 -2t-24.5 -1h-137v104q-68 -47 -127.5 -83.5t-120.5 -36.5q-63 0 -107.5 24.5t-73 59t-42 75.5t-13.5 76zM186 248q0 -41 18.5 -77t47.5 -64.5t62.5 -45t64.5 -16.5 q41 0 79 26.5t81 55.5v365q-55 -35 -108.5 -60.5t-104.5 -46.5q-47 -18 -75 -34.5t-42 -32t-18.5 -33t-4.5 -37.5zM213 1053l74 75l76 -75l-76 -74zM451 1049l74 75l75 -75l-75 -74z" />
<glyph unicode="&#xe5;" horiz-adv-x="811" d="M55 219q0 47 29 81t109 62q63 20 107 37t82 33.5t74 34.5t83 45v49q0 29 -7.5 61.5t-27 59.5t-53 44t-89.5 17q-70 0 -117.5 -15t-92.5 -50q-18 -16 -32 -32.5t-20 -27.5q-10 -25 -16 -24q-6 0 -6 6q0 23 26.5 66t70.5 86t102.5 75.5t121.5 32.5q115 0 189 -74.5 t74 -216.5v-444q0 -55 7 -82t62 -27q16 0 27.5 2t21.5 2h7.5t3.5 -10q0 -2 -16.5 -4t-36 -3t-38 -2t-24.5 -1h-137v104q-68 -47 -127.5 -83.5t-120.5 -36.5q-63 0 -107.5 24.5t-73 59t-42 75.5t-13.5 76zM186 248q0 -41 18.5 -77t47.5 -64.5t62.5 -45t64.5 -16.5 q41 0 79 26.5t81 55.5v365q-55 -35 -108.5 -60.5t-104.5 -46.5q-47 -18 -75 -34.5t-42 -32t-18.5 -33t-4.5 -37.5zM307 1065q0 41 29 69.5t70 28.5t69.5 -28.5t28.5 -69.5t-28.5 -69.5t-69.5 -28.5t-70 28.5t-29 69.5zM348 1065q0 -23 17.5 -40t40.5 -17t40 17t17 40 t-17.5 40t-39.5 17q-23 0 -40.5 -17.5t-17.5 -39.5z" />
<glyph unicode="&#xe6;" horiz-adv-x="1275" d="M70 215q0 49 36.5 82t104.5 57q49 18 86 30.5t68.5 25t62.5 27t70 34.5l61 33v39q0 55 -18.5 93t-48 62.5t-66.5 34.5t-76 10q-35 0 -59.5 -4t-45 -11t-39 -19.5t-40.5 -30.5q-18 -16 -31.5 -32.5t-19.5 -27.5q-10 -25 -17 -24q-4 0 -8 2t-4 10q0 12 25.5 53t69.5 85 t103.5 80t129.5 36q111 0 173 -56t85 -134q10 29 35.5 62.5t61.5 62t81 47t94 18.5q57 0 106.5 -22.5t88.5 -62.5t67.5 -92t48.5 -114l-575 -127q14 -92 44 -157.5t72 -107.5t93 -61.5t106 -19.5q57 0 99.5 14.5t71 36t45 49t22.5 52.5q4 12 7 14t9 2q4 0 5 -5t-5 -26 q-16 -55 -49 -101t-74 -79t-88 -51t-94 -18q-31 0 -66.5 7t-71.5 27.5t-72 56.5t-68 93q-88 -61 -143.5 -98t-93.5 -56.5t-67.5 -24.5t-64.5 -5q-66 0 -110 26.5t-69.5 64.5t-36.5 76.5t-11 63.5zM203 242q0 -43 21.5 -79t52 -62.5t64.5 -42t58 -15.5q31 0 75 25.5t85 58.5 v350q-33 -20 -59.5 -34.5t-54 -28t-61.5 -27.5t-81 -33q-66 -27 -83 -53.5t-17 -58.5zM678 479l442 96q-12 39 -32.5 75t-48 63.5t-61.5 44t-75 16.5q-61 0 -106 -28.5t-73 -71.5t-39 -95.5t-7 -99.5z" />
<glyph unicode="&#xe7;" horiz-adv-x="811" d="M43 375q0 86 43 173t112.5 155.5t156.5 112.5t177 44q23 0 69 -6t99 -39q8 -35 4 -68.5t-4 -72.5q0 -12 1 -47t1 -49v-34.5t-14 -11.5q-10 0 -10 19q0 14 1 29.5t1 25.5q0 29 -11.5 53.5t-25.5 36.5q-25 23 -77 43.5t-126 20.5q-96 0 -153.5 -34t-88 -81t-41 -97 t-10.5 -83q0 -76 30 -145.5t82 -122t125 -83t161 -30.5q78 0 115.5 20.5t58.5 36.5q12 8 18 21.5t11.5 26t10.5 21.5t13 9q10 0 6 -10q-27 -59 -55.5 -98t-65 -65t-83 -40t-105.5 -22q-8 -16 -12 -25.5t-11 -21.5q43 6 73 -2.5t46.5 -23.5t23.5 -35.5t7 -39.5 q0 -47 -34 -68.5t-62 -21.5q-41 0 -70 10.5t-41 16.5t-26.5 14t-14.5 12t8 4q10 0 28.5 -8t47.5 -8q88 0 88 53q0 35 -24.5 52.5t-96.5 5.5q12 29 18.5 46t14.5 42q-84 2 -155.5 35.5t-124 88t-81 124t-28.5 141.5z" />
<glyph unicode="&#xe8;" horiz-adv-x="874" d="M51 424q0 96 38 177t99.5 138.5t136 89t148.5 31.5q10 0 54 -4t100.5 -31.5t113 -86t90.5 -167.5l-694 -127q12 -92 52 -157.5t96.5 -107.5t121 -62.5t125.5 -20.5q76 0 125.5 14.5t75.5 32.5q37 25 57.5 47.5t30.5 39t13.5 25.5t7.5 9t10 -1t2 -9q-14 -35 -46 -82 t-80 -89t-113.5 -70.5t-145.5 -28.5q-106 0 -184 39.5t-130.5 103t-78 141.5t-25.5 156zM133 481l539 99q-12 35 -35 68.5t-56.5 60t-77.5 43t-100 16.5q-66 0 -119 -23.5t-88.5 -63.5t-52 -91t-10.5 -109zM331 1069l51 57l138 -147z" />
<glyph unicode="&#xe9;" horiz-adv-x="874" d="M51 424q0 96 38 177t99.5 138.5t136 89t148.5 31.5q10 0 54 -4t100.5 -31.5t113 -86t90.5 -167.5l-694 -127q12 -92 52 -157.5t96.5 -107.5t121 -62.5t125.5 -20.5q76 0 125.5 14.5t75.5 32.5q37 25 57.5 47.5t30.5 39t13.5 25.5t7.5 9t10 -1t2 -9q-14 -35 -46 -82 t-80 -89t-113.5 -70.5t-145.5 -28.5q-106 0 -184 39.5t-130.5 103t-78 141.5t-25.5 156zM133 481l539 99q-12 35 -35 68.5t-56.5 60t-77.5 43t-100 16.5q-66 0 -119 -23.5t-88.5 -63.5t-52 -91t-10.5 -109zM331 979l138 147l51 -57z" />
<glyph unicode="&#xea;" horiz-adv-x="874" d="M51 424q0 96 38 177t99.5 138.5t136 89t148.5 31.5q10 0 54 -4t100.5 -31.5t113 -86t90.5 -167.5l-694 -127q12 -92 52 -157.5t96.5 -107.5t121 -62.5t125.5 -20.5q76 0 125.5 14.5t75.5 32.5q37 25 57.5 47.5t30.5 39t13.5 25.5t7.5 9t10 -1t2 -9q-14 -35 -46 -82 t-80 -89t-113.5 -70.5t-145.5 -28.5q-106 0 -184 39.5t-130.5 103t-78 141.5t-25.5 156zM133 481l539 99q-12 35 -35 68.5t-56.5 60t-77.5 43t-100 16.5q-66 0 -119 -23.5t-88.5 -63.5t-52 -91t-10.5 -109zM247 977l189 151l188 -151l-188 72z" />
<glyph unicode="&#xeb;" horiz-adv-x="874" d="M51 424q0 96 38 177t99.5 138.5t136 89t148.5 31.5q10 0 54 -4t100.5 -31.5t113 -86t90.5 -167.5l-694 -127q12 -92 52 -157.5t96.5 -107.5t121 -62.5t125.5 -20.5q76 0 125.5 14.5t75.5 32.5q37 25 57.5 47.5t30.5 39t13.5 25.5t7.5 9t10 -1t2 -9q-14 -35 -46 -82 t-80 -89t-113.5 -70.5t-145.5 -28.5q-106 0 -184 39.5t-130.5 103t-78 141.5t-25.5 156zM133 481l539 99q-12 35 -35 68.5t-56.5 60t-77.5 43t-100 16.5q-66 0 -119 -23.5t-88.5 -63.5t-52 -91t-10.5 -109zM243 1053l74 75l76 -75l-76 -74zM481 1049l74 75l75 -75l-75 -74z " />
<glyph unicode="&#xec;" horiz-adv-x="491" d="M39 0q0 14 12 14q10 0 21.5 -1t17.5 -1q39 0 59.5 9.5t28.5 28t8 47v67.5v485q0 33 -5 54.5t-34 21.5q-10 0 -21 -6t-22 -10q-14 -8 -20 -9q-8 0 -4 15q2 4 18.5 12t22.5 12q100 57 192 129q-4 -33 -5 -54t-2 -37.5t-1 -33v-38.5v-553q0 -25 2 -50.5t10.5 -45t24.5 -32 t45 -12.5q16 0 30.5 2t26.5 2q10 0 11 -12q0 -6 -9.5 -8t-39.5 -2q-10 0 -35 1t-49 3q-25 0 -45.5 1t-24.5 1q-10 0 -33.5 -1t-50.5 -1q-27 -2 -49.5 -3t-32.5 -1q-29 0 -38 1t-9 5zM143 1069l51 57l138 -147z" />
<glyph unicode="&#xed;" horiz-adv-x="491" d="M39 0q0 14 12 14q10 0 21.5 -1t17.5 -1q39 0 59.5 9.5t28.5 28t8 47v67.5v485q0 33 -5 54.5t-34 21.5q-10 0 -21 -6t-22 -10q-14 -8 -20 -9q-8 0 -4 15q2 4 18.5 12t22.5 12q100 57 192 129q-4 -33 -5 -54t-2 -37.5t-1 -33v-38.5v-553q0 -25 2 -50.5t10.5 -45t24.5 -32 t45 -12.5q16 0 30.5 2t26.5 2q10 0 11 -12q0 -6 -9.5 -8t-39.5 -2q-10 0 -35 1t-49 3q-25 0 -45.5 1t-24.5 1q-10 0 -33.5 -1t-50.5 -1q-27 -2 -49.5 -3t-32.5 -1q-29 0 -38 1t-9 5zM143 979l138 147l51 -57z" />
<glyph unicode="&#xee;" horiz-adv-x="491" d="M39 0q0 14 12 14q10 0 21.5 -1t17.5 -1q39 0 59.5 9.5t28.5 28t8 47v67.5v485q0 33 -5 54.5t-34 21.5q-10 0 -21 -6t-22 -10q-14 -8 -20 -9q-8 0 -4 15q2 4 18.5 12t22.5 12q100 57 192 129q-4 -33 -5 -54t-2 -37.5t-1 -33v-38.5v-553q0 -25 2 -50.5t10.5 -45t24.5 -32 t45 -12.5q16 0 30.5 2t26.5 2q10 0 11 -12q0 -6 -9.5 -8t-39.5 -2q-10 0 -35 1t-49 3q-25 0 -45.5 1t-24.5 1q-10 0 -33.5 -1t-50.5 -1q-27 -2 -49.5 -3t-32.5 -1q-29 0 -38 1t-9 5zM59 977l189 151l188 -151l-188 72z" />
<glyph unicode="&#xef;" horiz-adv-x="491" d="M39 0q0 14 12 14q10 0 21.5 -1t17.5 -1q39 0 59.5 9.5t28.5 28t8 47v67.5v485q0 33 -5 54.5t-34 21.5q-10 0 -21 -6t-22 -10q-14 -8 -20 -9q-8 0 -4 15q2 4 18.5 12t22.5 12q100 57 192 129q-4 -33 -5 -54t-2 -37.5t-1 -33v-38.5v-553q0 -25 2 -50.5t10.5 -45t24.5 -32 t45 -12.5q16 0 30.5 2t26.5 2q10 0 11 -12q0 -6 -9.5 -8t-39.5 -2q-10 0 -35 1t-49 3q-25 0 -45.5 1t-24.5 1q-10 0 -33.5 -1t-50.5 -1q-27 -2 -49.5 -3t-32.5 -1q-29 0 -38 1t-9 5zM55 1053l74 75l76 -75l-76 -74zM293 1049l74 75l75 -75l-75 -74z" />
<glyph unicode="&#xf0;" horiz-adv-x="968" d="M47 377q0 92 45 181t116 158.5t158 112.5t169 43q47 0 84.5 -11t82.5 -27q-16 31 -33.5 64.5t-41 70.5t-55 79t-76.5 93l-179 -152l-36 47l174 150q-45 43 -87 77.5t-92 34.5q-12 0 -29.5 -9t-33.5 -19q-10 -8 -15 -11.5t-16 -11.5q-23 -14 -30 -14q-6 0 -7 8 q0 4 25 20.5t43 30.5q8 4 49 38t100 83q70 -51 107 -83t74 -68l176 151l37 -53l-170 -143q90 -102 153.5 -193.5t103.5 -175.5t58.5 -166t18.5 -168q0 -123 -44.5 -220t-114 -167t-155.5 -106.5t-168 -36.5q-88 0 -159.5 34.5t-123 90t-80 126t-28.5 142.5zM152 471 q0 -88 32.5 -159.5t87 -122t124 -78t145.5 -27.5q53 0 104 18.5t91 54.5t64.5 90t24.5 126q0 84 -30.5 154.5t-83 122.5t-123 81t-150.5 29q-94 0 -150.5 -34t-87 -80t-39.5 -95t-9 -80z" />
<glyph unicode="&#xf1;" horiz-adv-x="960" d="M20 723q0 4 18.5 13t35.5 18q31 14 69.5 29.5t55.5 25.5q49 27 64.5 37t29.5 24q-2 -18 -3 -45.5t-2 -52t-2 -43t-1 -20.5q25 25 54.5 52t63 48.5t73.5 36t89 14.5q41 0 85 -14.5t80 -52t59.5 -102t23.5 -165.5v-395q0 -59 15.5 -88t39.5 -29q4 0 20.5 1t31.5 1 q8 0 8 -12q0 -8 -27 -8q-8 0 -27.5 1t-41 1t-40 1t-26.5 1q-10 0 -32.5 -1t-47 -1t-47.5 -1t-31 -1q-10 0 -16 1t-6 11q0 8 12 8q14 0 21.5 -1t11.5 -1q35 0 49 30t14 120v346q0 43 -8 87t-32.5 80t-67.5 57.5t-111 21.5q-70 0 -115 -21.5t-75 -54.5v-537q0 -47 18.5 -89 t58.5 -42l29 4q6 0 6 -6q0 -10 -7 -12t-17 -2q-8 0 -29.5 1t-44.5 1t-43 1t-29 1q-8 0 -29.5 -1t-46 -1t-45 -1t-28.5 -1q-6 0 -14.5 3t-6.5 13q0 4 6 4q2 0 11.5 -2t13.5 -2q47 0 62.5 36t15.5 79v524q0 53 -13.5 75t-35.5 22q-16 0 -26.5 -4.5t-27.5 -12.5q-14 -6 -21 -10 t-17 -4q-4 0 -5 6zM288 1030q0 8 6.5 26.5t18.5 35t31.5 30t46.5 13.5t51 -12.5t59 -35.5q41 -29 62.5 -38t44.5 -9t35 11.5t12 21.5q0 8 -1 14.5t-1 12.5q0 4 1 10t7 6q10 0 10 -20q0 -8 -6 -25.5t-18.5 -36t-34 -32t-51.5 -13.5q-29 0 -57.5 16.5t-49.5 30.5 q-41 29 -61.5 38t-40.5 9t-33.5 -9t-13.5 -27q0 -6 1 -12.5t1 -12.5q0 -14 -8 -14q-6 0 -8.5 9t-2.5 13z" />
<glyph unicode="&#xf2;" d="M47 377q0 86 43 173t112.5 155.5t156.5 111.5t178 43q80 0 150.5 -30.5t124.5 -83t86 -123t32 -152.5t-40 -169t-107.5 -157.5t-156.5 -115.5t-186 -45q-84 0 -155.5 33.5t-123.5 89t-83 126t-31 144.5zM152 471q0 -88 32.5 -159.5t87 -122t124 -78t145.5 -27.5 q53 0 104 18.5t91 54.5t64.5 90t24.5 126q0 84 -30.5 154.5t-83 122.5t-123 81t-150.5 29q-94 0 -150.5 -34t-87 -80t-39.5 -95t-9 -80zM385 1069l51 57l138 -147z" />
<glyph unicode="&#xf3;" d="M47 377q0 86 43 173t112.5 155.5t156.5 111.5t178 43q80 0 150.5 -30.5t124.5 -83t86 -123t32 -152.5t-40 -169t-107.5 -157.5t-156.5 -115.5t-186 -45q-84 0 -155.5 33.5t-123.5 89t-83 126t-31 144.5zM152 471q0 -88 32.5 -159.5t87 -122t124 -78t145.5 -27.5 q53 0 104 18.5t91 54.5t64.5 90t24.5 126q0 84 -30.5 154.5t-83 122.5t-123 81t-150.5 29q-94 0 -150.5 -34t-87 -80t-39.5 -95t-9 -80zM385 979l138 147l51 -57z" />
<glyph unicode="&#xf4;" d="M47 377q0 86 43 173t112.5 155.5t156.5 111.5t178 43q80 0 150.5 -30.5t124.5 -83t86 -123t32 -152.5t-40 -169t-107.5 -157.5t-156.5 -115.5t-186 -45q-84 0 -155.5 33.5t-123.5 89t-83 126t-31 144.5zM152 471q0 -88 32.5 -159.5t87 -122t124 -78t145.5 -27.5 q53 0 104 18.5t91 54.5t64.5 90t24.5 126q0 84 -30.5 154.5t-83 122.5t-123 81t-150.5 29q-94 0 -150.5 -34t-87 -80t-39.5 -95t-9 -80zM301 977l189 151l188 -151l-188 72z" />
<glyph unicode="&#xf5;" d="M47 377q0 86 43 173t112.5 155.5t156.5 111.5t178 43q80 0 150.5 -30.5t124.5 -83t86 -123t32 -152.5t-40 -169t-107.5 -157.5t-156.5 -115.5t-186 -45q-84 0 -155.5 33.5t-123.5 89t-83 126t-31 144.5zM152 471q0 -88 32.5 -159.5t87 -122t124 -78t145.5 -27.5 q53 0 104 18.5t91 54.5t64.5 90t24.5 126q0 84 -30.5 154.5t-83 122.5t-123 81t-150.5 29q-94 0 -150.5 -34t-87 -80t-39.5 -95t-9 -80zM299 1030q0 8 6.5 26.5t18.5 35t31.5 30t46.5 13.5t51 -12.5t59 -35.5q41 -29 62.5 -38t44.5 -9t35 11.5t12 21.5q0 8 -1 14.5t-1 12.5 q0 4 1 10t7 6q10 0 10 -20q0 -8 -6 -25.5t-18.5 -36t-34 -32t-51.5 -13.5q-29 0 -57.5 16.5t-49.5 30.5q-41 29 -61.5 38t-40.5 9t-33.5 -9t-13.5 -27q0 -6 1 -12.5t1 -12.5q0 -14 -8 -14q-6 0 -8.5 9t-2.5 13z" />
<glyph unicode="&#xf6;" d="M47 377q0 86 43 173t112.5 155.5t156.5 111.5t178 43q80 0 150.5 -30.5t124.5 -83t86 -123t32 -152.5t-40 -169t-107.5 -157.5t-156.5 -115.5t-186 -45q-84 0 -155.5 33.5t-123.5 89t-83 126t-31 144.5zM152 471q0 -88 32.5 -159.5t87 -122t124 -78t145.5 -27.5 q53 0 104 18.5t91 54.5t64.5 90t24.5 126q0 84 -30.5 154.5t-83 122.5t-123 81t-150.5 29q-94 0 -150.5 -34t-87 -80t-39.5 -95t-9 -80zM297 1053l74 75l76 -75l-76 -74zM535 1049l74 75l75 -75l-75 -74z" />
<glyph unicode="&#xf7;" horiz-adv-x="1003" d="M127 530v74h747v-74h-747zM451 279q0 20 14 34.5t37 14.5q20 0 34.5 -14.5t14.5 -34.5q0 -23 -14.5 -37.5t-34.5 -14.5q-23 0 -37 14.5t-14 37.5zM451 856q0 23 14 37t37 14q20 0 34.5 -14t14.5 -37q0 -20 -14.5 -34.5t-34.5 -14.5q-23 0 -37 14.5t-14 34.5z" />
<glyph unicode="&#xf8;" d="M47 377q0 86 42 172t111.5 155.5t156.5 112.5t178 43q12 0 36.5 -1t58.5 -8t73.5 -23.5t82.5 -49.5l68 72h80l-103 -113q39 -45 59.5 -88t30 -78.5t11.5 -62.5t2 -37q0 -84 -41 -170t-109.5 -156.5t-157.5 -115.5t-184 -45q-47 0 -83.5 9t-65.5 21.5t-50.5 26.5t-37.5 27 l-62 -68h-82l99 106q-51 55 -82 125t-31 146zM152 475q0 -154 102 -268l436 469q-18 14 -40.5 28.5t-52.5 26.5t-67.5 20.5t-89.5 8.5q-92 0 -148 -32t-88 -76t-42 -93t-10 -84zM299 168q12 -10 33.5 -23.5t52.5 -28t70 -23.5t88 -9q55 0 105 17.5t90 52t63.5 90t23.5 129.5 t-22.5 139.5t-69.5 120.5z" />
<glyph unicode="&#xf9;" d="M10 719q0 6 26.5 18.5t55.5 28.5q33 16 71 38.5t109 63.5q-4 -55 -4 -92v-76v-419q0 -96 53.5 -143.5t127.5 -47.5q55 0 95 11.5t68.5 30t48 41t33.5 42.5v432q0 53 -12 77t-43 24q-8 0 -24.5 -4.5t-32.5 -14.5t-25 -10q-8 0 -8 8q0 4 10 8t37 21q45 27 103.5 55.5 t117.5 56.5q-2 -68 -3 -98.5t-1 -49v-38.5v-68v-421q0 -53 4 -88t15.5 -55.5t28 -29t40.5 -8.5q12 0 22.5 1t26.5 1q10 0 11 -8q0 -10 -56 -10q-6 0 -21.5 1t-32.5 1t-32.5 1t-23.5 1h-35t-72 -4q2 35 3 57.5t2 41t1 40v51.5q-31 -41 -59.5 -76.5t-62 -64.5t-74.5 -45 t-95 -16q-37 0 -80.5 12t-81.5 43t-64.5 84t-26.5 135v371q0 57 -11.5 81.5t-52.5 24.5q-12 0 -23.5 -4t-23.5 -10q-16 -8 -21 -8q-8 0 -8 6zM385 1069l51 57l138 -147z" />
<glyph unicode="&#xfa;" d="M10 719q0 6 26.5 18.5t55.5 28.5q33 16 71 38.5t109 63.5q-4 -55 -4 -92v-76v-419q0 -96 53.5 -143.5t127.5 -47.5q55 0 95 11.5t68.5 30t48 41t33.5 42.5v432q0 53 -12 77t-43 24q-8 0 -24.5 -4.5t-32.5 -14.5t-25 -10q-8 0 -8 8q0 4 10 8t37 21q45 27 103.5 55.5 t117.5 56.5q-2 -68 -3 -98.5t-1 -49v-38.5v-68v-421q0 -53 4 -88t15.5 -55.5t28 -29t40.5 -8.5q12 0 22.5 1t26.5 1q10 0 11 -8q0 -10 -56 -10q-6 0 -21.5 1t-32.5 1t-32.5 1t-23.5 1h-35t-72 -4q2 35 3 57.5t2 41t1 40v51.5q-31 -41 -59.5 -76.5t-62 -64.5t-74.5 -45 t-95 -16q-37 0 -80.5 12t-81.5 43t-64.5 84t-26.5 135v371q0 57 -11.5 81.5t-52.5 24.5q-12 0 -23.5 -4t-23.5 -10q-16 -8 -21 -8q-8 0 -8 6zM385 979l138 147l51 -57z" />
<glyph unicode="&#xfb;" d="M10 719q0 6 26.5 18.5t55.5 28.5q33 16 71 38.5t109 63.5q-4 -55 -4 -92v-76v-419q0 -96 53.5 -143.5t127.5 -47.5q55 0 95 11.5t68.5 30t48 41t33.5 42.5v432q0 53 -12 77t-43 24q-8 0 -24.5 -4.5t-32.5 -14.5t-25 -10q-8 0 -8 8q0 4 10 8t37 21q45 27 103.5 55.5 t117.5 56.5q-2 -68 -3 -98.5t-1 -49v-38.5v-68v-421q0 -53 4 -88t15.5 -55.5t28 -29t40.5 -8.5q12 0 22.5 1t26.5 1q10 0 11 -8q0 -10 -56 -10q-6 0 -21.5 1t-32.5 1t-32.5 1t-23.5 1h-35t-72 -4q2 35 3 57.5t2 41t1 40v51.5q-31 -41 -59.5 -76.5t-62 -64.5t-74.5 -45 t-95 -16q-37 0 -80.5 12t-81.5 43t-64.5 84t-26.5 135v371q0 57 -11.5 81.5t-52.5 24.5q-12 0 -23.5 -4t-23.5 -10q-16 -8 -21 -8q-8 0 -8 6zM301 977l189 151l188 -151l-188 72z" />
<glyph unicode="&#xfc;" d="M10 719q0 6 26.5 18.5t55.5 28.5q33 16 71 38.5t109 63.5q-4 -55 -4 -92v-76v-419q0 -96 53.5 -143.5t127.5 -47.5q55 0 95 11.5t68.5 30t48 41t33.5 42.5v432q0 53 -12 77t-43 24q-8 0 -24.5 -4.5t-32.5 -14.5t-25 -10q-8 0 -8 8q0 4 10 8t37 21q45 27 103.5 55.5 t117.5 56.5q-2 -68 -3 -98.5t-1 -49v-38.5v-68v-421q0 -53 4 -88t15.5 -55.5t28 -29t40.5 -8.5q12 0 22.5 1t26.5 1q10 0 11 -8q0 -10 -56 -10q-6 0 -21.5 1t-32.5 1t-32.5 1t-23.5 1h-35t-72 -4q2 35 3 57.5t2 41t1 40v51.5q-31 -41 -59.5 -76.5t-62 -64.5t-74.5 -45 t-95 -16q-37 0 -80.5 12t-81.5 43t-64.5 84t-26.5 135v371q0 57 -11.5 81.5t-52.5 24.5q-12 0 -23.5 -4t-23.5 -10q-16 -8 -21 -8q-8 0 -8 6zM297 1053l74 75l76 -75l-76 -74zM535 1049l74 75l75 -75l-75 -74z" />
<glyph unicode="&#xfd;" horiz-adv-x="1044" d="M2 838q0 4 11.5 6t27.5 2q29 0 53.5 -1t55.5 -1q14 0 41.5 1t56 1t52.5 1t34 1q35 0 45 -5t10 -12q0 -6 -12 -6q-6 0 -19.5 2t-25.5 2q-41 0 -45 -31.5t18 -82.5l244 -520l260 548q18 39 6 63.5t-63 24.5q-4 0 -16.5 -3t-22.5 -3q-8 0 -8 11q0 14 38 14q8 0 25.5 -1 t36 -2t34 -2t19.5 -1q16 0 41 1t49.5 1t45 1t26.5 1q33 0 33 -10t-15 -11q-6 0 -21.5 2t-27.5 2q-18 0 -56 -24.5t-65 -81.5l-450 -965q-18 -37 -45 -78.5t-64 -75.5t-83 -56.5t-103 -22.5q-37 0 -65.5 8t-49.5 16q8 29 14.5 56.5t10.5 70.5q25 -16 44 -23t58 -7t72 8 t64.5 32.5t62.5 68.5t65 116l93 197l-310 635q-27 53 -63.5 87.5t-71.5 34.5q-8 0 -18.5 -1t-16.5 -1q-10 0 -10 13zM418 979l138 147l51 -57z" />
<glyph unicode="&#xfe;" horiz-adv-x="966" d="M31 1292q0 6 20 15q16 6 47 20t65 29.5t65.5 31t47.5 25.5v-622q35 23 88.5 46t143.5 23q96 0 173 -32.5t129 -87t80 -124t28 -145.5q0 -88 -33 -175t-90.5 -156.5t-138.5 -112.5t-175 -43q-35 0 -92 12t-110 45v-414v2q0 -41 16 -55t35 -14q35 0 65 14q10 4 21.5 10 t15.5 6q12 0 12 -12t-43 -30.5t-90 -43.5q-20 -10 -36.5 -19t-35 -19.5t-40 -23.5t-49.5 -32q2 41 4 72t3 57.5t1 53v63.5v1522q0 72 -6.5 97t-30.5 25q-33 0 -51 -8t-33 -8q-6 0 -6 8zM279 188q66 -47 136 -79.5t152 -32.5q35 0 81 14t88 46t71 83t29 125q0 82 -37 163 t-95.5 144.5t-132 102.5t-149.5 39q-55 0 -90 -13.5t-53 -25.5v-566z" />
<glyph unicode="&#xff;" horiz-adv-x="1044" d="M2 838q0 4 11.5 6t27.5 2q29 0 53.5 -1t55.5 -1q14 0 41.5 1t56 1t52.5 1t34 1q35 0 45 -5t10 -12q0 -6 -12 -6q-6 0 -19.5 2t-25.5 2q-41 0 -45 -31.5t18 -82.5l244 -520l260 548q18 39 6 63.5t-63 24.5q-4 0 -16.5 -3t-22.5 -3q-8 0 -8 11q0 14 38 14q8 0 25.5 -1 t36 -2t34 -2t19.5 -1q16 0 41 1t49.5 1t45 1t26.5 1q33 0 33 -10t-15 -11q-6 0 -21.5 2t-27.5 2q-18 0 -56 -24.5t-65 -81.5l-450 -965q-18 -37 -45 -78.5t-64 -75.5t-83 -56.5t-103 -22.5q-37 0 -65.5 8t-49.5 16q8 29 14.5 56.5t10.5 70.5q25 -16 44 -23t58 -7t72 8 t64.5 32.5t62.5 68.5t65 116l93 197l-310 635q-27 53 -63.5 87.5t-71.5 34.5q-8 0 -18.5 -1t-16.5 -1q-10 0 -10 13zM330 1053l74 75l76 -75l-76 -74zM568 1049l74 75l75 -75l-75 -74z" />
<glyph unicode="&#x152;" horiz-adv-x="1515" d="M66 666q0 129 46 253.5t128 223t195.5 158t248.5 59.5q23 0 44.5 -1t39.5 -3q20 -2 37.5 -3t34.5 -1h577v-215q0 -29 -2 -35t-8 -6t-6 16v53q0 18 -5 37t-20.5 34t-42 24.5t-71.5 9.5h-361v-527h346q37 0 58.5 12.5t33 30t15.5 33t4 21.5v43q0 16 8 16q4 0 6 -3t2 -22 q0 -41 -3 -71.5t-3 -71.5q0 -12 1 -38.5t3 -55.5t3 -54.5t1 -35.5q0 -6 -1 -17.5t-9 -11.5t-8 8q0 6 1 22.5t-3 41.5q-8 45 -38 62.5t-116 17.5h-301v-459q0 -63 20.5 -92t94.5 -29h297q53 0 86 16.5t43 43.5q8 23 12 38t12 15t9 -8q0 -4 -8.5 -26t-16.5 -42 q-10 -29 -18.5 -56.5t-18.5 -70.5h-539q-16 0 -42.5 -1t-55.5 -3t-53.5 -3t-40.5 -1q-135 0 -249 54t-194.5 147.5t-126.5 215t-46 257.5zM231 717q0 -139 27 -242.5t70 -177.5t96 -121t105.5 -74.5t99.5 -38t76 -10.5q14 0 23 2t14.5 14.5t6.5 37t1 69.5v1034 q0 43 -8.5 57.5t-49.5 14.5q-111 0 -196.5 -48t-144 -127t-89.5 -181.5t-31 -208.5z" />
<glyph unicode="&#x153;" horiz-adv-x="1343" d="M47 375q0 78 32 164t86 157.5t124.5 117.5t148.5 46q66 0 114 -24.5t83 -59.5t57.5 -72.5t38.5 -66.5q23 59 54.5 101t68.5 70t75 40t75 12q80 0 135 -34.5t91 -83t55.5 -97.5t29.5 -80l-565 -123q14 -96 45.5 -162.5t73.5 -107.5t92.5 -58.5t103.5 -17.5q57 0 99 16.5 t70 40t43 50t21 47.5q4 10 7.5 12t7.5 2q8 0 10 -5t-6 -23q-18 -47 -48 -92.5t-69 -80t-86 -57t-100 -22.5q-33 0 -72 8t-81 35.5t-83 78t-78 134.5q-18 -31 -47.5 -75t-71.5 -84t-95.5 -68.5t-120.5 -28.5q-70 0 -128.5 33.5t-100.5 89t-65.5 126t-23.5 142.5zM131 469 q0 -92 28.5 -164t74 -121t99.5 -75.5t103 -26.5q43 0 85 15.5t77 50t56.5 90t21.5 137.5q0 72 -22.5 140.5t-63.5 122.5t-98.5 88t-126.5 34q-59 0 -102.5 -23.5t-73 -63.5t-44 -93.5t-14.5 -110.5zM752 477l440 96q-6 18 -21.5 52t-40 66t-62.5 56.5t-89 24.5 q-55 0 -99 -23.5t-74 -63.5t-44 -93t-10 -115z" />
<glyph unicode="&#x178;" horiz-adv-x="1429" d="M0 1348q0 10 16.5 10h32.5q12 0 45 -1t72 -1q39 -2 72.5 -3t50.5 -1q12 0 37.5 1t53.5 3t50.5 3t30.5 1q14 0 28.5 -1t14.5 -7q0 -10 -5 -11.5t-10 -1.5q-10 0 -22 2t-27 2q-23 0 -28.5 -9t-5.5 -21q0 -27 100 -158q16 -20 55 -69.5t82 -102.5t80 -101t51 -67l322 406 q10 12 24.5 36.5t14.5 42.5q0 16 -8.5 25.5t-18.5 13.5t-20.5 4h-16.5q-10 0 -20.5 -1t-16.5 -1t-6 9q0 6 19.5 8t29.5 2q16 0 32.5 -1t35.5 -3q18 -2 37.5 -3t38.5 -1q12 0 35.5 1t50.5 5q27 2 51 3t37 1q25 0 24 -10q0 -6 -10 -6h-14q-47 0 -78 -9.5t-66 -44.5 q-10 -10 -40.5 -47t-71.5 -89t-88 -111.5t-91.5 -113.5t-79 -99.5t-51.5 -65.5v-600q0 -55 9.5 -86t26 -46.5t36 -19.5t41.5 -4q16 0 35.5 3t32.5 3q10 0 10 -8q0 -14 -31 -14q-18 0 -49 1t-66 3q-35 0 -65.5 1t-52.5 1q-27 0 -60.5 -1t-68.5 -1q-35 -2 -62.5 -3t-44.5 -1 q-27 0 -26 14q0 8 10 8q8 0 23.5 -3t27.5 -3q45 0 70.5 8.5t38 33t15.5 70.5t3 120v473q-20 25 -55 68.5t-76 96t-85 107.5l-82 102.5t-65.5 82t-37.5 47.5q-33 41 -59.5 65.5t-50.5 36.5t-44.5 16t-42.5 4q-16 0 -36.5 -3t-37.5 -3q-8 0 -9 4t-1 9zM563 1522l74 75l76 -75 l-76 -74zM801 1518l74 75l75 -75l-75 -74z" />
<glyph unicode="&#x2c6;" horiz-adv-x="747" d="M184 977l189 151l188 -151l-188 72z" />
<glyph unicode="&#x2dc;" horiz-adv-x="747" d="M182 1030q0 8 6.5 26.5t18.5 35t31.5 30t46.5 13.5t51 -12.5t59 -35.5q41 -29 62.5 -38t44.5 -9t35 11.5t12 21.5q0 8 -1 14.5t-1 12.5q0 4 1 10t7 6q10 0 10 -20q0 -8 -6 -25.5t-18.5 -36t-34 -32t-51.5 -13.5q-29 0 -57.5 16.5t-49.5 30.5q-41 29 -61.5 38t-40.5 9 t-33.5 -9t-13.5 -27q0 -6 1 -12.5t1 -12.5q0 -14 -8 -14q-6 0 -8.5 9t-2.5 13z" />
<glyph unicode="&#x2000;" horiz-adv-x="816" />
<glyph unicode="&#x2001;" horiz-adv-x="1632" />
<glyph unicode="&#x2002;" horiz-adv-x="816" />
<glyph unicode="&#x2003;" horiz-adv-x="1632" />
<glyph unicode="&#x2004;" horiz-adv-x="544" />
<glyph unicode="&#x2005;" horiz-adv-x="408" />
<glyph unicode="&#x2006;" horiz-adv-x="272" />
<glyph unicode="&#x2007;" horiz-adv-x="272" />
<glyph unicode="&#x2008;" horiz-adv-x="204" />
<glyph unicode="&#x2009;" horiz-adv-x="326" />
<glyph unicode="&#x200a;" horiz-adv-x="90" />
<glyph unicode="&#x2010;" horiz-adv-x="724" d="M45 313q0 2 9 15.5t20.5 30t21.5 30.5t15 19q23 35 36.5 50t42.5 15q23 0 76 -2t112.5 -3t112 -3t72.5 -2q41 0 70 13t31 42q2 16 3 19.5t7 3.5t6 -6v-5q0 -12 -8 -43.5t-15 -48.5q-12 -31 -31.5 -50t-60.5 -19q-23 0 -77 1t-113.5 2t-112.5 2t-74 1q-41 0 -60 -6.5 t-32 -16.5q-6 -4 -21.5 -24.5t-23.5 -20.5q-6 0 -6 6z" />
<glyph unicode="&#x2011;" horiz-adv-x="724" d="M45 313q0 2 9 15.5t20.5 30t21.5 30.5t15 19q23 35 36.5 50t42.5 15q23 0 76 -2t112.5 -3t112 -3t72.5 -2q41 0 70 13t31 42q2 16 3 19.5t7 3.5t6 -6v-5q0 -12 -8 -43.5t-15 -48.5q-12 -31 -31.5 -50t-60.5 -19q-23 0 -77 1t-113.5 2t-112.5 2t-74 1q-41 0 -60 -6.5 t-32 -16.5q-6 -4 -21.5 -24.5t-23.5 -20.5q-6 0 -6 6z" />
<glyph unicode="&#x2012;" horiz-adv-x="724" d="M45 313q0 2 9 15.5t20.5 30t21.5 30.5t15 19q23 35 36.5 50t42.5 15q23 0 76 -2t112.5 -3t112 -3t72.5 -2q41 0 70 13t31 42q2 16 3 19.5t7 3.5t6 -6v-5q0 -12 -8 -43.5t-15 -48.5q-12 -31 -31.5 -50t-60.5 -19q-23 0 -77 1t-113.5 2t-112.5 2t-74 1q-41 0 -60 -6.5 t-32 -16.5q-6 -4 -21.5 -24.5t-23.5 -20.5q-6 0 -6 6z" />
<glyph unicode="&#x2013;" horiz-adv-x="1024" d="M-12 479v66h1048v-66h-1048z" />
<glyph unicode="&#x2014;" horiz-adv-x="2048" d="M-12 479v66h2072v-66h-2072z" />
<glyph unicode="&#x2018;" horiz-adv-x="362" d="M88 1225q4 4 14.5 14t21.5 21.5t20.5 21.5t13.5 14q55 70 74.5 93.5t33.5 23.5t15 -8q0 -12 -19 -23q-25 -14 -42 -38.5t-17 -36.5q0 -10 6 -16.5t29 -28.5l36 -37q-6 -6 -18 -19.5t-26.5 -28t-28 -27.5t-17.5 -20q-6 6 -19 19.5t-28.5 29t-30 28t-18.5 18.5z" />
<glyph unicode="&#x2019;" horiz-adv-x="362" d="M82 1139q0 12 18 22q25 14 42.5 39t17.5 37q0 10 -6.5 16.5l-28.5 28.5l-37 37q6 6 18.5 19.5t26.5 27.5l27.5 27.5t17.5 19.5l19.5 -19.5t29 -28.5t29.5 -27.5t18 -18.5q-4 -4 -14 -14.5t-21.5 -21.5t-21.5 -21.5t-12 -14.5q-55 -70 -74.5 -93.5t-34.5 -23.5 q-14 0 -14 9z" />
<glyph unicode="&#x201a;" horiz-adv-x="362" d="M82 -121q0 12 18 23q25 14 42.5 38.5t17.5 36.5q0 10 -6.5 16.5t-28.5 29.5l-37 36q6 6 18.5 19.5t26.5 28t27.5 27.5t17.5 20l19.5 -19.5l29 -29t29.5 -27.5t18 -19l-14 -14l-21.5 -21.5l-21.5 -21.5t-12 -14q-55 -70 -74.5 -93.5t-34.5 -23.5q-14 0 -14 8z" />
<glyph unicode="&#x201c;" horiz-adv-x="575" d="M92 1225q4 4 14.5 14t21.5 21.5t20.5 21.5t13.5 14q55 70 74.5 93.5t33.5 23.5t15 -8q0 -12 -19 -23q-25 -14 -42 -38.5t-17 -36.5q0 -10 6 -16.5t29 -28.5l37 -37q-6 -6 -18.5 -19.5t-27 -28l-27.5 -27.5t-18 -20q-6 6 -19 19.5t-28.5 29t-30 28t-18.5 18.5zM311 1225 q4 4 14.5 14t21.5 21.5t20.5 21.5t13.5 14q55 70 74.5 93.5t33.5 23.5t15 -8q0 -12 -19 -23q-25 -14 -42 -38.5t-17 -36.5q0 -10 6 -16.5t29 -28.5l37 -37q-6 -6 -18.5 -19.5t-27 -28l-27.5 -27.5t-17 -20l-19.5 19.5l-29 29t-30 28t-18.5 18.5z" />
<glyph unicode="&#x201d;" horiz-adv-x="575" d="M92 1139q0 12 19 22q25 14 42 39t17 37q0 10 -6 16.5t-29 28.5l-37 37q6 6 18.5 19.5t27 27.5t27.5 27.5t17 19.5l19.5 -19.5t29 -28.5t30 -27.5t18.5 -18.5l-14.5 -14.5l-21.5 -21.5l-21.5 -21.5t-12.5 -14.5q-55 -70 -74.5 -93.5t-34.5 -23.5q-14 0 -14 9zM311 1139 q0 12 19 22q25 14 42 39t17 37q0 10 -6 16.5t-29 28.5l-37 37q6 6 18.5 19.5t27 27.5t27.5 27.5t18 19.5q6 -6 19 -19.5t28.5 -28.5t30 -27.5t18.5 -18.5l-14.5 -14.5l-21.5 -21.5l-21.5 -21.5t-12.5 -14.5q-55 -70 -74.5 -93.5t-33.5 -23.5t-15 9z" />
<glyph unicode="&#x201e;" horiz-adv-x="575" d="M82 -121q0 12 18 23q25 14 42.5 38.5t17.5 36.5q0 10 -6.5 16.5t-28.5 29.5l-37 36q6 6 18.5 19.5t26.5 28t27.5 27.5t17.5 20l19.5 -19.5l29 -29t29.5 -27.5t18 -19l-14 -14l-21.5 -21.5l-21.5 -21.5t-12 -14q-55 -70 -74.5 -93.5t-34.5 -23.5q-14 0 -14 8zM301 -121 q0 12 18 23q25 14 42.5 38.5t17.5 36.5q0 10 -6 16.5t-29 29.5l-37 36q6 6 18.5 19.5t27 28l27.5 27.5t17 20l19.5 -19.5l29 -29t29.5 -27.5t19 -19q-4 -4 -14.5 -14t-22 -21.5l-21.5 -21.5t-12 -14q-55 -70 -74.5 -93.5t-34.5 -23.5q-14 0 -14 8z" />
<glyph unicode="&#x2022;" horiz-adv-x="575" d="M59 674q0 49 18.5 91t49.5 72.5t73 48t89 17.5t89 -17.5t72.5 -48t49 -72.5t18.5 -91q0 -47 -18.5 -89t-49 -73t-72.5 -49.5t-89 -18.5t-89 18.5t-73 49.5t-49.5 73t-18.5 89z" />
<glyph unicode="&#x2026;" horiz-adv-x="2048" d="M248 70l37.5 37.5t52.5 56.5q12 -10 28.5 -25.5t67.5 -62.5q-29 -27 -50.5 -46.5t-45.5 -45.5zM930 70l37.5 37.5t52.5 56.5q12 -10 28.5 -25.5t67.5 -62.5q-29 -27 -50.5 -46.5t-45.5 -45.5zM1612 70l37.5 37.5t52.5 56.5q12 -10 28.5 -25.5t67.5 -62.5 q-29 -27 -50.5 -46.5t-45.5 -45.5z" />
<glyph unicode="&#x202f;" horiz-adv-x="326" />
<glyph unicode="&#x2039;" horiz-adv-x="299" d="M20 395q39 41 56.5 60.5t40.5 44.5q31 35 57.5 64.5t69.5 78.5q-31 -78 -56.5 -142.5t-44.5 -117.5q14 -31 32 -67.5t33 -72.5t28.5 -66t19.5 -48q-29 37 -60.5 75t-60.5 72q-6 6 -22.5 23.5t-35 36t-35 36t-22.5 23.5z" />
<glyph unicode="&#x203a;" horiz-adv-x="299" d="M45 139q18 43 30.5 75t24 59.5t22.5 55t25 66.5q-16 47 -41.5 118t-42.5 128q18 -27 34 -45t30 -34.5t26.5 -32t28.5 -33.5t37.5 -40t56.5 -57q-27 -25 -42 -40t-28 -28.5t-26.5 -28.5t-34.5 -38q-12 -14 -27.5 -33.5t-29.5 -38t-25.5 -33t-17.5 -20.5z" />
<glyph unicode="&#x205f;" horiz-adv-x="408" />
<glyph unicode="&#x20ac;" horiz-adv-x="894" d="M2 379q0 2 7 21.5t14 33.5q6 16 12 35.5t10 36.5h102v41v33.5t3 33.5q-70 -2 -99 -11t-39 -38q-4 -4 -6 -4q-4 0 -4 6q0 2 7 21.5t14 34.5q6 16 12 35.5t10 35.5h113q14 92 46 174t84 144.5t124.5 98.5t167.5 36q47 0 84.5 -7t69.5 -17.5t60.5 -23t59.5 -22.5 q-2 -33 -3 -59.5t-1 -44.5q0 -10 1 -30.5t1 -43t1 -42t1 -30.5q0 -4 -3 -8t-7 -4q-8 0 -8 8q0 111 -73 181.5t-188 70.5t-195.5 -95t-103.5 -286h572l-29 -78h-549v-51v-59h531l-29 -78h-493q12 -102 42.5 -174t69.5 -119t83 -68.5t85 -21.5q55 0 96 14.5t72 36t52.5 46 t35.5 46.5q4 6 15.5 34t9.5 44l-2 19q0 6 8 6q10 0 10 -15q0 -6 -1 -17t-2 -24.5t-2 -25.5t-1 -19q-2 -29 -2 -49v-65q-47 -18 -82 -35.5t-68.5 -30t-68.5 -19.5t-80 -7q-80 0 -146.5 31.5t-118 90t-85 140.5t-45.5 182q-72 -2 -101.5 -12t-40.5 -39q-4 -4 -6 -4q-4 0 -4 6z " />
<glyph unicode="&#x2122;" horiz-adv-x="1812" d="M156 1225v149q0 20 12 21q6 0 6 -4q0 -29 11.5 -34t56.5 -5h452q12 0 27.5 3t15.5 23q0 16 6 17q2 0 6.5 -1t4.5 -5v-152q0 -14 -1 -23.5t-12 -9.5q-6 0 -5 5t1 10q0 45 -16 67.5t-86 22.5h-146v-453q0 -35 3.5 -56.5t9.5 -32.5t14 -14t16 -3q6 0 22.5 1t23.5 1 q10 0 11 -2t1 -7q0 -6 -4 -8t-21 -2q-27 0 -63.5 2t-50.5 2q-6 0 -23.5 -1t-37 -1t-37 -1t-23.5 -1q-23 0 -26 2t-3 8q0 8 12 9q12 0 21.5 -1t13.5 -1q14 0 24.5 5t16.5 22.5t9 52t3 96.5v383h-147q-37 0 -59.5 -18.5t-22.5 -55.5l2 -16q0 -6 -6 -7q-6 0 -9 4.5t-3 8.5z M803 1343q0 14 31 15q12 0 40.5 -1t61.5 -2t61.5 -2t38.5 -1q25 -47 37 -73t29 -52q23 -41 42 -74t42 -80q16 -33 42.5 -82t49.5 -102q33 63 61.5 117.5t54 107.5t51 109.5t56.5 126.5h58q10 0 27.5 1t37.5 3q20 0 38.5 1t35.5 1q25 0 33 -1t8 -7q-1 -15 -21 -13 q-12 0 -36.5 1t-34.5 1q-23 0 -43.5 -32.5t-20.5 -73.5q0 -2 1 -33t4 -77t6 -100t6.5 -102.5t6.5 -83t5 -42.5q4 -16 20.5 -29.5t24.5 -13.5h43q8 0 8 -9q0 -10 -27 -10q-25 0 -59.5 2t-56.5 2q-16 0 -56.5 -2t-64.5 -2q-12 0 -20.5 2t-8.5 15q0 4 6 4q12 0 24.5 -1t16.5 -1 q41 0 54.5 10t13.5 45q0 6 -2 57t-6 119q-2 33 -4 71t-4.5 71.5t-4.5 62t-2 47.5q-20 -39 -33.5 -64.5t-25.5 -48t-24.5 -45t-28.5 -53.5q-27 -49 -64 -122t-80 -169q-6 18 -10 31.5t-10 28t-16.5 33t-24.5 48.5l-109 209q-14 27 -23 43.5t-17.5 29.5t-17.5 27.5t-22 37.5 q-4 -55 -10 -125t-12 -133.5t-10 -108.5t-4 -49q0 -6 -1 -15.5t2 -17.5t15 -14t37 -6q4 0 25.5 2t25.5 2q8 0 8 -11q0 -4 -4 -7t-20 -3q-18 0 -54 2t-55 2q-27 0 -59.5 -2t-55.5 -2q-12 0 -12 12q0 6 6 7q4 0 18.5 -1t18.5 1q20 4 29.5 14t13.5 30.5t7 54.5t10 85 q4 29 10 81t11 106.5t9 97.5t4 51q0 20 -9 32.5t-22.5 20.5t-27.5 11t-25 3q-8 0 -29.5 -1t-31.5 -1q-6 0 -6 6z" />
<glyph unicode="&#xe000;" horiz-adv-x="849" d="M0 0v850h850v-850h-850z" />
<glyph unicode="&#xfb01;" horiz-adv-x="1003" d="M57 727l111 115v86q0 90 35 170t93 140t133 95t155 35q59 0 116.5 -14.5t110.5 -30.5q0 -23 -2 -62.5t-2 -58.5q0 -27 -1 -62.5t-1 -52.5q0 -20 -6 -20q-4 0 -6 5t-7 30q-6 41 -29.5 74.5t-58 57t-76.5 37t-85 13.5q-45 0 -90.5 -18.5t-82 -58.5t-59 -101.5t-22.5 -149.5 v-112h292l-102 -117h-186v-590q0 -61 10 -91t63 -30q18 0 19.5 2t11.5 2q20 0 23.5 -2t3.5 -16q0 -4 -11.5 -4h-58.5q-18 0 -39.5 1t-64.5 1h-45t-47.5 -1t-40 -1h-25.5q-20 0 -20 16q0 6 8 6q4 0 14 -2t14 -2q31 0 48.5 21.5t17.5 97.5v592h-111zM551 0q0 14 12 14 q10 0 21.5 -1t17.5 -1q39 0 59.5 9.5t28.5 28t8 47v67.5v485q0 33 -5 54.5t-34 21.5q-10 0 -21 -6t-22 -10q-14 -8 -20 -9q-8 0 -4 15q2 4 18.5 12t22.5 12q100 57 192 129q-4 -33 -5 -54t-2 -37.5t-1 -33v-38.5v-553q0 -25 2 -50.5t10.5 -45t24.5 -32t45 -12.5q16 0 30.5 2 t26.5 2q10 0 11 -12q0 -6 -9.5 -8t-39.5 -2q-10 0 -35 1t-49 3q-25 0 -45.5 1t-24.5 1q-10 0 -33.5 -1t-50.5 -1q-27 -2 -49.5 -3t-32.5 -1q-29 0 -38 1t-9 5z" />
<glyph unicode="&#xfb02;" horiz-adv-x="1003" d="M57 727l111 117v74q0 113 43 196.5t108.5 140t145.5 85t151 28.5q53 0 87 -10t65 -21l61 31q-4 -18 -6 -33.5t-4 -40t-3 -63.5t-1 -105v-956q0 -55 5 -87t14.5 -48.5t21.5 -20.5t29 -4q16 0 31.5 2t29.5 2q16 0 17 -8q0 -10 -10.5 -11t-28.5 -1q-25 0 -75 3t-89 3 q-16 0 -42 -1t-52 -3q-25 -2 -48.5 -3t-39.5 -1q-29 0 -29 10q0 6 6 8t10 2q8 0 23.5 -2t19.5 -2q57 0 72.5 33t15.5 123v940v62.5t-2 38t-6 21.5t-12 15q-16 16 -53 29.5t-82 13.5q-49 0 -96.5 -22.5t-83 -63.5t-57 -99.5t-21.5 -129.5v-125h292l-104 -117h-184v-592 q0 -53 10 -87t65 -34q4 0 21.5 1t22.5 1q16 0 16 -6q0 -8 -9.5 -11t-33.5 -3q-20 0 -68.5 2t-89.5 2q-35 0 -70.5 -2t-54.5 -2q-31 0 -30 14q0 8 8 8q4 0 17 -2t18 -2q23 0 41 19.5t18 99.5v594h-111z" />
</font>
</defs>
</svg>
